<?xml version="1.0" standalone="no"?>
<!DOCTYPE svg PUBLIC "-//W3C//DTD SVG 1.1//EN" "http://www.w3.org/Graphics/SVG/1.1/DTD/svg11.dtd" >
<svg xmlns="http://www.w3.org/2000/svg" xmlns:xlink="http://www.w3.org/1999/xlink" version="1.1">
<metadata>
Created by FontForge 20170910 at Thu Dec  5 10:35:15 2013
 By Jimmy Wärting
Copyright (c) 2013 by FONTYOU. All rights reserved. www.fontyou.com
</metadata>
<defs>
<font id="BoosterNextFY-Bold" horiz-adv-x="628" >
  <font-face 
    font-family="Booster Next FY"
    font-weight="700"
    font-stretch="normal"
    units-per-em="1000"
    panose-1="2 0 8 3 0 0 0 2 0 4"
    ascent="750"
    descent="-250"
    x-height="508.998"
    cap-height="690.001"
    bbox="-250 -294.001 1092 976.002"
    underline-thickness="50"
    underline-position="-100"
    unicode-range="U+000D-FB02"
  />
<missing-glyph horiz-adv-x="602" 
d="M305 435c10.667 19.333 24.498 35 41.498 47s35.833 18 56.5 18c28.667 0 52.334 -9.83301 71.001 -29.5s28 -44.834 28 -75.501c0 -20 -4.5 -41.667 -13.5 -65s-22 -46.666 -39 -69.999s-38 -45.833 -63 -67.5s-53.5 -40.834 -85.5 -57.501
c-32 16.667 -60.5 35.834 -85.5 57.501s-46 44.167 -63 67.5s-30 46.666 -39 69.999s-13.5 45 -13.5 65c0 30.667 9.33301 55.834 28 75.501s42.334 29.5 71.001 29.5c20.667 0 39.5 -6 56.5 -18s30.833 -27.667 41.5 -47h8z" />
    <glyph glyph-name="fi" unicode="fi" horiz-adv-x="583" 
d="M386 386l-195.002 -0.00292969v-327c0 -17.333 -5.66699 -31.5 -17 -42.5s-26 -16.5 -44 -16.5s-32.667 5.5 -44 16.5s-17 25.167 -17 42.5v407c0 75.333 19.667 133.166 59 173.499s94.333 60.5 165 60.5c78 0 133 -4.66699 165 -14
c16.667 -3.33301 28.167 -10.166 34.5 -20.499s9.5 -21.166 9.5 -32.499c0 -19.333 -5.5 -33.666 -16.5 -42.999s-23.5 -14 -37.5 -14c-16 0 -36.167 1.5 -60.5 4.5s-51.833 4.5 -82.5 4.5c-20 0 -36.833 -1.66699 -50.5 -5s-24.667 -8.5 -33 -15.5
s-14.666 -16.167 -18.999 -27.5s-7.16602 -24.666 -8.49902 -39.999h260c15.333 0 28.333 -5 39 -15s16 -23.333 16 -40v-284c0 -13.333 1.83301 -24.5 5.5 -33.5s10.167 -13.5 19.5 -13.5c11.333 0 19.5 -5 24.5 -15s7.5 -20.667 7.5 -32
c0 -19.333 -5.83301 -34.833 -17.5 -46.5s-29.167 -17.5 -52.5 -17.5c-34.667 0 -61.667 11.5 -81 34.5s-29 61.5 -29 115.5v236z" />
    <glyph glyph-name="fl" unicode="fl" horiz-adv-x="583" 
d="M509 158c0 -13.333 1.83301 -24.4971 5.5 -33.4971s10.167 -13.5 19.5 -13.5c11.333 0 19.5 -5 24.5 -15s7.5 -20.667 7.5 -32c0 -19.333 -5.83301 -34.833 -17.5 -46.5s-29.167 -17.5 -52.5 -17.5c-15.333 0 -29.666 2.16699 -42.999 6.5s-25 12.166 -35 23.499
s-17.833 26.666 -23.5 45.999s-8.5 44 -8.5 74v425c-12 2 -25.333 4.16699 -40 6.5s-29.667 3.5 -45 3.5c-36.667 0 -63 -6.83301 -79 -20.5s-25.333 -36.167 -28 -67.5h84c16 0 29.167 -5 39.5 -15s15.5 -23.333 15.5 -40c0 -17.333 -5.16699 -31 -15.5 -41
s-23.5 -15 -39.5 -15h-87v-327c0 -17.333 -5.66699 -31.5 -17 -42.5s-26 -16.5 -44 -16.5c-20 0 -35.167 7.5 -45.5 22.5s-15.5 32.167 -15.5 51.5v392c0 75.333 19.667 133.166 59 173.499s95.333 60.5 168 60.5c48.667 0 87.167 -1.5 115.5 -4.5
s51.166 -9.16699 68.499 -18.5c11.333 -6 19 -13.167 23 -21.5s6 -18.833 6 -31.5v-466z" />
    <glyph glyph-name=".notdef" horiz-adv-x="602" 
d="M305 435c10.667 19.333 24.498 35 41.498 47s35.833 18 56.5 18c28.667 0 52.334 -9.83301 71.001 -29.5s28 -44.834 28 -75.501c0 -20 -4.5 -41.667 -13.5 -65s-22 -46.666 -39 -69.999s-38 -45.833 -63 -67.5s-53.5 -40.834 -85.5 -57.501
c-32 16.667 -60.5 35.834 -85.5 57.501s-46 44.167 -63 67.5s-30 46.666 -39 69.999s-13.5 45 -13.5 65c0 30.667 9.33301 55.834 28 75.501s42.334 29.5 71.001 29.5c20.667 0 39.5 -6 56.5 -18s30.833 -27.667 41.5 -47h8z" />
    <glyph glyph-name=".null" horiz-adv-x="0" 
 />
    <glyph glyph-name=".null" horiz-adv-x="0" 
 />
    <glyph glyph-name="nonmarkingreturn" unicode="&#xd;" horiz-adv-x="0" 
 />
    <glyph glyph-name="space" unicode=" " horiz-adv-x="209" 
 />
    <glyph glyph-name="exclam" unicode="!" horiz-adv-x="307" 
d="M89 627c-1.33301 19.333 2.83203 36.333 12.499 51s26.834 22 51.501 22c24 0 41 -7 51 -21s15 -31.667 15 -53l-10 -359c0 -16 -4.83301 -29.833 -14.5 -41.5s-23.5 -17.5 -41.5 -17.5c-17.333 0 -30.5 5.83301 -39.5 17.5s-13.833 25.167 -14.5 40.5zM152.998 149
c21.333 0 39.166 -6.66699 53.499 -20s21.5 -31.666 21.5 -54.999c0 -24 -7.16699 -42.333 -21.5 -55s-32.166 -19 -53.499 -19c-22 0 -39.833 6.33301 -53.5 19s-20.5 31 -20.5 55c0 23.333 6.83301 41.666 20.5 54.999s31.5 20 53.5 20z" />
    <glyph glyph-name="quotedbl" unicode="&#x22;" horiz-adv-x="408" 
d="M80 662c-1.33301 17.333 3.00098 30.333 13.001 39s21.667 13 35 13c14.667 0 27 -4.5 37 -13.5s14.333 -22.167 13 -39.5l-11 -157c-1.33301 -10.667 -5.5 -19.5 -12.5 -26.5s-15.833 -10.5 -26.5 -10.5s-19.334 3.5 -26.001 10.5s-10.667 16.167 -12 27.5zM230.001 662
c-1.33301 17.333 3.00098 30.333 13.001 39s21.667 13 35 13c14.667 0 27 -4.5 37 -13.5s14.333 -22.167 13 -39.5l-11 -157c-1.33301 -10.667 -5.5 -19.5 -12.5 -26.5s-15.833 -10.5 -26.5 -10.5s-19.334 3.5 -26.001 10.5s-10.667 16.167 -12 27.5z" />
    <glyph glyph-name="numbersign" unicode="#" horiz-adv-x="717" 
d="M109 175l-29.001 -0.000976562c-14 0 -25.167 4.16699 -33.5 12.5s-12.5 19.166 -12.5 32.499s4.16699 24.5 12.5 33.5s19.5 13.5 33.5 13.5h69l68 155h-34c-14 0 -25.333 4.16699 -34 12.5s-13 19.166 -13 32.499s4.33301 24.5 13 33.5s20 13.5 34 13.5h74l72 163
c4 10.667 10 18.334 18 23.001s15.667 7.33398 23 8.00098c12 0.666992 23 -2.83301 33 -10.5s15 -19.167 15 -34.5c0 -2.66699 -0.166992 -6 -0.5 -10s-1.5 -7.66699 -3.5 -11l-56 -128h147l72 163c4.66699 10.667 11 18.334 19 23.001s15.667 7.33398 23 8.00098
c12 0.666992 22.833 -2.83301 32.5 -10.5s14.834 -19.167 15.501 -34.5c0 -3.33301 -0.333008 -6.83301 -1 -10.5s-1.66699 -7.16699 -3 -10.5l-56 -128h30c13.333 0 24.5 -4.33301 33.5 -13s13.5 -19.667 13.5 -33s-4.5 -24.333 -13.5 -33s-20.167 -13 -33.5 -13h-70
l-68 -155h36c13.333 0 24.333 -4.33301 33 -13s13 -19.667 13 -33s-4.33301 -24.333 -13 -33s-19.667 -13 -33 -13h-76l-66 -153c-5.33301 -11.333 -12 -19.5 -20 -24.5s-16 -7.83301 -24 -8.5c-12.667 -0.666992 -23.667 3.16602 -33 11.499s-14.333 19.5 -15 33.5
c0 3.33301 0.333008 7 1 11s1.66699 7.66699 3 11l52 119h-146l-67 -154c-4.66699 -11.333 -11 -19.5 -19 -24.5s-16.333 -7.83301 -25 -8.5c-12 -0.666992 -22.833 3.33301 -32.5 12s-14.5 20 -14.5 34c0 2.66699 0.166992 6 0.5 10s1.5 7.66699 3.5 11zM250.999 266.999
h146l68 155h-147z" />
    <glyph glyph-name="dollar" unicode="$" 
d="M252 -6c-40 5.33301 -73.6689 15.0049 -101.002 29.0049s-49.666 29.333 -66.999 46c-8 7.33301 -15.667 16.333 -23 27s-11 21.667 -11 33c0 12 2.16699 22 6.5 30s9.66602 14.5 15.999 19.5s12.833 8.5 19.5 10.5s12.334 3 17.001 3c9.33301 0 18 -1.66699 26 -5
s15.667 -7.66602 23 -12.999c10 -8 20.167 -15.833 30.5 -23.5s21.833 -14.167 34.5 -19.5s26.834 -9.66602 42.501 -12.999s33.167 -5 52.5 -5c16 0 31.333 1.5 46 4.5s27.667 7.83301 39 14.5s20.333 15 27 25s10 21.667 10 35c0 14 -3.16699 26.167 -9.5 36.5
s-16.333 19.666 -30 27.999s-31.667 16.166 -54 23.499s-49.5 15 -81.5 23c-26.667 6.66699 -52 15.167 -76 25.5s-45 23.166 -63 38.499s-32.167 34 -42.5 56s-15.5 48.667 -15.5 80c0 26 4.66699 49.833 14 71.5s22.166 40.5 38.499 56.5s35.833 29.333 58.5 40
s47 18.334 73 23.001v51c0 19.333 6 34.666 18 45.999s27 17 45 17s33 -5.66699 45 -17s18 -26.666 18 -45.999v-50c25.333 -4 47.833 -10 67.5 -18s37.834 -17.333 54.501 -28c14.667 -9.33301 25.167 -20 31.5 -32s9.5 -23.667 9.5 -35s-2 -20.833 -6 -28.5
s-9 -13.834 -15 -18.501s-12.5 -8.16699 -19.5 -10.5s-13.5 -3.5 -19.5 -3.5c-11.333 0 -21 1.66699 -29 5s-16 7.33301 -24 12c-6.66699 4 -13.667 8.16699 -21 12.5s-15.833 8.5 -25.5 12.5s-20.667 7.33301 -33 10s-27.166 4 -44.499 4c-37.333 0 -64.5 -7.5 -81.5 -22.5
s-25.5 -31.833 -25.5 -50.5c0 -24.667 13.167 -44.334 39.5 -59.001s68.5 -29.334 126.5 -44.001c24.667 -6.66699 49.5 -14.667 74.5 -24s47.167 -21.5 66.5 -36.5s35.166 -34 47.499 -57s18.5 -51.833 18.5 -86.5c0 -24 -4 -46.833 -12 -68.5s-20 -41.334 -36 -59.001
s-36 -32.834 -60 -45.501s-52 -22 -84 -28v-51c0 -19.333 -6 -34.666 -18 -45.999s-27 -17 -45 -17s-33 5.66699 -45 17s-18 26.666 -18 45.999v49z" />
    <glyph glyph-name="percent" unicode="%" horiz-adv-x="775" 
d="M32 524c0 56.667 14 100.167 42 130.5s63.667 45.5 107 45.5c44 0 79.833 -15.167 107.5 -45.5s41.5 -73.5 41.5 -129.5c0 -57.333 -13.833 -101.5 -41.5 -132.5s-63.167 -46.5 -106.5 -46.5c-44 0 -80 15.333 -108 46s-42 74.667 -42 132zM588 670
c7.33301 8.66699 14 14.168 20 16.501s12 3.5 18 3.5c12 0 22.167 -4.16699 30.5 -12.5s12.5 -19.166 12.5 -32.499c0 -6 -1.16699 -11.333 -3.5 -16s-5.5 -9.66699 -9.5 -15l-478 -601c-6.66699 -8 -13.167 -13.5 -19.5 -16.5s-12.166 -4.5 -17.499 -4.5
c-14.667 0 -25.834 4.66699 -33.501 14s-11.5 19.333 -11.5 30c0 7.33301 1.16699 13.166 3.5 17.499s5.5 9.16602 9.5 14.499zM182 619.001c-18 0 -32.834 -7.33301 -44.501 -22s-17.5 -38.667 -17.5 -72c0 -34 5.83301 -58.833 17.5 -74.5s26.167 -23.5 43.5 -23.5
s31.833 7.83301 43.5 23.5s17.5 40.5 17.5 74.5c0 32 -5.66699 55.667 -17 71s-25.666 23 -42.999 23zM443.999 168.001c0 56.667 14 100.167 42 130.5s63.667 45.5 107 45.5c44 0 79.833 -15.167 107.5 -45.5s41.5 -73.5 41.5 -129.5
c0 -57.333 -13.833 -101.5 -41.5 -132.5s-63.5 -46.5 -107.5 -46.5s-79.833 15.333 -107.5 46s-41.5 74.667 -41.5 132zM592.999 263.001c-18 0 -32.833 -7.33301 -44.5 -22s-17.5 -38.667 -17.5 -72c0 -34 5.83301 -58.833 17.5 -74.5s26.5 -23.5 44.5 -23.5
c17.333 0 31.833 7.83301 43.5 23.5s17.5 40.5 17.5 74.5c0 32 -5.66699 55.667 -17 71s-26 23 -44 23z" />
    <glyph glyph-name="ampersand" unicode="&#x26;" horiz-adv-x="661" 
d="M465 105l-4.99707 -5.00488c-22.667 -21.333 -43.334 -39 -62.001 -53s-36.834 -25.5 -54.501 -34.5s-35.5 -15.333 -53.5 -19s-37 -5.5 -57 -5.5c-27.333 0 -52.166 4.66699 -74.499 14s-41.666 22 -57.999 38s-29 34.667 -38 56s-13.5 44 -13.5 68
c0 23.333 4 44.833 12 64.5s18.5 38 31.5 55s28 32.667 45 47s34.5 27.833 52.5 40.5l-12 12c-48 46 -72 96.333 -72 151c0 24.667 4.5 47.5 13.5 68.5s21.667 39 38 54s35.5 26.667 57.5 35s46 12.5 72 12.5c23.333 0 45.5 -3.66699 66.5 -11s39.5 -18.166 55.5 -32.499
s28.833 -31.666 38.5 -51.999s14.5 -43.5 14.5 -69.5c0 -18 -3 -34.833 -9 -50.5s-14.333 -30.5 -25 -44.5s-22.834 -27.167 -36.501 -39.5s-27.834 -24.5 -42.501 -36.5l118 -113l46 44c8 7.33301 14.667 11.833 20 13.5s11.666 2.5 18.999 2.5
c16 0 29.167 -5.16699 39.5 -15.5s15.5 -22.166 15.5 -35.499c0 -15.333 -9 -31 -27 -47l-37 -36l88 -84c14 -13.333 21 -27.666 21 -42.999c0 -13.333 -5.16699 -25.666 -15.5 -36.999s-22.5 -17 -36.5 -17c-17.333 0 -34 7.66699 -50 23zM255.003 98.9951
c22 0 42.167 6.33203 60.5 18.999s39.166 30 62.499 52l10 10l-128 123c-24 -18.667 -44.333 -37.667 -61 -57s-25 -40.333 -25 -63c0 -23.333 7.33301 -43.166 22 -59.499s34.334 -24.5 59.001 -24.5zM219.003 526.994c0 -21.333 13.333 -45.333 40 -72l23 -22
c21.333 15.333 38.833 30.333 52.5 45s20.5 30.667 20.5 48c0 18.667 -6.16699 34.167 -18.5 46.5s-28.833 18.5 -49.5 18.5s-37.167 -6.16699 -49.5 -18.5s-18.5 -27.5 -18.5 -45.5z" />
    <glyph glyph-name="quotesingle" unicode="'" horiz-adv-x="258" 
d="M80 662c-1.33301 17.333 3.00098 30.333 13.001 39s21.667 13 35 13c14.667 0 27 -4.5 37 -13.5s14.333 -22.167 13 -39.5l-11 -157c-1.33301 -10.667 -5.5 -19.5 -12.5 -26.5s-15.833 -10.5 -26.5 -10.5s-19.334 3.5 -26.001 10.5s-10.667 16.167 -12 27.5z" />
    <glyph glyph-name="parenleft" unicode="(" horiz-adv-x="330" 
d="M56 280c0 54.667 6.5 106 19.5 154s28 90.667 45 128s33.667 68.333 50 93s27.833 41 34.5 49c8.66699 9.33301 16.5 16 23.5 20s15.833 6 26.5 6c16 0 30.167 -6 42.5 -18s18.5 -24 18.5 -36c0 -6 -2.16699 -13.5 -6.5 -22.5s-11.166 -21.167 -20.499 -36.5
c-9.33301 -14 -20.166 -31.167 -32.499 -51.5s-24 -44.333 -35 -72s-20.333 -59.167 -28 -94.5s-11.5 -75 -11.5 -119s3.83301 -83.667 11.5 -119s17 -67 28 -95s22.667 -52.167 35 -72.5s23.166 -37.5 32.499 -51.5c9.33301 -15.333 16.166 -27.333 20.499 -36
s6.5 -16.334 6.5 -23.001c0 -6 -1.66699 -12 -5 -18s-7.83301 -11.667 -13.5 -17s-12.167 -9.66602 -19.5 -12.999s-15 -5 -23 -5c-10.667 0 -19.5 2 -26.5 6s-14.833 10.667 -23.5 20c-6.66699 8 -18.167 24.333 -34.5 49s-33 55.667 -50 93s-32 80 -45 128
s-19.5 99.333 -19.5 154z" />
    <glyph glyph-name="parenright" unicode=")" horiz-adv-x="330" 
d="M273 280c0 -54.667 -6.50195 -106 -19.502 -154s-27.833 -90.667 -44.5 -128s-33.167 -68.333 -49.5 -93s-27.833 -41 -34.5 -49c-9.33301 -9.33301 -17.333 -16 -24 -20s-15.667 -6 -27 -6c-8 0 -15.667 1.66699 -23 5s-13.666 7.66602 -18.999 12.999
s-9.66602 11 -12.999 17s-5 12 -5 18c0 6.66699 2 14.334 6 23.001s11 20.667 21 36c9.33301 14 20 31.167 32 51.5s23.5 44.5 34.5 72.5s20.333 59.667 28 95s11.5 75 11.5 119s-3.83301 83.667 -11.5 119s-17 66.833 -28 94.5s-22.5 51.667 -34.5 72
s-22.667 37.5 -32 51.5c-10 15.333 -17 27.5 -21 36.5s-6 16.5 -6 22.5c0 12 6 24 18 36s26 18 42 18c11.333 0 20.333 -2 27 -6s14.667 -10.667 24 -20c6.66699 -8 18.167 -24.333 34.5 -49s32.833 -55.667 49.5 -93s31.5 -80 44.5 -128s19.5 -99.333 19.5 -154z" />
    <glyph glyph-name="asterisk" unicode="*" horiz-adv-x="474" 
d="M326 604c9.33301 7.33301 19.3359 11.0039 30.0029 11.0039c9.33301 0 17.833 -2.83301 25.5 -8.5s13.167 -13.834 16.5 -24.501c6 -16.667 4.33301 -31.167 -5 -43.5s-24.333 -17.833 -45 -16.5l-78 -4l62 -50c8 -5.33301 13.833 -11.5 17.5 -18.5
s5.5 -14.167 5.5 -21.5c0 -14 -6.33301 -26 -19 -36c-10.667 -7.33301 -20.667 -11 -30 -11s-18.166 3.16699 -26.499 9.5s-14.166 16.166 -17.499 29.499l-27 76l-26 -73c-3.33301 -13.333 -8.83301 -23.333 -16.5 -30s-16.5 -10 -26.5 -10
c-10.667 0 -20.334 3.33301 -29.001 10c-14.667 10 -22 22.333 -22 37s7.66699 27.667 23 39l65 52l-76 5c-20.667 -1.33301 -35.834 4.16699 -45.501 16.5s-11.834 26.5 -6.50098 42.5c3.33301 11.333 8.66602 20.166 15.999 26.499s15.666 9.5 24.999 9.5
c10.667 0 20.667 -3.66699 30 -11l71 -49l-23 81c-6 17.333 -4.66699 31.666 4 42.999s21.667 17 39 17c18 0 31.5 -5.5 40.5 -16.5s10.167 -25.167 3.5 -42.5l-23 -84z" />
    <glyph glyph-name="plus" unicode="+" 
d="M470 361c13.333 0 24.333 -4.33301 33 -13s13 -19.667 13 -33s-4.33301 -24.166 -13 -32.499s-19.667 -12.5 -33 -12.5h-111v-113c0 -13.333 -4.16699 -24.333 -12.5 -33s-19.166 -13 -32.499 -13s-24.333 4.33301 -33 13s-13 19.667 -13 33v113h-110
c-13.333 0 -24.5 4.33301 -33.5 13s-13.5 19.667 -13.5 33s4.5 24.166 13.5 32.499s20.167 12.5 33.5 12.5h111v113c0 13.333 4.33301 24.333 13 33s19.667 13 33 13s24.166 -4.33301 32.499 -13s12.5 -19.667 12.5 -33v-113h110z" />
    <glyph glyph-name="comma" unicode="," horiz-adv-x="307" 
d="M231 49c0 -34.667 -4.66699 -64.167 -14 -88.5s-21 -44.333 -35 -60s-29 -27 -45 -34s-30.333 -10.5 -43 -10.5c-11.333 0 -19.833 2.5 -25.5 7.5s-8.5 11.5 -8.5 19.5c0 13.333 7.33301 23 22 29c42.667 15.333 65 44.333 67 87c-28.667 4.66699 -47.5 14 -56.5 28
s-13.5 28.667 -13.5 44c0 25.333 7.16699 44.5 21.5 57.5s31.5 19.5 51.5 19.5c23.333 0 42.333 -8.5 57 -25.5s22 -41.5 22 -73.5z" />
    <glyph glyph-name="hyphen" unicode="-" horiz-adv-x="426" 
d="M314 311c15.333 0 28.166 -4.66699 38.499 -14s15.5 -22.666 15.5 -39.999s-5.16699 -30.666 -15.5 -39.999s-23.166 -14 -38.499 -14h-201c-15.333 0 -28.166 4.66699 -38.499 14s-15.5 22.666 -15.5 39.999s5.16699 30.666 15.5 39.999s23.166 14 38.499 14h201z" />
    <glyph glyph-name="period" unicode="." horiz-adv-x="307" 
d="M153 148c20.667 0 38.332 -6.49902 52.999 -19.499s22 -31.167 22 -54.5c0 -25.333 -7.16699 -44 -21.5 -56s-32.166 -18 -53.499 -18c-22 0 -39.833 6.16699 -53.5 18.5s-20.5 30.5 -20.5 54.5c0 23.333 6.66699 41.666 20 54.999s31.333 20 54 20z" />
    <glyph glyph-name="slash" unicode="/" horiz-adv-x="414" 
d="M283 641c8 16 16.5 28.168 25.5 36.501s20.167 12.5 33.5 12.5c17.333 0 32.166 -5.33301 44.499 -16s18.5 -24.667 18.5 -42c0 -6 -1.33301 -12.833 -4 -20.5s-5.33398 -14.167 -8.00098 -19.5l-261 -542c-9.33301 -19.333 -19.166 -32.5 -29.499 -39.5
s-22.166 -10.5 -35.499 -10.5c-14.667 0 -28 5 -40 15s-18 23.667 -18 41c0 11.333 3.33301 24.666 10 39.999z" />
    <glyph glyph-name="zero" unicode="0" horiz-adv-x="624" 
d="M312 700c82.667 0 146.334 -30.833 191.001 -92.5s67 -148.5 67 -260.5c0 -117.333 -21.833 -206.333 -65.5 -267s-107.834 -91 -192.501 -91c-85.333 0 -149.833 30.333 -193.5 91s-65.5 149.667 -65.5 267c0 112 22.667 198.833 68 260.5s109 92.5 191 92.5zM312 580
c-43.333 0 -76.5 -20.667 -99.5 -62s-34.5 -98.333 -34.5 -171c0 -76.667 11.333 -135.667 34 -177s56 -62 100 -62s77.333 20.667 100 62s34 100.333 34 177c0 72.667 -11.5 129.667 -34.5 171s-56.167 62 -99.5 62z" />
    <glyph glyph-name="one" unicode="1" horiz-adv-x="421" 
d="M328 59c0 -16.667 -5.83203 -30.668 -17.499 -42.001s-26.5 -17 -44.5 -17c-16.667 0 -31 5.33301 -43 16s-18 25 -18 43v442l-75 -63c-5.33301 -4.66699 -12 -8.66699 -20 -12s-15.667 -5 -23 -5c-16 0 -29.667 5.83301 -41 17.5s-17 25.834 -17 42.501
c0 10 2.16699 19 6.5 27s9.83301 14.667 16.5 20l165 142c10.667 8.66699 20.167 14.167 28.5 16.5s15.166 3.5 20.499 3.5c18.667 0 33.5 -5.5 44.5 -16.5s16.5 -25.5 16.5 -43.5z" />
    <glyph glyph-name="two" unicode="2" horiz-adv-x="544" 
d="M256 331c18.667 21.333 34.3311 40.5049 46.998 57.5049s22.834 32.333 30.501 46s13.334 26.167 17.001 37.5s5.5 22.333 5.5 33c0 20.667 -7.5 38.334 -22.5 53.001s-37.5 22 -67.5 22c-26.667 0 -47.834 -4.83301 -63.501 -14.5s-28.167 -22.167 -37.5 -37.5
c-8.66699 -13.333 -17.667 -22.833 -27 -28.5s-19.666 -8.16699 -30.999 -7.5c-16 0 -29.667 5 -41 15s-17 25 -17 45c0 15.333 5 31.666 15 48.999s24.5 33.333 43.5 48s42 26.834 69 36.501s57.5 14.5 91.5 14.5c31.333 0 60 -4.33301 86 -13s48.5 -21.334 67.5 -38.001
s33.833 -36.834 44.5 -60.501s16 -50.5 16 -80.5c0 -19.333 -2.66699 -37.833 -8 -55.5s-13 -35.5 -23 -53.5s-22.5 -36.667 -37.5 -56s-32.167 -40.333 -51.5 -63l-137 -164h214c18.667 0 33.667 -5.33301 45 -16s17 -24.667 17 -42s-5.66699 -31.333 -17 -42
s-26.333 -16 -45 -16h-331c-6 0 -12.667 0.833008 -20 2.5s-14.333 4.66699 -21 9s-12.167 10.166 -16.5 17.499s-6.5 16.666 -6.5 27.999c0 9.33301 2 18.666 6 27.999s9 17.666 15 24.999z" />
    <glyph glyph-name="three" unicode="3" horiz-adv-x="550" 
d="M259 420c28.667 0 50.166 8.00098 64.499 24.001s21.5 34.333 21.5 55c0 23.333 -8.83301 42.833 -26.5 58.5s-42.167 23.5 -73.5 23.5c-21.333 0 -40 -2.66699 -56 -8s-32 -13.666 -48 -24.999c-10 -8 -21.667 -12 -35 -12s-25.666 5 -36.999 15s-17 22.667 -17 38
c0 19.333 10.333 37.666 31 54.999c5.33301 4.66699 13 10.167 23 16.5s22.167 12.5 36.5 18.5s30.5 11 48.5 15s38 6 60 6c32.667 0 62.667 -4.83301 90 -14.5s50.666 -22.5 69.999 -38.5s34.5 -34.833 45.5 -56.5s16.5 -44.5 16.5 -68.5c0 -32 -8.5 -61.5 -25.5 -88.5
s-42.167 -47.167 -75.5 -60.5c21.333 -5.33301 39.833 -13.333 55.5 -24s28.5 -23.334 38.5 -38.001s17.5 -30.667 22.5 -48s7.5 -34.666 7.5 -51.999c0 -33.333 -6.16699 -63.666 -18.5 -90.999s-29.5 -50.833 -51.5 -70.5s-48 -34.834 -78 -45.501s-62.333 -16 -97 -16
c-40.667 0 -76.167 5 -106.5 15s-57.833 25 -82.5 45c-18.667 16.667 -28 34.667 -28 54c0 16 5.83301 29.5 17.5 40.5s25.834 16.5 42.501 16.5c12 0 22.333 -3.33301 31 -10c19.333 -14.667 38 -25 56 -31s39.667 -9 65 -9c36.667 0 66.667 9.16699 90 27.5
s35 43.166 35 74.499c0 28 -9.16699 50.667 -27.5 68s-45.5 26 -81.5 26h-44c-17.333 0 -32.333 5.5 -45 16.5s-19 25.167 -19 42.5c0 18 6.83301 31.833 20.5 41.5s30.167 14.5 49.5 14.5h35z" />
    <glyph glyph-name="four" unicode="4" horiz-adv-x="568" 
d="M483 240c17.333 0 31.833 -5 43.5 -15s17.5 -24.333 17.5 -43c0 -18 -5.83301 -32 -17.5 -42s-26.167 -15 -43.5 -15h-34v-65c0 -18.667 -5.5 -33.334 -16.5 -44.001s-25.5 -16 -43.5 -16c-17.333 0 -31.833 5.33301 -43.5 16s-17.5 25.334 -17.5 44.001v65h-243
c-17.333 0 -31.833 5 -43.5 15s-17.5 24 -17.5 42c0 5.33301 1 12 3 20s5.66699 15.667 11 23l291 427c9.33301 14 18.5 23.833 27.5 29.5s19.5 8.5 31.5 8.5c17.333 0 32 -5.5 44 -16.5s18 -26.167 18 -45.5v-388h33zM328 240v238l-158 -238h158z" />
    <glyph glyph-name="five" unicode="5" horiz-adv-x="574" 
d="M199 425c13.333 12 30.3311 22.001 50.998 30.001s44 12 70 12c30.667 0 58.834 -5.33301 84.501 -16s47.834 -26 66.501 -46s33.167 -44.167 43.5 -72.5s15.5 -59.833 15.5 -94.5c0 -36 -6.33301 -69.167 -19 -99.5s-29.834 -56.5 -51.501 -78.5s-47 -39.167 -76 -51.5
s-59.833 -18.5 -92.5 -18.5c-36.667 0 -69 4.83301 -97 14.5s-51.667 21.667 -71 36s-34 29.666 -44 45.999s-15 31.166 -15 44.499c0 15.333 5.16699 28.833 15.5 40.5s23.5 17.5 39.5 17.5c7.33301 0 14.5 -1.16699 21.5 -3.5s15.167 -7.5 24.5 -15.5
c22 -26 43.5 -42.833 64.5 -50.5s42.167 -11.5 63.5 -11.5c16.667 0 32.167 3 46.5 9s27 14.333 38 25s19.667 23.5 26 38.5s9.5 31.5 9.5 49.5c0 17.333 -3 33.333 -9 48s-14.167 27.5 -24.5 38.5s-22.666 19.667 -36.999 26s-29.833 9.5 -46.5 9.5
c-27.333 0 -48.5 -4.33301 -63.5 -13s-29.167 -19.334 -42.5 -32.001c-5.33301 -5.33301 -12.333 -11.166 -21 -17.499s-20.667 -9.5 -36 -9.5c-17.333 0 -30.833 5.33301 -40.5 16s-14.167 26.667 -13.5 48l13 291c1.33301 17.333 6.83301 31.5 16.5 42.5
s24.167 16.5 43.5 16.5h283c15.333 0 29 -5.33301 41 -16s18 -24.667 18 -42s-6 -31.166 -18 -41.499s-25.667 -15.5 -41 -15.5h-228z" />
    <glyph glyph-name="six" unicode="6" horiz-adv-x="592" 
d="M187 393c13.333 21.333 32.665 38.3311 57.998 50.998s53.333 19 84 19c31.333 0 59.833 -5.66699 85.5 -17s47.834 -27 66.501 -47s33 -44 43 -72s15 -58.667 15 -92c0 -36 -6.33301 -69 -19 -99s-30 -55.833 -52 -77.5s-47.5 -38.5 -76.5 -50.5s-59.833 -18 -92.5 -18
c-38 0 -72.167 7 -102.5 21s-56 33.833 -77 59.5s-37.167 56.334 -48.5 92.001s-17 75.167 -17 118.5c0 62 9.16699 118.667 27.5 170s43.666 95.5 75.999 132.5s70.833 65.667 115.5 86s93.667 30.5 147 30.5c10 0 19.833 -0.833008 29.5 -2.5s18.334 -4.5 26.001 -8.5
s13.834 -9.66699 18.501 -17s7 -17 7 -29c0 -15.333 -4.5 -28.666 -13.5 -39.999s-26.5 -17.333 -52.5 -18c-68.667 -1.33301 -123 -17.5 -163 -48.5s-68.333 -78.833 -85 -143.5zM299.999 105.998c16 0 31.168 3.00195 45.501 9.00195s26.833 14.5 37.5 25.5s19 24 25 39
s9 31.5 9 49.5c0 35.333 -10.833 64.166 -32.5 86.499s-49.834 33.5 -84.501 33.5c-16.667 0 -32.167 -3 -46.5 -9s-26.666 -14.5 -36.999 -25.5s-18.5 -23.833 -24.5 -38.5s-9 -30.334 -9 -47.001c0 -17.333 3 -33.5 9 -48.5s14.167 -28 24.5 -39
s22.666 -19.667 36.999 -26s29.833 -9.5 46.5 -9.5z" />
    <glyph glyph-name="seven" unicode="7" horiz-adv-x="483" 
d="M403 690c16 0 31 -3.83203 45 -11.499s21 -21.5 21 -41.5c0 -8 -1.16699 -15.5 -3.5 -22.5s-4.5 -13.167 -6.5 -18.5l-271 -560c-6 -12.667 -13.833 -21.834 -23.5 -27.501s-20.167 -8.5 -31.5 -8.5c-14.667 -0 -28.167 4.83301 -40.5 14.5s-18.5 23.834 -18.5 42.501
c0 4 0.666992 9 2 15s3.66602 12 6.99902 18l234 490h-233c-17.333 0 -31.666 4.66699 -42.999 14s-17 22.666 -17 39.999s5.5 31 16.5 41s25.167 15 42.5 15h320z" />
    <glyph glyph-name="eight" unicode="8" horiz-adv-x="573" 
d="M401 374c18 -7.33301 34.498 -16.5 49.498 -27.5s28 -24 39 -39s19.667 -31.333 26 -49s9.5 -36.5 9.5 -56.5c0 -30.667 -5.83301 -59 -17.5 -85s-28.167 -48.333 -49.5 -67s-46.666 -33.334 -75.999 -44.001s-61.666 -16 -96.999 -16c-34.667 0 -66.5 5.33301 -95.5 16
s-53.833 25.334 -74.5 44.001s-36.834 41 -48.501 67s-17.5 54.333 -17.5 85c0 20 3.5 39.167 10.5 57.5s16.167 34.833 27.5 49.5s24.5 27.5 39.5 38.5s30.5 19.5 46.5 25.5c-30 19.333 -51.833 41 -65.5 65s-20.5 50 -20.5 78c0 26 5 50.333 15 73
s23.833 42.167 41.5 58.5s38.834 29.166 63.501 38.499s51.667 14 81 14s56.166 -4.66699 80.499 -14s45.333 -22.166 63 -38.499s31.334 -35.833 41.001 -58.5s14.5 -47 14.5 -73c0 -31.333 -7.83301 -59 -23.5 -83s-36.5 -43.667 -62.5 -59zM286.998 583
c-23.333 0 -42.166 -7.16699 -56.499 -21.5s-21.5 -33.166 -21.5 -56.499c0 -21.333 7.16699 -39.833 21.5 -55.5s33.166 -23.5 56.499 -23.5c22 0 40.333 7.83301 55 23.5s22 34.167 22 55.5c0 23.333 -7.16699 42.166 -21.5 56.499s-32.833 21.5 -55.5 21.5zM285.998 104
c32.667 0 59.332 10.667 79.999 32s31 48 31 80s-10.167 58.167 -30.5 78.5s-47.166 30.5 -80.499 30.5c-32.667 0 -59.167 -10.167 -79.5 -30.5s-30.5 -46.5 -30.5 -78.5s10.333 -58.667 31 -80s47 -32 79 -32z" />
    <glyph glyph-name="nine" unicode="9" horiz-adv-x="592" 
d="M405 297c-13.333 -21.333 -32.334 -38.334 -57.001 -51.001s-51 -19 -79 -19c-30.667 0 -59.167 5.5 -85.5 16.5s-49.166 26.833 -68.499 47.5s-34.5 45.334 -45.5 74.001s-16.5 60.667 -16.5 96c0 34 6.33301 65.5 19 94.5s30 54.333 52 76s47.5 38.5 76.5 50.5
s59.833 18 92.5 18c38 0 72.167 -7.16699 102.5 -21.5s56 -34.166 77 -59.499s37.167 -56 48.5 -92s17 -75.333 17 -118c0 -62 -9.16699 -118.667 -27.5 -170s-43.666 -95.5 -75.999 -132.5s-71 -65.667 -116 -86s-93.833 -30.5 -146.5 -30.5
c-10 0 -19.833 0.833008 -29.5 2.5s-18.334 4.5 -26.001 8.5s-13.834 9.66699 -18.501 17s-7 17 -7 29c0 15.333 4.5 28.666 13.5 39.999s26.5 17.333 52.5 18c134.667 2 217.334 66 248.001 192zM291.999 582.999c-16.667 0 -32.1699 -3.16602 -46.5029 -9.49902
s-26.666 -15 -36.999 -26s-18.5 -24 -24.5 -39s-9 -31.167 -9 -48.5c0 -34.667 10.833 -63.167 32.5 -85.5s49.834 -33.5 84.501 -33.5c16.667 0 32 3 46 9s26.333 14.5 37 25.5s19 23.667 25 38s9 30.166 9 47.499s-3 33.333 -9 48s-14.167 27.5 -24.5 38.5
s-22.666 19.667 -36.999 26s-29.833 9.5 -46.5 9.5z" />
    <glyph glyph-name="colon" unicode=":" horiz-adv-x="307" 
d="M153 148c20.667 0 38.332 -6.49902 52.999 -19.499s22 -31.167 22 -54.5c0 -25.333 -7.16699 -44 -21.5 -56s-32.166 -18 -53.499 -18c-22 0 -39.833 6.16699 -53.5 18.5s-20.5 30.5 -20.5 54.5c0 23.333 6.66699 41.666 20 54.999s31.333 20 54 20zM152.998 495.001
c20.667 0 38.332 -6.49902 52.999 -19.499s22 -31.167 22 -54.5c0 -25.333 -7.16699 -44 -21.5 -56s-32.166 -18 -53.499 -18c-22 0 -39.833 6.16699 -53.5 18.5s-20.5 30.5 -20.5 54.5c0 23.333 6.66699 41.666 20 54.999s31.333 20 54 20z" />
    <glyph glyph-name="semicolon" unicode=";" horiz-adv-x="307" 
d="M231 49c0 -34.667 -4.66699 -64.167 -14 -88.5s-21 -44.333 -35 -60s-29 -27 -45 -34s-30.333 -10.5 -43 -10.5c-11.333 0 -19.833 2.5 -25.5 7.5s-8.5 11.5 -8.5 19.5c0 13.333 7.33301 23 22 29c42.667 15.333 65 44.333 67 87c-28.667 4.66699 -47.5 14 -56.5 28
s-13.5 28.667 -13.5 44c0 25.333 7.16699 44.5 21.5 57.5s31.5 19.5 51.5 19.5c23.333 0 42.333 -8.5 57 -25.5s22 -41.5 22 -73.5zM153 495c20.667 0 38.332 -6.49902 52.999 -19.499s22 -31.167 22 -54.5c0 -25.333 -7.16699 -44 -21.5 -56s-32.166 -18 -53.499 -18
c-22 0 -39.833 6.16699 -53.5 18.5s-20.5 30.5 -20.5 54.5c0 23.333 6.66699 41.666 20 54.999s31.333 20 54 20z" />
    <glyph glyph-name="less" unicode="&#x3c;" 
d="M161 278c-7.33301 4.66699 -13.6641 10.333 -18.9971 17s-8 15.667 -8 27s2.5 20 7.5 26s11.5 11.667 19.5 17l238 138c7.33301 3.33301 13.666 6 18.999 8s11 3 17 3c13.333 0 24.166 -4.16699 32.499 -12.5s12.5 -19.5 12.5 -33.5c0 -10 -3 -18.667 -9 -26
s-14 -13.666 -24 -18.999l-184 -101l184 -100c10 -6 18 -12.333 24 -19s9 -15.334 9 -26.001c0 -11.333 -3.83301 -22 -11.5 -32s-17.834 -15 -30.501 -15c-7.33301 0 -13.833 1 -19.5 3s-12.167 5 -19.5 9z" />
    <glyph glyph-name="equal" unicode="=" 
d="M470 451c13.333 0 24.333 -4.16699 33 -12.5s13 -19.166 13 -32.499s-4.33301 -24.333 -13 -33s-19.667 -13 -33 -13h-312c-13.333 0 -24.5 4.33301 -33.5 13s-13.5 19.667 -13.5 33s4.5 24.166 13.5 32.499s20.167 12.5 33.5 12.5h312zM470 274
c13.333 0 24.333 -4.33301 33 -13s13 -19.667 13 -33s-4.33301 -24.166 -13 -32.499s-19.667 -12.5 -33 -12.5h-312c-13.333 0 -24.5 4.16699 -33.5 12.5s-13.5 19.166 -13.5 32.499s4.5 24.333 13.5 33s20.167 13 33.5 13h312z" />
    <glyph glyph-name="greater" unicode="&#x3e;" 
d="M228 142c-7.33301 -4 -13.668 -7 -19.001 -9s-11.666 -3 -18.999 -3c-12.667 0 -22.834 5 -30.501 15s-11.5 20.667 -11.5 32c0 10.667 2.83301 19.334 8.5 26.001s13.834 13 24.501 19l184 100l-184 101c-22 11.333 -33 26.333 -33 45c0 14 4.16699 25.167 12.5 33.5
s18.833 12.5 31.5 12.5c6.66699 0 12.5 -1 17.5 -3s11.167 -4.66699 18.5 -8l238 -138c8 -5.33301 14.667 -11 20 -17s8 -14.667 8 -26s-2.66699 -20.333 -8 -27s-12 -12.334 -20 -17.001z" />
    <glyph glyph-name="question" unicode="?" horiz-adv-x="552" 
d="M189 358c0 17.333 5.33105 31.3271 15.998 41.9941s23.334 18 38.001 22c37.333 8.66699 64.666 19.834 81.999 33.501s26 31.834 26 54.501c0 20 -6.66699 36.833 -20 50.5s-34 20.5 -62 20.5c-34.667 0 -64 -15 -88 -45
c-9.33301 -11.333 -18.166 -20.666 -26.499 -27.999s-19.833 -11 -34.5 -11c-18.667 0 -32.667 5.33301 -42 16s-14 24.334 -14 41.001s3.33301 30.834 10 42.501s13 20.834 19 27.501c18 21.333 41.5 39.333 70.5 54s65.167 22 108.5 22c30.667 0 58.667 -4 84 -12
s47 -19.833 65 -35.5s32 -35 42 -58s15 -49.833 15 -80.5c0 -50.667 -15.167 -90.5 -45.5 -119.5s-71.833 -51.833 -124.5 -68.5v-60c0 -17.333 -5.16699 -31.333 -15.5 -42s-25.166 -16 -44.499 -16c-18.667 0 -33.167 5.33301 -43.5 16s-15.5 24.667 -15.5 42v92z
M248.998 148.994c21.333 0 39.166 -6.66699 53.499 -20s21.5 -31.666 21.5 -54.999c0 -24 -7.16699 -42.333 -21.5 -55s-32.166 -19 -53.499 -19c-22 0 -40 6.33301 -54 19s-21 31 -21 55c0 23.333 7 41.666 21 54.999s32 20 54 20z" />
    <glyph glyph-name="at" unicode="@" horiz-adv-x="825" 
d="M576 179c0 -15.333 3.50977 -26.332 10.5098 -32.999s15.833 -10 26.5 -10c14 0 27.667 9 41 27s20 45.667 20 83c0 35.333 -4.33301 68.833 -13 100.5s-22.834 59.334 -42.501 83.001s-45.334 42.334 -77.001 56.001s-70.5 20.5 -116.5 20.5
c-46.667 0 -87.334 -7.83301 -122.001 -23.5s-63.334 -36.5 -86.001 -62.5s-39.667 -56 -51 -90s-17 -69 -17 -105s5.5 -70.5 16.5 -103.5s27.5 -62.333 49.5 -88s49.667 -46 83 -61s72.666 -22.5 117.999 -22.5c33.333 0 63.666 5 90.999 15
c11.333 5.33301 20.666 8 27.999 8c13.333 0 23.666 -4.83301 30.999 -14.5s11 -20.5 11 -32.5c0 -8.66699 -2 -17 -6 -25s-10.333 -14.667 -19 -20c-12.667 -7.33301 -31 -14.166 -55 -20.499s-53.333 -9.5 -88 -9.5c-60 0 -112.5 10.667 -157.5 32
s-82.5 49.166 -112.5 83.499s-52.5 73.666 -67.5 117.999s-22.5 89.5 -22.5 135.5c0 50.667 8 99.167 24 145.5s39.667 87.166 71 122.499s70.5 63.333 117.5 84s101.167 31 162.5 31c52 0 99.5 -8.33301 142.5 -25s80.167 -40.167 111.5 -70.5s55.666 -66.5 72.999 -108.5
s26 -88.333 26 -139c0 -38 -5 -71.167 -15 -99.5s-23 -51.833 -39 -70.5s-34.5 -32.5 -55.5 -41.5s-42.5 -13.5 -64.5 -13.5c-18 0 -33.333 2.33301 -46 7s-23.167 10.834 -31.5 18.501s-15 16 -20 25s-8.83301 17.833 -11.5 26.5c-10.667 -26 -25.667 -45.167 -45 -57.5
s-41 -18.5 -65 -18.5c-24.667 0 -46.834 4.83301 -66.501 14.5s-36.5 23.167 -50.5 40.5s-24.667 37.5 -32 60.5s-11 48.167 -11 75.5c0 31.333 4.83301 58.666 14.5 81.999s22 42.666 37 57.999s31.667 26.833 50 34.5s35.833 11.5 52.5 11.5c26 0 47 -5.5 63 -16.5
s28.667 -26.167 38 -45.5v16c0 11.333 4.33301 20.833 13 28.5s20 11.5 34 11.5c14.667 0 26.667 -3.33301 36 -10s14 -16.667 14 -30v-188zM408.01 137.001c20.667 0 37.667 7.83398 51 23.501s20 36.167 20 61.5c0 26.667 -6.5 48 -19.5 64s-30.167 24 -51.5 24
c-23.333 0 -41.833 -7.83301 -55.5 -23.5s-20.5 -36.834 -20.5 -63.501c0 -26 7.33301 -46.833 22 -62.5s32.667 -23.5 54 -23.5z" />
    <glyph glyph-name="A" unicode="A" horiz-adv-x="690" 
d="M486 155l-285.997 0.00195312l-46 -116c-6 -14.667 -13.667 -24.834 -23 -30.501s-21 -8.5 -35 -8.5c-18.667 0 -33.667 5 -45 15s-17 23.333 -17 40c0 7.33301 0.833008 14.166 2.5 20.499s4.5 14.166 8.5 23.499l228 536c7.33301 17.333 16.666 30.833 27.999 40.5
s26 14.5 44 14.5s32.833 -4.83301 44.5 -14.5s21.167 -23.167 28.5 -40.5l228 -536c6.66699 -15.333 10 -28 10 -38c0 -18.667 -6.33301 -33.5 -19 -44.5s-28.334 -16.5 -47.001 -16.5c-15.333 0 -27.833 3.83301 -37.5 11.5s-17.834 19.834 -24.501 36.501z
M241.003 259.002h204l-102 258z" />
    <glyph glyph-name="B" unicode="B" horiz-adv-x="638" 
d="M336 690c38 0 70.832 -4.33301 98.499 -13s50.5 -20.667 68.5 -36s31.5 -33.5 40.5 -54.5s13.5 -44.167 13.5 -69.5c0 -32 -7.33301 -60.333 -22 -85s-34 -43 -58 -55c40 -16.667 68.667 -39.334 86 -68.001s26 -61.667 26 -99c0 -65.333 -21 -116.666 -63 -153.999
s-100.333 -56 -175 -56h-212c-21.333 0 -37.166 5 -47.499 15s-15.5 26 -15.5 48v565c0 18.667 5.5 33.667 16.5 45s26.5 17 46.5 17h197zM346.999 411c25.333 0 45.167 8.50098 59.5 25.501s21.5 37.167 21.5 60.5c0 25.333 -7.83301 45.166 -23.5 59.499
s-38.5 21.5 -68.5 21.5h-134v-167h145zM352 111.001c34 0 60.5 9 79.5 27s28.5 43 28.5 75c0 62.667 -37 94 -111 94h-147v-196h150z" />
    <glyph glyph-name="C" unicode="C" horiz-adv-x="688" 
d="M541 486c-11.333 13.333 -22.665 25.5059 -33.998 36.5059s-23.5 20.5 -36.5 28.5s-27.333 14.333 -43 19s-33.834 7 -54.501 7c-30 0 -57 -5.66699 -81 -17s-44.5 -27.333 -61.5 -48s-30 -45.5 -39 -74.5s-13.5 -60.833 -13.5 -95.5c0 -34 4.66699 -65 14 -93
s22.666 -52 39.999 -72s38.833 -35.667 64.5 -47s54.5 -17 86.5 -17c36.667 0 67.334 7.33301 92.001 22s48.667 35.667 72 63c11.333 12 25 18 41 18s29 -6.33301 39 -19s15 -25.334 15 -38.001c0 -8 -1.33301 -16.333 -4 -25s-7.66699 -17.667 -15 -27
c-9.33301 -11.333 -21.333 -23.833 -36 -37.5s-32.167 -26.334 -52.5 -38.001s-44 -21.5 -71 -29.5s-57.167 -12 -90.5 -12c-48 0 -91.833 8.33301 -131.5 25s-73.834 40.5 -102.501 71.5s-50.834 68.167 -66.501 111.5s-23.5 91.666 -23.5 144.999
c0 52.667 7.83301 101 23.5 145s37.834 81.667 66.501 113s62.834 55.666 102.501 72.999s83.5 26 131.5 26c37.333 0 70.5 -4.66699 99.5 -14s54 -20.5 75 -33.5s38.167 -26.333 51.5 -40s23 -24.834 29 -33.501c5.33301 -8.66699 9.33301 -17.5 12 -26.5
s4 -17.167 4 -24.5c0 -10 -1.83301 -18.833 -5.5 -26.5s-8.5 -14 -14.5 -19s-12.5 -8.66699 -19.5 -11s-13.5 -3.5 -19.5 -3.5c-7.33301 0 -14.833 1.16699 -22.5 3.5s-14.834 7.16602 -21.501 14.499z" />
    <glyph glyph-name="D" unicode="D" horiz-adv-x="695" 
d="M335 690c46.667 0 89.168 -8.16309 127.501 -24.4961s71.166 -39.5 98.499 -69.5s48.333 -66 63 -108s22 -88.667 22 -140c0 -50.667 -7.66699 -97.334 -23 -140.001s-36.666 -79.334 -63.999 -110.001s-60 -54.667 -98 -72s-80 -26 -126 -26h-196
c-22.667 0 -38.834 5.66699 -48.501 17s-14.5 26.666 -14.5 45.999v564c0 19.333 5.16699 34.666 15.5 45.999s26.5 17 48.5 17h195zM327.001 111.004c30.667 0 57.832 5.66699 81.499 17s43.5 27.333 59.5 48s28.167 45.5 36.5 74.5s12.5 61.5 12.5 97.5
c0 72 -16.667 128.333 -50 169s-81.666 61 -144.999 61h-120v-467h125z" />
    <glyph glyph-name="E" unicode="E" horiz-adv-x="596" 
d="M504 111c18 0 32.167 -4.83496 42.5 -14.502s15.5 -23.167 15.5 -40.5s-5.16699 -31 -15.5 -41s-24.5 -15 -42.5 -15h-365c-20 0 -35.5 5.83301 -46.5 17.5s-16.5 26.834 -16.5 45.501v564c0 18.667 5.5 33.834 16.5 45.501s26.833 17.5 47.5 17.5h363
c18 0 32.333 -5 43 -15s16 -23.667 16 -41s-5.33301 -31 -16 -41s-25 -15 -43 -15h-301v-172h192c18 0 32.833 -4.83301 44.5 -14.5s17.5 -23.167 17.5 -40.5s-5.83301 -31 -17.5 -41s-26.5 -15 -44.5 -15h-192v-184h302z" />
    <glyph glyph-name="F" unicode="F" horiz-adv-x="577" 
d="M490 690c18 0 32.1689 -5 42.502 -15s15.5 -23.667 15.5 -41s-5.16699 -31 -15.5 -41s-24.5 -15 -42.5 -15h-288v-191h186c18 0 32.167 -4.83301 42.5 -14.5s15.5 -23.167 15.5 -40.5s-5.16699 -31 -15.5 -41s-24.5 -15 -42.5 -15h-186v-213
c0 -18.667 -5.33301 -33.834 -16 -45.501s-26.334 -17.5 -47.001 -17.5s-36.334 5.83301 -47.001 17.5s-16 26.834 -16 45.501v566c0 18.667 6 33.5 18 44.5s27.333 16.5 46 16.5h350z" />
    <glyph glyph-name="G" unicode="G" horiz-adv-x="726" 
d="M601 368c29.333 0 49.3271 -7.49902 59.9941 -22.499s16 -34.833 16 -59.5c0 -41.333 -6.83301 -80 -20.5 -116s-33.5 -67.333 -59.5 -94s-57.667 -47.667 -95 -63s-80 -23 -128 -23c-46.667 0 -89.834 8.33301 -129.501 25s-74 40.334 -103 71.001
s-51.667 67.834 -68 111.501s-24.5 92.167 -24.5 145.5c0 54 8.33301 103 25 147s39.834 81.5 69.501 112.5s64.5 55 104.5 72s83 25.5 129 25.5c48.667 0 91.667 -7.5 129 -22.5s73 -39.833 107 -74.5c14.667 -13.333 24.334 -25.833 29.001 -37.5s7 -22.834 7 -33.501
c0.666992 -18 -4.66602 -32.5 -15.999 -43.5s-24.666 -16.5 -39.999 -16.5c-10 0 -19.833 2.16699 -29.5 6.5s-19.167 12.166 -28.5 23.499c-19.333 23.333 -41.166 41.666 -65.499 54.999s-54.166 20 -89.499 20c-32 0 -60.5 -5.66699 -85.5 -17s-46.167 -27.333 -63.5 -48
s-30.5 -45.5 -39.5 -74.5s-13.5 -60.833 -13.5 -95.5c0 -34 5 -65 15 -93s24 -52 42 -72s39.333 -35.667 64 -47s51.667 -17 81 -17c50.667 0 90.834 12.5 120.501 37.5s45.5 60.5 47.5 106.5h-122c-19.333 0 -34.666 5 -45.999 15s-17 23.333 -17 40
s5.66699 30.167 17 40.5s26.666 15.5 45.999 15.5h175z" />
    <glyph glyph-name="H" unicode="H" horiz-adv-x="707" 
d="M505 627c0 18.667 5.66699 33.834 17 45.501s26.666 17.5 45.999 17.5c18.667 0 33.834 -5.83301 45.501 -17.5s17.5 -26.834 17.5 -45.501v-564c0 -18.667 -5.83301 -33.834 -17.5 -45.501s-26.834 -17.5 -45.501 -17.5c-19.333 0 -34.666 5.83301 -45.999 17.5
s-17 26.834 -17 45.501v236h-303v-236c0 -18.667 -5.83301 -33.834 -17.5 -45.501s-26.834 -17.5 -45.501 -17.5s-33.834 5.83301 -45.501 17.5s-17.5 26.834 -17.5 45.501v564c0 18.667 5.83301 33.834 17.5 45.501s26.834 17.5 45.501 17.5s33.834 -5.83301 45.501 -17.5
s17.5 -26.834 17.5 -45.501v-216h303v216z" />
    <glyph glyph-name="I" unicode="I" horiz-adv-x="278" 
d="M76 627c0 18.667 5.83301 33.834 17.5 45.501s26.834 17.5 45.501 17.5s33.834 -5.83301 45.501 -17.5s17.5 -26.834 17.5 -45.501v-564c0 -18.667 -5.83301 -33.834 -17.5 -45.501s-26.834 -17.5 -45.501 -17.5s-33.834 5.83301 -45.501 17.5s-17.5 26.834 -17.5 45.501
v564z" />
    <glyph glyph-name="J" unicode="J" horiz-adv-x="594" 
d="M397 628c0 18 5.83105 32.834 17.498 44.501s26.834 17.5 45.501 17.5s33.834 -5.83301 45.501 -17.5s17.5 -26.834 17.5 -45.501v-387c0 -43.333 -7 -80.666 -21 -111.999s-32.5 -57.333 -55.5 -78s-49.333 -35.834 -79 -45.501s-60.5 -14.5 -92.5 -14.5
s-59.833 3.83301 -83.5 11.5s-44.5 17.667 -62.5 30s-33.167 26.333 -45.5 42s-22.833 31.5 -31.5 47.5c-6.66699 12 -11.334 23.333 -14.001 34s-4 19 -4 25c0 11.333 2.16699 21 6.5 29s9.83301 14.5 16.5 19.5s13.834 8.66699 21.501 11s14.834 3.5 21.501 3.5
c21.333 0 39 -14.667 53 -44c13.333 -28 29.166 -49.333 47.499 -64s43.5 -22 75.5 -22c14.667 0 29.167 2 43.5 6s27.333 10.833 39 20.5s21 22.667 28 39s10.5 36.5 10.5 60.5v389z" />
    <glyph glyph-name="K" unicode="K" horiz-adv-x="627" 
d="M566 116c11.333 -12 18.666 -21.8311 21.999 -29.498s5 -15.5 5 -23.5c0 -10.667 -2 -19.834 -6 -27.501s-9.16699 -14.167 -15.5 -19.5s-13.166 -9.33301 -20.499 -12s-14 -4 -20 -4c-20.667 0 -37.667 7.66699 -51 23l-222 255l-56 -62v-151
c0 -19.333 -5.66699 -35 -17 -47s-26.666 -18 -45.999 -18s-34.666 6 -45.999 18s-17 27.667 -17 47v560c0 19.333 5.66699 35 17 47s26.666 18 45.999 18s34.666 -6 45.999 -18s17 -27.667 17 -47v-244l253 284c7.33301 8 14.833 14.167 22.5 18.5s17.167 6.5 28.5 6.5
c17.333 0 31.5 -5.83301 42.5 -17.5s16.5 -24.5 16.5 -38.5c0 -7.33301 -1 -14.833 -3 -22.5s-7 -15.834 -15 -24.501l-198 -221z" />
    <glyph glyph-name="L" unicode="L" horiz-adv-x="557" 
d="M140 0c-20.667 0 -36.502 5.83203 -47.502 17.499s-16.5 26.834 -16.5 45.501v564c0 18.667 5.83301 33.834 17.5 45.501s26.834 17.5 45.501 17.5s33.834 -5.83301 45.501 -17.5s17.5 -26.834 17.5 -45.501v-516h269c18 0 32.833 -4.83301 44.5 -14.5
s17.5 -23.167 17.5 -40.5s-5.83301 -31 -17.5 -41s-26.5 -15 -44.5 -15h-331z" />
    <glyph glyph-name="M" unicode="M" horiz-adv-x="841" 
d="M626 632c11.333 21.333 22.833 36.333 34.5 45s24.167 13 37.5 13c18.667 0 34.5 -5.66699 47.5 -17s19.5 -29 19.5 -53v-559c0 -18 -5.83301 -32.667 -17.5 -44s-26.834 -17 -45.501 -17c-18 0 -33 5.66699 -45 17s-18 26 -18 44v380l-165 -301
c-7.33301 -14 -15.333 -24.5 -24 -31.5s-19.667 -10.5 -33 -10.5c-22 0 -40.333 14.333 -55 43l-160 296v-376c0 -18 -5.83301 -32.667 -17.5 -44s-26.834 -17 -45.501 -17c-18 0 -33 5.66699 -45 17s-18 26 -18 44v559c0 22 6.5 39.167 19.5 51.5s29.833 18.5 50.5 18.5
c16.667 0 30.334 -4.66699 41.001 -14s21.334 -24 32.001 -44l202 -363z" />
    <glyph glyph-name="N" unicode="N" horiz-adv-x="693" 
d="M491 628c0 19.333 6.00098 34.5 18.001 45.5s27 16.5 45 16.5c17.333 0 32.166 -5.5 44.499 -16.5s18.5 -26.167 18.5 -45.5v-567c0 -17.333 -5.16699 -31.833 -15.5 -43.5s-25.166 -17.5 -44.499 -17.5c-12 0 -22.5 2.16699 -31.5 6.5s-17.833 11.833 -26.5 22.5
l-297 402v-370c0 -19.333 -6 -34.333 -18 -45s-27 -16 -45 -16s-33 5.33301 -45 16s-18 25.667 -18 45v559c0 18.667 4.66699 35 14 49s25.333 21 48 21c10 0 19.667 -2.16699 29 -6.5s17.666 -11.833 24.999 -22.5l299 -421v388z" />
    <glyph glyph-name="O" unicode="O" horiz-adv-x="751" 
d="M375 700c48.667 0 93 -8.5 133 -25.5s74.333 -41 103 -72s51 -68.333 67 -112s24 -92.167 24 -145.5s-8 -101.666 -24 -144.999s-38.333 -80.666 -67 -111.999s-63 -55.5 -103 -72.5s-84.333 -25.5 -133 -25.5c-48 0 -92 8.5 -132 25.5s-74.333 41.167 -103 72.5
s-51 68.666 -67 111.999s-24 91.666 -24 144.999s8 101.833 24 145.5s38.333 81 67 112s63 55 103 72s84 25.5 132 25.5zM375 577c-30 0 -57.168 -5.66699 -81.501 -17s-45 -27.166 -62 -47.499s-30.167 -44.666 -39.5 -72.999s-14 -59.833 -14 -94.5
c0 -34 4.66699 -65.333 14 -94s22.666 -53.167 39.999 -73.5s38 -36.166 62 -47.499s51 -17 81 -17s57.333 5.66699 82 17s45.5 27.166 62.5 47.499s30.167 44.833 39.5 73.5s14 60 14 94c0 34.667 -4.66699 66.167 -14 94.5s-22.666 52.666 -39.999 72.999
s-38.166 36.166 -62.499 47.499s-51.5 17 -81.5 17z" />
    <glyph glyph-name="P" unicode="P" horiz-adv-x="624" 
d="M327 690c40 0 75.834 -5.66797 107.501 -17.001s58.667 -27.333 81 -48s39.5 -45.667 51.5 -75s18 -62.333 18 -99c0 -37.333 -6.16699 -70.833 -18.5 -100.5s-30 -54.667 -53 -75s-50.5 -36 -82.5 -47s-68 -16.5 -108 -16.5h-121v-149
c0 -18.667 -5.83301 -33.834 -17.5 -45.501s-26.834 -17.5 -45.501 -17.5s-33.834 5.83301 -45.501 17.5s-17.5 26.834 -17.5 45.501v564c0 18.667 5.83301 33.834 17.5 45.501s26.834 17.5 45.501 17.5h188zM323.001 323.999c44 0 77.167 11.5 99.5 34.5
s33.5 53.833 33.5 92.5c0 41.333 -11.5 72.833 -34.5 94.5s-56.5 32.5 -100.5 32.5h-119v-254h121z" />
    <glyph glyph-name="Q" unicode="Q" horiz-adv-x="751" 
d="M375 700c48.667 0 93.001 -8.49609 133.001 -25.4961s74.333 -41 103 -72s51 -68.333 67 -112s24 -92.167 24 -145.5c0 -48.667 -6.66699 -93.334 -20 -134.001s-32.333 -76.334 -57 -107.001c11.333 -6.66699 22.666 -10 33.999 -10
c6.66699 0 12.834 0.833008 18.501 2.5s12.167 2.5 19.5 2.5c16 0 27.333 -5 34 -15s10 -20.667 10 -32s-2.5 -21 -7.5 -29s-11.667 -14.5 -20 -19.5s-18 -8.66699 -29 -11s-22.167 -3.5 -33.5 -3.5c-34.667 0 -69 16 -103 48c-24.667 -15.333 -51.334 -27 -80.001 -35
s-59.667 -12 -93 -12c-48 0 -92 8.5 -132 25.5s-74.333 41.167 -103 72.5s-51 68.666 -67 111.999s-24 91.666 -24 144.999s8 101.833 24 145.5s38.333 81 67 112s63 55 103 72s84 25.5 132 25.5zM375.001 577.004c-30 0 -57.167 -5.66992 -81.5 -17.0029
s-45 -27.166 -62 -47.499s-30.167 -44.666 -39.5 -72.999s-14 -59.833 -14 -94.5c0 -34 4.66699 -65.333 14 -94s22.666 -53.167 39.999 -73.5s38 -36.166 62 -47.499s51 -17 81 -17c33.333 0 63.666 7 90.999 21c-11.333 10.667 -23 19.334 -35 26.001s-25.667 10 -41 10
s-27.333 5.16699 -36 15.5s-13 20.833 -13 31.5c0 16.667 5.16699 30.334 15.5 41.001s24.5 16 42.5 16c28 0 52.667 -7.5 74 -22.5s41.666 -33.167 60.999 -54.5c12.667 19.333 22.334 41.5 29.001 66.5s10 52.167 10 81.5c0 34.667 -4.66699 66.167 -14 94.5
s-22.666 52.666 -39.999 72.999s-38.166 36.166 -62.499 47.499s-51.5 17 -81.5 17z" />
    <glyph glyph-name="R" unicode="R" horiz-adv-x="617" 
d="M568 466c0 -47.333 -11.3301 -88.499 -33.9971 -123.499s-56 -61.167 -100 -78.5l110 -140c12 -15.333 19.833 -28 23.5 -38s5.5 -20 5.5 -30c0 -13.333 -5.33301 -26 -16 -38s-26.334 -18 -47.001 -18c-14 0 -26.167 3.5 -36.5 10.5s-19.833 16.167 -28.5 27.5l-149 204
h-94v-179c0 -18.667 -5.83301 -33.834 -17.5 -45.501s-26.834 -17.5 -45.501 -17.5s-33.834 5.83301 -45.501 17.5s-17.5 26.834 -17.5 45.501v564c0 18.667 5.83301 33.834 17.5 45.501s26.834 17.5 45.501 17.5h184c38 0 72 -5.33301 102 -16s55.667 -25.834 77 -45.501
s37.666 -43.334 48.999 -71.001s17 -58.167 17 -91.5zM322.003 354.001c36.667 0 65.333 9.83301 86 29.5s31 47.167 31 82.5c0 36 -10.833 63.667 -32.5 83s-50.5 29 -86.5 29h-118v-224h120z" />
    <glyph glyph-name="S" unicode="S" horiz-adv-x="602" 
d="M307 113c16 0 31.332 1.50684 45.999 4.50684s27.667 7.83301 39 14.5s20.333 15 27 25s10 21.667 10 35c0 14 -3.16699 26.167 -9.5 36.5s-16.333 19.666 -30 27.999s-31.667 16.166 -54 23.499s-49.5 15 -81.5 23c-26.667 6.66699 -52 15.167 -76 25.5
s-45 23.166 -63 38.499s-32.167 34 -42.5 56s-15.5 48.667 -15.5 80s6.5 59.166 19.5 83.499s30.833 45 53.5 62s49 29.833 79 38.5s61.667 13 95 13c42 0 77.667 -4.83301 107 -14.5s55.333 -21.834 78 -36.501c14.667 -9.33301 25.167 -20 31.5 -32s9.5 -23.667 9.5 -35
s-2 -20.833 -6 -28.5s-9 -13.834 -15 -18.501s-12.5 -8.16699 -19.5 -10.5s-13.5 -3.5 -19.5 -3.5c-11.333 0 -21 1.66699 -29 5s-16 7.33301 -24 12c-6.66699 4 -13.667 8.16699 -21 12.5s-15.833 8.5 -25.5 12.5s-20.667 7.33301 -33 10s-27.166 4 -44.499 4
c-37.333 0 -64.5 -7.5 -81.5 -22.5s-25.5 -31.833 -25.5 -50.5c0 -24.667 13.167 -44.334 39.5 -59.001s68.5 -29.334 126.5 -44.001c24.667 -6.66699 49.5 -14.667 74.5 -24s47.167 -21.5 66.5 -36.5s35.166 -34 47.499 -57s18.5 -51.833 18.5 -86.5
c0 -28 -5.66699 -54.5 -17 -79.5s-28 -47 -50 -66s-49.5 -34 -82.5 -45s-71.5 -16.5 -115.5 -16.5c-27.333 0 -52.333 2.33301 -75 7s-43.167 10.667 -61.5 18s-34.5 15.666 -48.5 24.999s-26 19 -36 29c-8 7.33301 -15.667 16.333 -23 27s-11 21.667 -11 33
c0 12 2.16699 22 6.5 30s9.66602 14.5 15.999 19.5s12.833 8.5 19.5 10.5s12.334 3 17.001 3c9.33301 0 18 -1.66699 26 -5s15.667 -7.66602 23 -12.999c10 -8 20.167 -15.833 30.5 -23.5s21.833 -14.167 34.5 -19.5s26.834 -9.66602 42.501 -12.999s33.167 -5 52.5 -5z" />
    <glyph glyph-name="T" unicode="T" horiz-adv-x="625" 
d="M540 690c18 0 32.833 -5 44.5 -15s17.5 -23.667 17.5 -41s-5.83301 -31 -17.5 -41s-26.5 -15 -44.5 -15h-164v-515c0 -18.667 -5.83301 -33.834 -17.5 -45.501s-26.834 -17.5 -45.501 -17.5c-19.333 0 -34.666 5.83301 -45.999 17.5s-17 26.834 -17 45.501v515h-165
c-18 0 -32.667 5 -44 15s-17 23.667 -17 41s5.66699 31 17 41s26 15 44 15h455z" />
    <glyph glyph-name="U" unicode="U" horiz-adv-x="710" 
d="M513 627c0 18.667 5.66406 33.834 16.9971 45.501s26.666 17.5 45.999 17.5c18.667 0 33.834 -5.83301 45.501 -17.5s17.5 -26.834 17.5 -45.501v-358c0 -42 -6.5 -80 -19.5 -114s-31.833 -63.333 -56.5 -88s-54.5 -43.667 -89.5 -57s-74.5 -20 -118.5 -20
s-83.667 6.66699 -119 20s-65.166 32 -89.499 56s-43 52.833 -56 86.5s-19.5 71.167 -19.5 112.5v362c0 18.667 5.83301 33.834 17.5 45.501s26.834 17.5 45.501 17.5s33.834 -5.83301 45.501 -17.5s17.5 -26.834 17.5 -45.501v-343c0 -114 52.667 -171 158 -171
s158 58.333 158 175v339z" />
    <glyph glyph-name="V" unicode="V" horiz-adv-x="671" 
d="M522 652c3.33301 9.33301 9.16699 18 17.5 26s19.5 12 33.5 12c19.333 0 34.833 -4.5 46.5 -13.5s17.5 -22.167 17.5 -39.5c0 -7.33301 -1 -14 -3 -20l-6 -18l-228 -548c-6 -15.333 -13.833 -27.666 -23.5 -36.999s-23.167 -14 -40.5 -14
c-16.667 0 -30.167 4.66699 -40.5 14s-18.5 21.666 -24.5 36.999l-232 551c-1.33301 3.33301 -2.5 7.5 -3.5 12.5s-1.5 10.5 -1.5 16.5c0 16.667 6.33301 30.667 19 42s26.667 17 42 17c28 0 47.667 -14 59 -42l186 -454z" />
    <glyph glyph-name="W" unicode="W" horiz-adv-x="908" 
d="M753 642c4.66699 12.667 11.8281 23.8311 21.4951 33.498s21.834 14.5 36.501 14.5c16 0 30.5 -4.66699 43.5 -14s19.5 -22.666 19.5 -39.999c0 -4 -0.5 -9.5 -1.5 -16.5s-3.16699 -15.167 -6.5 -24.5l-194 -552c-5.33301 -14.667 -13.333 -25.5 -24 -32.5
s-22 -10.5 -34 -10.5c-13.333 0 -25.166 3.5 -35.499 10.5s-18.166 17.833 -23.499 32.5l-102 314l-102 -314c-5.33301 -14 -13 -24.667 -23 -32s-21.333 -11 -34 -11c-28 0 -47.333 14.333 -58 43l-194 550c-5.33301 15.333 -8 29.333 -8 42
c0 13.333 5.83301 25.833 17.5 37.5s27.834 17.5 48.501 17.5c16.667 0 29.5 -5.16699 38.5 -15.5s15.833 -22.166 20.5 -35.499l137 -422l102 315c4.66699 13.333 11.334 24.666 20.001 33.999s21.667 14 39 14c18 0 31.167 -4.66699 39.5 -14s14.5 -20.666 18.5 -33.999
l103 -315z" />
    <glyph glyph-name="X" unicode="X" horiz-adv-x="641" 
d="M316 257l-154.995 -221c-11.333 -16.667 -22.333 -26.834 -33 -30.501s-19.667 -5.5 -27 -5.5c-20 0 -34.833 6.16699 -44.5 18.5s-14.5 24.5 -14.5 36.5c0 9.33301 1.5 17.833 4.5 25.5s8.16699 16.5 15.5 26.5l180 252l-171 235
c-7.33301 9.33301 -11.833 16.666 -13.5 21.999s-2.5 11.333 -2.5 18c0 12.667 5.16699 25.167 15.5 37.5s25.166 18.5 44.499 18.5c11.333 0 21.166 -2.5 29.499 -7.5s16.166 -13.167 23.499 -24.5l156 -209l144 203c9.33301 12.667 17.666 22.167 24.999 28.5
s17.666 9.5 30.999 9.5c17.333 0 32.166 -5.5 44.499 -16.5s18.5 -23.833 18.5 -38.5c0 -8.66699 -1.33301 -16.667 -4 -24s-8.66699 -17.666 -18 -30.999l-165 -232l179 -238c6.66699 -9.33301 11.5 -18 14.5 -26s4.5 -17 4.5 -27c0 -13.333 -5.66699 -26.166 -17 -38.499
s-25.666 -18.5 -42.999 -18.5c-13.333 0 -24.5 3.16699 -33.5 9.5s-18.167 15.5 -27.5 27.5z" />
    <glyph glyph-name="Y" unicode="Y" horiz-adv-x="635" 
d="M484 653c7.33301 12.667 14.999 22 22.999 28s19.667 9 35 9c14 0 27.5 -5.16699 40.5 -15.5s19.5 -23.166 19.5 -38.499c0 -9.33301 -2 -19 -6 -29s-8.33301 -18.667 -13 -26l-203 -328v-190c0 -18.667 -5.66699 -33.834 -17 -45.501s-26.666 -17.5 -45.999 -17.5
c-18.667 -0 -33.834 5.83301 -45.501 17.5s-17.5 26.834 -17.5 45.501v190l-211 342c-3.33301 5.33301 -5.66602 11.166 -6.99902 17.499s-2 12.5 -2 18.5c0 15.333 5 29 15 41s25.333 18 46 18c9.33301 0 18.5 -2 27.5 -6s16.833 -11.667 23.5 -23l173 -288z" />
    <glyph glyph-name="Z" unicode="Z" horiz-adv-x="592" 
d="M483 112c18.667 0 33.668 -5.00098 45.001 -15.001s17 -23.667 17 -41s-5.66699 -31 -17 -41s-26.333 -15 -45 -15h-378c-18.667 0 -33.334 5.16699 -44.001 15.5s-16 23.833 -16 40.5c0 6.66699 1.33301 13.834 4 21.501s6 14.5 10 20.5l321 480h-263
c-18.667 0 -33.667 5 -45 15s-17 23.667 -17 41s5.66699 31 17 41s26.333 15 45 15h371c18.667 0 33.167 -5 43.5 -15s15.5 -23.333 15.5 -40c0 -6 -1.33301 -13.167 -4 -21.5s-6.66699 -16.833 -12 -25.5l-319 -476h271z" />
    <glyph glyph-name="bracketleft" unicode="[" horiz-adv-x="339" 
d="M284 730c13.333 0 24.332 -4.50098 32.999 -13.501s13 -22.167 13 -39.5c0 -16.667 -4.16699 -29.667 -12.5 -39s-19.166 -14 -32.499 -14h-80v-689h79c13.333 0 24.333 -4.5 33 -13.5s13 -21.833 13 -38.5c0 -17.333 -4.33301 -30.5 -13 -39.5s-19.667 -13.5 -33 -13.5
h-163c-12.667 0 -22.834 3.83301 -30.501 11.5s-11.5 17.834 -11.5 30.501v816c0 12 3.83301 22 11.5 30s17.834 12 30.501 12h163z" />
    <glyph glyph-name="backslash" unicode="\" horiz-adv-x="414" 
d="M394 96c7.33301 -14.667 11.001 -28 11.001 -40c0 -17.333 -6 -31 -18 -41s-25.333 -15 -40 -15c-13.333 0 -25.166 3.5 -35.499 10.5s-20.166 20.167 -29.499 39.5l-261 542c-2.66699 5.33301 -5.33398 11.833 -8.00098 19.5s-4 14.5 -4 20.5
c0 17.333 6.16699 31.333 18.5 42s27.166 16 44.499 16c23.333 0 42.666 -16.333 57.999 -49z" />
    <glyph glyph-name="bracketright" unicode="]" horiz-adv-x="339" 
d="M218 730c12.667 0 22.833 -3.99902 30.5 -11.999s11.5 -18 11.5 -30v-816c0 -12.667 -3.83301 -22.834 -11.5 -30.501s-17.834 -11.5 -30.501 -11.5h-164c-13.333 0 -24.166 4.5 -32.499 13.5s-12.5 22.167 -12.5 39.5c0 16.667 4.33301 29.5 13 38.5
s19.667 13.5 33 13.5h79v689h-80c-13.333 0 -24.166 4.66699 -32.499 14s-12.5 22.333 -12.5 39c0 17.333 4.16699 30.5 12.5 39.5s19.166 13.5 32.499 13.5h164z" />
    <glyph glyph-name="asciicircum" unicode="^" horiz-adv-x="500" 
d="M207 668c4.66699 9.33301 10.333 17 17 23s16.334 9 29.001 9c13.333 0 23.166 -3 29.499 -9s11.5 -13.667 15.5 -23l138 -281c7.33301 -12.667 11 -24.667 11 -36c0 -10.667 -4.5 -20.167 -13.5 -28.5s-19.833 -12.5 -32.5 -12.5c-17.333 0 -32 10 -44 30l-104 222
l-101 -222c-11.333 -20 -26 -30 -44 -30c-13.333 0 -24.5 4.16699 -33.5 12.5s-13.5 17.833 -13.5 28.5c0 6.66699 1 12.5 3 17.5s5 11.167 9 18.5z" />
    <glyph glyph-name="underscore" unicode="_" horiz-adv-x="597" 
d="M493 0c13.333 0 24.333 -4.16699 33 -12.5s13 -19.166 13 -32.499c0 -14 -4.33301 -25.167 -13 -33.5s-19.667 -12.5 -33 -12.5h-389c-13.333 0 -24.166 4.16699 -32.499 12.5s-12.5 19.5 -12.5 33.5c0 13.333 4.16699 24.166 12.5 32.499s19.166 12.5 32.499 12.5h389z
" />
    <glyph glyph-name="grave" unicode="`" horiz-adv-x="500" 
d="M345 619c11.333 -10.667 17 -22 17 -34c0 -9.33301 -3.5 -18.166 -10.5 -26.499s-16.167 -12.5 -27.5 -12.5c-6 0 -14.333 3.33301 -25 10l-133 89c-14 9.33301 -21 23.666 -21 42.999c0 13.333 5.33301 25.333 16 36s23 16 37 16c8.66699 0 16.5 -2 23.5 -6
s13.167 -8.66699 18.5 -14z" />
    <glyph glyph-name="a" unicode="a" horiz-adv-x="626" 
d="M552 156c0 -30 8.33008 -45.002 24.9971 -45.002c10 0 17.833 -4.16699 23.5 -12.5s8.5 -20.166 8.5 -35.499c0 -42 -25.667 -63 -77 -63c-33.333 0 -57.666 8.83301 -72.999 26.5s-25 38.167 -29 61.5l-1 12c-16 -35.333 -38.5 -62.5 -67.5 -81.5
s-63.167 -28.5 -102.5 -28.5c-30 0 -58.333 6.16699 -85 18.5s-50 29.833 -70 52.5s-35.833 50.167 -47.5 82.5s-17.5 68.5 -17.5 108.5s6.16699 76.5 18.5 109.5s29 61.167 50 84.5s45.333 41.333 73 54s56.834 19 87.501 19c41.333 0 74.833 -9.16699 100.5 -27.5
s45.834 -43.166 60.501 -74.499v40c0 15.333 5.66699 27.833 17 37.5s26.333 14.5 45 14.5s33.5 -4.83301 44.5 -14.5s16.5 -22.167 16.5 -37.5v-301zM296.997 100.998c18 0 35.166 3.49805 51.499 10.498s30.5 17 42.5 30s21.5 28.833 28.5 47.5s10.5 39.667 10.5 63
c0 46.667 -12.167 84.167 -36.5 112.5s-56.5 42.5 -96.5 42.5c-41.333 0 -73.666 -14.333 -96.999 -43s-35 -66 -35 -112c0 -23.333 3.33301 -44.166 10 -62.499s16 -34.166 28 -47.499s26 -23.5 42 -30.5s33.333 -10.5 52 -10.5z" />
    <glyph glyph-name="b" unicode="b" horiz-adv-x="621" 
d="M191 417c16.667 30.667 38.501 55.3311 65.501 73.998s59.5 28 97.5 28c33.333 0 64 -6.5 92 -19.5s52 -31.167 72 -54.5s35.667 -51.166 47 -83.499s17 -68.166 17 -107.499c0 -40 -6.33301 -76.333 -19 -109s-29.834 -60.5 -51.501 -83.5s-46.667 -40.667 -75 -53
s-58.5 -18.5 -90.5 -18.5c-34.667 0 -65.834 9 -93.501 27s-48.167 43 -61.5 75v-33c0 -15.333 -5.16699 -29 -15.5 -41s-25.833 -18 -46.5 -18c-21.333 0 -36.666 6 -45.999 18s-14 25.667 -14 41v571c0 17.333 5.83301 31.666 17.5 42.999s26.167 17 43.5 17
s31.833 -5.66699 43.5 -17s17.5 -25.666 17.5 -42.999v-213zM324.001 100.997c20.667 0 39.167 4.16797 55.5 12.501s30.166 19.5 41.499 33.5s20 30.167 26 48.5s9 37.833 9 58.5c0 21.333 -3 41.333 -9 60s-14.667 34.834 -26 48.501s-25.166 24.5 -41.499 32.5
s-34.833 12 -55.5 12s-39.167 -4 -55.5 -12s-30.333 -18.833 -42 -32.5s-20.5 -29.834 -26.5 -48.501s-9 -38.667 -9 -60s3 -41.333 9 -60s14.833 -34.834 26.5 -48.501s25.667 -24.5 42 -32.5s34.833 -12 55.5 -12z" />
    <glyph glyph-name="c" unicode="c" horiz-adv-x="530" 
d="M436 171c12 0 24.0059 -4.34082 36.0059 -13.0078s18 -21.667 18 -39c0 -20.667 -7 -38 -21 -52c-8 -9.33301 -17.667 -18.666 -29 -27.999s-24.333 -17.666 -39 -24.999s-31.334 -13.166 -50.001 -17.499s-39.667 -6.5 -63 -6.5c-38 0 -72.333 6.83301 -103 20.5
s-56.834 32.334 -78.501 56.001s-38.334 51.667 -50.001 84s-17.5 67.166 -17.5 104.499s6.33301 72 19 104s30 59.833 52 83.5s48.167 42.334 78.5 56.001s63.5 20.5 99.5 20.5c40 0 76.167 -7 108.5 -21s59.166 -35 80.499 -63c12.667 -16.667 19 -33 19 -49
c0 -19.333 -5.83301 -33.166 -17.5 -41.499s-23.5 -12.5 -35.5 -12.5c-11.333 0 -20.333 2 -27 6s-12.334 8.33301 -17.001 13c-4 4 -9 9.16699 -15 15.5s-13.5 12.5 -22.5 18.5s-19.333 11.167 -31 15.5s-25.5 6.5 -41.5 6.5c-20 0 -37.667 -4.16699 -53 -12.5
s-28.333 -19.666 -39 -33.999s-18.667 -30.666 -24 -48.999s-8 -37.5 -8 -57.5s2.66699 -39.167 8 -57.5s13.333 -34.666 24 -48.999s23.5 -25.666 38.5 -33.999s32.5 -12.5 52.5 -12.5c21.333 0 40.666 4.83301 57.999 14.5s34 22.167 50 37.5
c8 7.33301 15.5 12.166 22.5 14.499s12.833 3.5 17.5 3.5z" />
    <glyph glyph-name="d" unicode="d" horiz-adv-x="621" 
d="M429 630c0 17.333 5.99805 31.666 17.998 42.999s26.667 17 44 17s31.833 -5.66699 43.5 -17s17.5 -25.666 17.5 -42.999v-566c0 -22.667 -5.66699 -39 -17 -49s-26.666 -15 -45.999 -15c-20 -0 -35 5.83301 -45 17.5s-15 25.5 -15 41.5v41
c-16.667 -34.667 -38.667 -61.667 -66 -81s-60.666 -29 -99.999 -29c-30 0 -58.5 5.83301 -85.5 17.5s-50.833 28.834 -71.5 51.501s-37 50.167 -49 82.5s-18 69.166 -18 110.499s6.16699 78.5 18.5 111.5s29.166 61 50.499 84s46 40.667 74 53s57.667 18.5 89 18.5
c42.667 0 76.334 -9.5 101.001 -28.5s43.667 -43.5 57 -73.5v213zM296.998 101c18 0 35.166 3.5 51.499 10.5s30.5 17 42.5 30s21.5 29 28.5 48s10.5 40.167 10.5 63.5c0 46.667 -12.5 84 -37.5 112s-56.833 42 -95.5 42c-41.333 0 -73.666 -14.167 -96.999 -42.5
s-35 -65.5 -35 -111.5c0 -23.333 3.33301 -44.333 10 -63s16 -34.5 28 -47.5s26 -23.167 42 -30.5s33.333 -11 52 -11z" />
    <glyph glyph-name="e" unicode="e" horiz-adv-x="563" 
d="M163 225c5.33301 -40 20.168 -70.6689 44.501 -92.002s54.833 -32 91.5 -32c14 0 27.167 1.5 39.5 4.5s23.5 6.83301 33.5 11.5s18.833 9.5 26.5 14.5s13.834 9.16699 18.501 12.5c12 5.33301 21 8 27 8c15.333 0 28.166 -5.66699 38.499 -17s15.5 -24 15.5 -38
c0 -10 -2.66699 -19.167 -8 -27.5s-11.333 -15.166 -18 -20.499c-19.333 -16 -44.333 -29.833 -75 -41.5s-66.667 -17.5 -108 -17.5c-36.667 0 -70.334 6.5 -101.001 19.5s-57 31.167 -79 54.5s-39.167 51 -51.5 83s-18.5 67 -18.5 105c0 36.667 6.33301 71.334 19 104.001
s30.167 61 52.5 85s48.833 43 79.5 57s63.667 21 99 21c34.667 0 66.167 -6.16699 94.5 -18.5s52.5 -28.666 72.5 -48.999s35.5 -43.833 46.5 -70.5s16.5 -54.334 16.5 -83.001c0 -21.333 -3.5 -38.833 -10.5 -52.5s-21.833 -20.5 -44.5 -20.5h-301zM288.002 406.998
c-32 0 -58.999 -9.5 -80.999 -28.5s-36.333 -45.833 -43 -80.5h235c0.666992 12.667 -1.33301 25.5 -6 38.5s-11.834 24.833 -21.501 35.5s-21.5 19.167 -35.5 25.5s-30 9.5 -48 9.5z" />
    <glyph glyph-name="f" unicode="f" horiz-adv-x="393" 
d="M69 466c0 75.333 19.332 133.167 57.999 173.5s91.334 60.5 158.001 60.5c13.333 0 25.333 -0.666992 36 -2s18 -2.66602 22 -3.99902c16 -4.66699 27.333 -12.334 34 -23.001s10 -21.667 10 -33c0 -19.333 -5.33301 -33.5 -16 -42.5s-23.334 -13.5 -38.001 -13.5
c-8 0 -15.667 0.5 -23 1.5s-16.666 1.5 -27.999 1.5c-29.333 0 -50.5 -6.83301 -63.5 -20.5s-21.167 -36.167 -24.5 -67.5h84c16 0 29.167 -5 39.5 -15s15.5 -23.333 15.5 -40c0 -17.333 -5.16699 -31 -15.5 -41s-23.5 -15 -39.5 -15h-87v-327
c0 -17.333 -5.66699 -31.5 -17 -42.5s-26 -16.5 -44 -16.5s-32.667 5.5 -44 16.5s-17 25.167 -17 42.5v407z" />
    <glyph glyph-name="g" unicode="g" horiz-adv-x="617" 
d="M552 47c0 -40 -6.16992 -75.332 -18.5029 -105.999s-29.666 -56.5 -51.999 -77.5s-49.166 -36.833 -80.499 -47.5s-66 -16 -104 -16c-30 0 -57.167 2.83301 -81.5 8.5s-46.166 13.5 -65.499 23.5c-21.333 11.333 -32 27 -32 47c0 15.333 4.33301 28.166 13 38.499
s20.334 15.5 35.001 15.5c10 0 19.5 -1.33301 28.5 -4s18.667 -5.66699 29 -9s22 -6.33301 35 -9s28.5 -4 46.5 -4c42 0 73.167 12.833 93.5 38.5s30.5 58.5 30.5 98.5v56c-18 -35.333 -40.833 -62.5 -68.5 -81.5s-61.5 -28.5 -101.5 -28.5c-30 0 -58.333 6 -85 18
s-50 29.167 -70 51.5s-35.833 49.666 -47.5 81.999s-17.5 68.833 -17.5 109.5c0 41.333 6.33301 78.666 19 111.999s29.667 61.5 51 84.5s45.666 40.667 72.999 53s56 18.5 86 18.5c22 0 41.667 -2.83301 59 -8.5s32.5 -13.167 45.5 -22.5s24.167 -20.166 33.5 -32.499
s17 -25.166 23 -38.499v40c0 15.333 5.5 27.833 16.5 37.5s26.167 14.5 45.5 14.5c21.333 0 36.833 -5.16699 46.5 -15.5s14.5 -22.5 14.5 -36.5v-410zM296.997 101.001c18 0 35 3.5 51 10.5s30 17.167 42 30.5s21.5 29.333 28.5 48s10.5 39.667 10.5 63
c0 46.667 -12 84 -36 112s-56 42 -96 42c-20 0 -38.167 -3.83301 -54.5 -11.5s-30.333 -18.167 -42 -31.5s-20.667 -29.5 -27 -48.5s-9.5 -39.833 -9.5 -62.5c0 -23.333 3.5 -44.333 10.5 -63s16.5 -34.5 28.5 -47.5s26.167 -23.167 42.5 -30.5s33.5 -11 51.5 -11z" />
    <glyph glyph-name="h" unicode="h" horiz-adv-x="585" 
d="M191 426c14 28.667 32.998 51.335 56.998 68.002s54 25 90 25c58.667 0 103.834 -18.333 135.501 -55s47.5 -86.334 47.5 -149.001v-256c0 -17.333 -5.83301 -31.5 -17.5 -42.5s-26.167 -16.5 -43.5 -16.5s-31.833 5.5 -43.5 16.5s-17.5 25.167 -17.5 42.5v213
c0 44 -9.16699 77.5 -27.5 100.5s-44.166 34.5 -77.499 34.5s-58.833 -11.833 -76.5 -35.5s-26.5 -57.834 -26.5 -102.501v-210c0 -17.333 -5.83301 -31.5 -17.5 -42.5s-26.167 -16.5 -43.5 -16.5s-31.833 5.5 -43.5 16.5s-17.5 25.167 -17.5 42.5v571
c0 17.333 5.33301 31.666 16 42.999s25.667 17 45 17s34.333 -5.66699 45 -17s16 -25.666 16 -42.999v-204z" />
    <glyph glyph-name="i" unicode="i" horiz-adv-x="265" 
d="M131 692c19.333 0 35.333 -5.66895 48 -17.002s19 -27.666 19 -48.999c0 -22.667 -6.33301 -39 -19 -49s-28.667 -15 -48 -15c-18.667 0 -34.167 5.33301 -46.5 16s-18.5 26.667 -18.5 48c0 20.667 6 36.834 18 48.501s27.667 17.5 47 17.5zM69 448.998
c0 16.667 5.66699 30.834 17 42.501s26 17.5 44 17.5s32.667 -5.83301 44 -17.5s17 -25.834 17 -42.501v-291c0 -13.333 1.83301 -24.5 5.5 -33.5s10.5 -13.5 20.5 -13.5c11.333 0 19.333 -5 24 -15s7 -20.667 7 -32c0 -19.333 -5.83301 -34.833 -17.5 -46.5
s-29.167 -17.5 -52.5 -17.5c-34 0 -60.667 11.5 -80 34.5s-29 61.5 -29 115.5v299z" />
    <glyph glyph-name="j" unicode="j" horiz-adv-x="260" 
d="M69 449c0 17.333 5.83398 31.667 17.501 43s26.167 17 43.5 17s31.833 -5.66699 43.5 -17s17.5 -25.666 17.5 -42.999v-441c0 -62.667 -13.833 -111.334 -41.5 -146.001s-69.5 -52 -125.5 -52c-28.667 0 -49.334 5.83301 -62.001 17.5s-19 25.5 -19 41.5
s4.66699 29 14 39s23.333 15 42 15c16 0 28.667 2.5 38 7.5s16.333 11.833 21 20.5s7.66699 19 9 31s2 24.667 2 38v429zM129.001 692.001c19.333 0 35.333 -5.66895 48 -17.002s19 -27.666 19 -48.999c0 -22.667 -6.33301 -39 -19 -49s-28.667 -15 -48 -15
s-35.166 5.33301 -47.499 16s-18.5 26.667 -18.5 48c0 20.667 6.16699 36.834 18.5 48.501s28.166 17.5 47.499 17.5z" />
    <glyph glyph-name="k" unicode="k" horiz-adv-x="544" 
d="M328 280l162 -181.002c4.66699 -5.33301 9.33398 -11.166 14.001 -17.499s7 -15.166 7 -26.499c0 -19.333 -6.5 -33.333 -19.5 -42s-25.833 -13 -38.5 -13c-9.33301 0 -17.5 1.66699 -24.5 5s-14.167 9 -21.5 17l-165 185l-51 -43v-105c0 -16.667 -5 -30.667 -15 -42
s-25.333 -17 -46 -17s-36 5.66699 -46 17s-15 25.333 -15 42v571c0 16.667 4.83301 30.834 14.5 42.501s25.167 17.5 46.5 17.5s36.833 -5.83301 46.5 -17.5s14.5 -25.834 14.5 -42.501v-324l201 174c8.66699 7.33301 17 14 25 20s17.667 9 29 9
c17.333 0 30.666 -5.66699 39.999 -17s14 -23.666 14 -36.999c0 -11.333 -2.16699 -20.833 -6.5 -28.5s-10.5 -14.834 -18.5 -21.501z" />
    <glyph glyph-name="l" unicode="l" horiz-adv-x="265" 
d="M69 630c0 16.667 5.66699 30.834 17 42.501s26 17.5 44 17.5s32.667 -5.83301 44 -17.5s17 -25.834 17 -42.501v-472c0 -13.333 1.83301 -24.5 5.5 -33.5s10.5 -13.5 20.5 -13.5c11.333 0 19.333 -5 24 -15s7 -20.667 7 -32c0 -19.333 -5.83301 -34.833 -17.5 -46.5
s-29.167 -17.5 -52.5 -17.5c-34 0 -60.667 11.5 -80 34.5s-29 61.5 -29 115.5v480z" />
    <glyph glyph-name="m" unicode="m" horiz-adv-x="834" 
d="M69 449c0 18 5.66797 32.5 17.001 43.5s27 16.5 47 16.5c16.667 0 30.5 -4.66699 41.5 -14s16.5 -23 16.5 -41v-28c10.667 25.333 26.667 47.166 48 65.499s50 27.5 86 27.5c34 0 63 -8.5 87 -25.5s41.667 -41.5 53 -73.5c11.333 30.667 27.5 54.834 48.5 72.501
s49.167 26.5 84.5 26.5c55.333 0 98 -17.5 128 -52.5s45 -83.833 45 -146.5v-261c0 -16.667 -5.83301 -30.667 -17.5 -42s-26.5 -17 -44.5 -17s-32.667 5.66699 -44 17s-17 25.333 -17 42v250c0 31.333 -7.5 55.5 -22.5 72.5s-35.5 25.5 -61.5 25.5s-46.333 -8.5 -61 -25.5
s-22 -41.167 -22 -72.5v-249c0 -17.333 -5.66699 -31.666 -17 -42.999s-26 -17 -44 -17s-32.833 5.66699 -44.5 17s-17.5 25.666 -17.5 42.999v249c0 31.333 -7.33301 55.5 -22 72.5s-35.334 25.5 -62.001 25.5c-26 0 -46.333 -8.5 -61 -25.5s-22 -41.167 -22 -72.5v-250
c0 -16.667 -5.66699 -30.667 -17 -42s-26 -17 -44 -17c-17.333 0 -31.833 5.5 -43.5 16.5s-17.5 25.167 -17.5 42.5v390z" />
    <glyph glyph-name="n" unicode="n" horiz-adv-x="588" 
d="M69 456c0 12.667 5 24.667 15 36s25.667 17 47 17s36.666 -5.33301 45.999 -16s14 -22.667 14 -36v-31c12.667 30 32.334 53 59.001 69s57 24 91 24c58 0 103 -18.167 135 -54.5s48 -86.166 48 -149.499v-256c0 -16.667 -5.83301 -30.667 -17.5 -42s-26.5 -17 -44.5 -17
c-17.333 0 -31.833 5.66699 -43.5 17s-17.5 25.333 -17.5 42v213c0 44 -9.16699 77.5 -27.5 100.5s-43.833 34.5 -76.5 34.5c-33.333 0 -59.333 -11.833 -78 -35.5s-28 -57.834 -28 -102.501v-210c0 -16.667 -5.66699 -30.667 -17 -42s-26 -17 -44 -17
c-16.667 0 -31 5.5 -43 16.5s-18 25.167 -18 42.5v397z" />
    <glyph glyph-name="o" unicode="o" horiz-adv-x="592" 
d="M296 519c37.333 0 71.666 -6.83301 102.999 -20.5s58.333 -32.334 81 -56.001s40.334 -51.667 53.001 -84s19 -67.166 19 -104.499s-6.33301 -72 -19 -104s-30.334 -59.833 -53.001 -83.5s-49.667 -42.334 -81 -56.001s-65.666 -20.5 -102.999 -20.5
c-38 0 -72.667 6.83301 -104 20.5s-58.166 32.334 -80.499 56.001s-39.833 51.5 -52.5 83.5s-19 66.667 -19 104s6.33301 72.166 19 104.499s30.167 60.333 52.5 84s49.166 42.334 80.499 56.001s66 20.5 104 20.5zM296 407c-21.333 0 -40 -3.83301 -56 -11.5
s-29.5 -18.334 -40.5 -32.001s-19.333 -29.667 -25 -48s-8.5 -38.166 -8.5 -59.499c0 -20.667 2.83301 -40.334 8.5 -59.001s14 -35.167 25 -49.5s24.5 -25.666 40.5 -33.999s34.667 -12.5 56 -12.5s40 4 56 12s29.5 19 40.5 33s19.333 30.167 25 48.5s8.5 37.833 8.5 58.5
c0 21.333 -2.83301 41.333 -8.5 60s-14 35 -25 49s-24.5 25 -40.5 33s-34.667 12 -56 12z" />
    <glyph glyph-name="p" unicode="p" horiz-adv-x="621" 
d="M191 -131c0 -17.333 -5.66602 -31.501 -16.999 -42.501s-25.666 -16.5 -42.999 -16.5s-32 5.5 -44 16.5s-18 25.167 -18 42.5v588c0 12 5 23.667 15 35s25.667 17 47 17s36.666 -5.33301 45.999 -16s14 -22.667 14 -36v-40c15.333 28 35.833 52 61.5 72s59.5 30 101.5 30
c34 0 65 -6.5 93 -19.5s52 -31.167 72 -54.5s35.5 -51.333 46.5 -84s16.5 -68.334 16.5 -107.001c0 -38 -5.66699 -73.167 -17 -105.5s-27.166 -60.166 -47.499 -83.499s-44.833 -41.666 -73.5 -54.999s-60.334 -20 -95.001 -20c-38.667 0 -71.334 9.66699 -98.001 29
s-46.667 44 -60 74v-224zM324.001 100.999c20.667 0 39.167 4 55.5 12s30.166 19 41.499 33s20 30.333 26 49s9 38.334 9 59.001c0 21.333 -3 41.333 -9 60s-14.667 34.834 -26 48.501s-25.166 24.5 -41.499 32.5s-34.833 12 -55.5 12s-39.167 -4 -55.5 -12
s-30.333 -19 -42 -33s-20.5 -30.333 -26.5 -49s-9 -38.334 -9 -59.001c0 -21.333 3 -41.333 9 -60s14.833 -34.834 26.5 -48.501s25.667 -24.5 42 -32.5s34.833 -12 55.5 -12z" />
    <glyph glyph-name="q" unicode="q" horiz-adv-x="621" 
d="M429 93c-18.667 -35.333 -42.333 -61.3301 -71 -77.9971s-62 -25 -100 -25c-30 0 -58.333 5.83301 -85 17.5s-49.834 28.667 -69.501 51s-35.334 49.666 -47.001 81.999s-17.5 69.166 -17.5 110.499c0 38 5.66699 73.333 17 106s27 61 47 85s44 42.833 72 56.5
s59 20.5 93 20.5c44.667 0 79.5 -9.83301 104.5 -29.5s43.833 -43.834 56.5 -72.501v40c0 13.333 5.16699 25.333 15.5 36s25.5 16 45.5 16c16 0 30.333 -4.33301 43 -13s19 -21.667 19 -39v-588c0 -17.333 -5.66699 -31.5 -17 -42.5s-25.666 -16.5 -42.999 -16.5
s-32.166 5.5 -44.499 16.5s-18.5 25.167 -18.5 42.5v224zM297.001 101.003c18 0 35 3.5 51 10.5s30 17.167 42 30.5s21.5 29.333 28.5 48s10.5 39.667 10.5 63c0 46.667 -12.167 84 -36.5 112s-56.166 42 -95.499 42c-40.667 0 -72.834 -14.167 -96.501 -42.5
s-35.5 -65.5 -35.5 -111.5c0 -23.333 3.5 -44.333 10.5 -63s16.5 -34.5 28.5 -47.5s26 -23.167 42 -30.5s33 -11 51 -11z" />
    <glyph glyph-name="r" unicode="r" horiz-adv-x="409" 
d="M69 454c0 15.333 4.83398 28.3359 14.501 39.0029s23.834 16 42.501 16c38.667 0 58 -18.333 58 -55v-34c14 28 33.5 51.5 58.5 70.5s55.167 28.5 90.5 28.5c23.333 0 39.833 -5.33301 49.5 -16s14.5 -23.334 14.5 -38.001c0 -16.667 -4.66699 -30.667 -14 -42
s-24.333 -17 -45 -17c-18.667 0 -36.834 -3.16699 -54.501 -9.5s-33.334 -15.833 -47.001 -28.5s-24.667 -28.834 -33 -48.501s-12.5 -42.834 -12.5 -69.501v-191c0 -18 -6 -32.333 -18 -43s-26.333 -16 -43 -16c-17.333 -0 -31.833 5.33301 -43.5 16s-17.5 25 -17.5 43v395
z" />
    <glyph glyph-name="s" unicode="s" horiz-adv-x="478" 
d="M51 369c0 21.333 4.67188 41.1709 14.0049 59.5039s22.333 34.166 39 47.499s36.667 23.833 60 31.5s48.666 11.5 75.999 11.5c39.333 0 71.666 -5.33301 96.999 -16s45.666 -23.667 60.999 -39c7.33301 -7.33301 12.5 -15 15.5 -23s4.5 -15.333 4.5 -22
c0 -11.333 -4.16699 -23.166 -12.5 -35.499s-19.833 -18.5 -34.5 -18.5c-6.66699 0 -13.5 1.66699 -20.5 5s-13.833 7.33301 -20.5 12c-8.66699 6 -20 12.5 -34 19.5s-31.667 10.5 -53 10.5c-18 0 -33.5 -3.16699 -46.5 -9.5s-19.5 -17.166 -19.5 -32.499
c0 -12.667 6.33301 -22.834 19 -30.501s28.667 -15 48 -22s40 -14.5 62 -22.5s42.667 -17.833 62 -29.5s35.333 -26.5 48 -44.5s19 -40.333 19 -67c0 -23.333 -4.83301 -45 -14.5 -65s-23.167 -37.333 -40.5 -52s-38.166 -26.167 -62.499 -34.5s-51.5 -12.5 -81.5 -12.5
c-41.333 0 -76.333 5.66699 -105 17s-52 26.666 -70 45.999c-7.33301 7.33301 -12.333 14.666 -15 21.999s-4 14.666 -4 21.999c0 12.667 4.83301 25 14.5 37s21.167 18 34.5 18c9.33301 0 17.666 -1.83301 24.999 -5.5s13.333 -7.16699 18 -10.5
c13.333 -10.667 28.166 -19.834 44.499 -27.501s34.833 -11.5 55.5 -11.5c23.333 0 41.666 3.66699 54.999 11s20 19.333 20 36c0 14 -6.33301 25.5 -19 34.5s-28.667 17 -48 24s-40 14.333 -62 22s-42.667 17.5 -62 29.5s-35.333 27 -48 45s-19 41.333 -19 70z" />
    <glyph glyph-name="t" unicode="t" horiz-adv-x="405" 
d="M230 172c0 -47.333 17.667 -71 53 -71c16.667 0 29 2.16699 37 6.5s16 6.5 24 6.5c14 0 24.667 -5.33301 32 -16s11 -21 11 -31c0 -24.667 -8.33301 -42.334 -25 -53.001c-14 -9.33301 -29.167 -15.666 -45.5 -18.999s-35.166 -5 -56.499 -5
c-29.333 0 -53.833 4.83301 -73.5 14.5s-35.334 22.5 -47.001 38.5s-20 34.5 -25 55.5s-7.5 42.5 -7.5 64.5v237h-28c-16 0 -29.167 4.83301 -39.5 14.5s-15.5 22.834 -15.5 39.501s5.33301 30 16 40s23.667 15 39 15h28v72c0 16.667 5.83301 30.667 17.5 42
s26.5 17 44.5 17c17.333 0 31.833 -5.66699 43.5 -17s17.5 -25.333 17.5 -42v-72h84c15.333 0 28.333 -5 39 -15s16 -23.333 16 -40s-5.33301 -29.834 -16 -39.501s-23.667 -14.5 -39 -14.5h-84v-228z" />
    <glyph glyph-name="u" unicode="u" horiz-adv-x="564" 
d="M377 449c0 17.333 5.83398 31.666 17.501 42.999s26.167 17 43.5 17s31.833 -5.66699 43.5 -17s17.5 -25.666 17.5 -42.999v-234c0 -33.333 -5 -63.666 -15 -90.999s-24.333 -51 -43 -71s-41.334 -35.5 -68.001 -46.5s-57 -16.5 -91 -16.5
c-33.333 0 -63.5 5.5 -90.5 16.5s-49.833 26.5 -68.5 46.5s-33 43.667 -43 71s-15 57.666 -15 90.999v234c0 17.333 5.83301 31.666 17.5 42.999s26.167 17 43.5 17s32 -5.66699 44 -17s18 -25.666 18 -42.999v-237c0 -34 7.83301 -61 23.5 -81s39.167 -30 70.5 -30
c32 0 55.833 10 71.5 30s23.5 47 23.5 81v237z" />
    <glyph glyph-name="v" unicode="v" horiz-adv-x="533" 
d="M389 470c4.66699 10.667 10.833 19.834 18.5 27.501s18.167 11.5 31.5 11.5c19.333 0 35.333 -5.33301 48 -16s19 -25.667 19 -45c0 -10.667 -2 -20.334 -6 -29.001l-174 -377c-7.33301 -14 -15.666 -24.5 -24.999 -31.5s-21.666 -10.5 -36.999 -10.5
s-27.5 3.5 -36.5 10.5s-17.167 18.167 -24.5 33.5l-166 370c-2.66699 4.66699 -5 10.5 -7 17.5s-3 13.5 -3 19.5c0 16.667 5.66699 30.5 17 41.5s26.333 16.5 45 16.5c17.333 0 30.166 -4.5 38.499 -13.5s14.166 -17.5 17.499 -25.5l122 -294z" />
    <glyph glyph-name="w" unicode="w" horiz-adv-x="735" 
d="M591 465c4.66699 14 11.3311 24.833 19.998 32.5s20.667 11.5 36 11.5c20 0 35.667 -5.5 47 -16.5s17 -26.167 17 -45.5c0 -3.33301 -0.333008 -7.33301 -1 -12s-2.66699 -11.667 -6 -21l-140 -370c-5.33301 -14.667 -13.333 -25.667 -24 -33s-22.334 -11 -35.001 -11
c-13.333 -0 -25.666 3.33301 -36.999 10s-19.666 18.667 -24.999 36l-76 235l-75 -235c-5.33301 -17.333 -14.166 -29.333 -26.499 -36s-24.166 -10 -35.499 -10c-14.667 0 -27 3.5 -37 10.5s-18 18.5 -24 34.5l-137 369c-5.33301 13.333 -8 24.333 -8 33
c0 22.667 7.33301 38.667 22 48s30 14 46 14c28 0 46 -13 54 -39l91 -281l73 224c4.66699 17.333 12.667 29.5 24 36.5s22.666 10.5 33.999 10.5s22.833 -3.33301 34.5 -10s20.167 -18.667 25.5 -36l73 -225z" />
    <glyph glyph-name="x" unicode="x" horiz-adv-x="514" 
d="M271 336l107.999 148c5.33301 7.33301 11.5 13.333 18.5 18s15.167 7 24.5 7c12.667 0 25.5 -4.16699 38.5 -12.5s19.5 -20.833 19.5 -37.5c0 -7.33301 -1.5 -14.333 -4.5 -21s-6.5 -12.667 -10.5 -18l-126 -172l112 -144c14 -18 21 -34 21 -48
c0 -17.333 -5.83301 -31 -17.5 -41s-25.167 -15 -40.5 -15c-12 -0 -22.333 2.33301 -31 7s-17.667 13 -27 25l-109 141l-98 -141c-6.66699 -8.66699 -14.167 -16.167 -22.5 -22.5s-18.166 -9.5 -29.499 -9.5c-15.333 0 -28.5 5.16699 -39.5 15.5s-16.5 22.166 -16.5 35.499
c0 14.667 4.66699 28.334 14 41.001l123 171l-114 149c-7.33301 9.33301 -12 17.5 -14 24.5s-3 13.833 -3 20.5c0 14 6 26.167 18 36.5s26 15.5 42 15.5c14.667 0 26.167 -3.5 34.5 -10.5s16.5 -15.5 24.5 -25.5z" />
    <glyph glyph-name="y" unicode="y" horiz-adv-x="525" 
d="M201 1l-170.004 413.998c-2.66699 6 -4.5 12 -5.5 18s-1.5 11.333 -1.5 16c0 18 6.66699 32.5 20 43.5s29 16.5 47 16.5c13.333 0 24.5 -3.5 33.5 -10.5s15.833 -16.167 20.5 -27.5l115 -321l125 319c4.66699 10.667 10.834 20 18.501 28s18.834 12 33.501 12
c16.667 0 30.834 -5.16699 42.501 -15.5s17.5 -24.166 17.5 -41.499c0 -7.33301 -1 -14.666 -3 -21.999s-4 -13.333 -6 -18l-179 -432c-13.333 -32 -27.333 -59 -42 -81s-30.167 -39.5 -46.5 -52.5s-34.166 -22.333 -53.499 -28s-40 -8.5 -62 -8.5
c-25.333 0 -44 4.66699 -56 14s-18 22.666 -18 39.999c0 16.667 5 30.334 15 41.001s24.667 16 44 16c30 0 53 5.33301 69 16s28 26.667 36 48z" />
    <glyph glyph-name="z" unicode="z" horiz-adv-x="467" 
d="M370 509c20 0 34.834 -5.33301 44.501 -16s14.5 -23.334 14.5 -38.001c0 -8 -2 -16.5 -6 -25.5s-8.66699 -17.167 -14 -24.5l-213 -294h183c17.333 0 31.333 -4.5 42 -13.5s16 -22.167 16 -39.5c0 -19.333 -5.33301 -33.833 -16 -43.5s-24.667 -14.5 -42 -14.5h-286
c-18.667 0 -32.834 5.66699 -42.501 17s-14.5 25 -14.5 41c0 12 5.33301 26 16 42l217 297h-168c-17.333 0 -31.333 5.33301 -42 16s-16 24.334 -16 41.001c0 16 5.33301 29.167 16 39.5s24.667 15.5 42 15.5h269z" />
    <glyph glyph-name="braceleft" unicode="{" horiz-adv-x="369" 
d="M36 280c0 16.667 4 30.832 12 42.499s20 17.5 36 17.5c12.667 0 22.167 3.5 28.5 10.5s9.5 18.833 9.5 35.5v110c0 32.667 2.5 63.167 7.5 91.5s14 53 27 74s30.667 37.667 53 50s50.833 18.5 85.5 18.5c22.667 0 39.167 -5.83301 49.5 -17.5s15.5 -25.5 15.5 -41.5
c0 -16.667 -5.33301 -30.5 -16 -41.5s-24 -16.5 -40 -16.5c-20.667 0 -35.167 -8.66699 -43.5 -26s-12.5 -48 -12.5 -92v-106c0 -23.333 -4.83301 -45.333 -14.5 -66s-27.5 -35.334 -53.5 -44.001c12.667 -4 23.5 -9.66699 32.5 -17s16 -15.833 21 -25.5
s8.66699 -20.167 11 -31.5s3.5 -22.666 3.5 -33.999v-107c0 -43.333 4.16699 -73.666 12.5 -90.999s22.833 -26 43.5 -26c16 0 29.333 -5.5 40 -16.5s16 -25.167 16 -42.5c0 -15.333 -5.16699 -28.833 -15.5 -40.5s-26.833 -17.5 -49.5 -17.5c-34.667 0 -63.167 6 -85.5 18
s-40 28.5 -53 49.5s-22 45.667 -27 74s-7.5 58.833 -7.5 91.5v110c0 31.333 -12.667 47 -38 47c-16 0 -28 5.5 -36 16.5s-12 25.5 -12 43.5z" />
    <glyph glyph-name="bar" unicode="|" horiz-adv-x="293" 
d="M84 745c0 19.333 6 34.666 18 45.999s27 17 45 17c17.333 0 32.166 -5.66699 44.499 -17s18.5 -26.666 18.5 -45.999v-872c0 -19.333 -6.16699 -34.666 -18.5 -45.999s-27.166 -17 -44.499 -17c-18 0 -33 5.66699 -45 17s-18 26.666 -18 45.999v872z" />
    <glyph glyph-name="braceright" unicode="}" horiz-adv-x="369" 
d="M333 280c0 -18 -4 -32.498 -12 -43.498s-20 -16.5 -36 -16.5c-25.333 0 -38 -15.667 -38 -47v-110c0 -32.667 -2.5 -63.167 -7.5 -91.5s-14 -53 -27 -74s-30.667 -37.5 -53 -49.5s-50.833 -18 -85.5 -18c-22.667 0 -39.167 5.83301 -49.5 17.5s-15.5 25.167 -15.5 40.5
c0 17.333 5.16699 31.5 15.5 42.5s23.833 16.5 40.5 16.5c20.667 0 35.167 8.66699 43.5 26s12.5 47.666 12.5 90.999v107c0 11.333 1.16699 22.666 3.5 33.999s6 21.833 11 31.5s11.833 18.167 20.5 25.5s19.667 13 33 17c-26 8.66699 -43.833 23.334 -53.5 44.001
s-14.5 42.667 -14.5 66v106c0 44 -4.16699 74.667 -12.5 92s-22.833 26 -43.5 26c-16.667 0 -30.167 5.5 -40.5 16.5s-15.5 24.833 -15.5 41.5c0 16 5.16699 29.833 15.5 41.5s26.833 17.5 49.5 17.5c34.667 0 63.167 -6.16699 85.5 -18.5s40 -29 53 -50s22 -45.667 27 -74
s7.5 -58.833 7.5 -91.5v-110c0 -16.667 3.16699 -28.5 9.5 -35.5s15.833 -10.5 28.5 -10.5c16 0 28 -5.83301 36 -17.5s12 -25.834 12 -42.501z" />
    <glyph glyph-name="asciitilde" unicode="~" 
d="M148 350c3.33301 4.66699 7.99805 9.83301 13.998 15.5s13.167 10.834 21.5 15.501s18 8.66699 29 12s23.167 5 36.5 5c17.333 0 31.5 -2 42.5 -6s21 -8.5 30 -13.5s17.667 -9.5 26 -13.5s18.5 -6 30.5 -6c18.667 0 34.667 7.66699 48 23c8 8 17 12 27 12
c11.333 0 21 -4 29 -12s12 -17.333 12 -28c0 -7.33301 -0.833008 -14.166 -2.5 -20.499s-5.16699 -12.833 -10.5 -19.5c-9.33301 -12 -21.5 -23 -36.5 -33s-32.5 -15 -52.5 -15c-17.333 0 -32.166 2 -44.499 6s-23.5 8.5 -33.5 13.5s-19.667 9.66699 -29 14
s-19.333 6.5 -30 6.5c-12 0 -22.333 -1.83301 -31 -5.5s-16.667 -9.5 -24 -17.5c-7.33301 -7.33301 -17 -11 -29 -11c-9.33301 0 -18 3.5 -26 10.5s-12 15.833 -12 26.5c0 5.33301 0.833008 11.166 2.5 17.499s5.83398 14.166 12.501 23.499z" />
    <glyph glyph-name="uni00A0" unicode="&#xa0;" horiz-adv-x="209" 
 />
    <glyph glyph-name="exclamdown" unicode="&#xa1;" horiz-adv-x="307" 
d="M218 -108c1.33301 -20 -2.83203 -37.168 -12.499 -51.501s-26.834 -21.5 -51.501 -21.5c-24 0 -41 7 -51 21s-15 31.667 -15 53l10 359c0 15.333 4.83301 28.833 14.5 40.5s23.5 17.5 41.5 17.5c17.333 0 30.5 -5.66699 39.5 -17s13.833 -24.666 14.5 -39.999z
M154.002 369.999c-21.333 0 -39.166 6.66699 -53.499 20s-21.5 31.666 -21.5 54.999s7.16699 41.5 21.5 54.5s32.166 19.5 53.499 19.5c22 0 39.833 -6.5 53.5 -19.5s20.5 -31.167 20.5 -54.5s-6.83301 -41.666 -20.5 -54.999s-31.5 -20 -53.5 -20z" />
    <glyph glyph-name="cent" unicode="&#xa2;" 
d="M273 -2c-28 6.66699 -53.332 17.998 -75.999 33.998s-42 35.167 -58 57.5s-28.167 47.666 -36.5 75.999s-12.5 58.166 -12.5 89.499s4.5 60.833 13.5 88.5s21.5 52.667 37.5 75s35.167 41.333 57.5 57s47.166 27.167 74.499 34.5v54c0 19.333 6 34.666 18 45.999
s27 17 45 17c17.333 0 32.166 -5.66699 44.499 -17s18.5 -26.666 18.5 -45.999v-51c54.667 -11.333 97.667 -37.333 129 -78c13.333 -16 20 -32.333 20 -49c0 -19.333 -6 -33.166 -18 -41.499s-23.667 -12.5 -35 -12.5s-20.5 2 -27.5 6s-12.5 8.33301 -16.5 13
c-4 4 -9 9.16699 -15 15.5s-13.5 12.5 -22.5 18.5s-19.5 11.167 -31.5 15.5s-26 6.5 -42 6.5c-20 0 -37.667 -4.16699 -53 -12.5s-28.333 -19.666 -39 -33.999s-18.667 -30.666 -24 -48.999s-8 -37.5 -8 -57.5s2.66699 -39.167 8 -57.5s13.333 -34.666 24 -48.999
s23.667 -25.666 39 -33.999s33 -12.5 53 -12.5c21.333 0 40.666 4.83301 57.999 14.5s34 22.167 50 37.5c7.33301 7.33301 14.5 12.166 21.5 14.499s13.167 3.5 18.5 3.5c11.333 0 23 -4.33301 35 -13s18 -21.667 18 -39c0 -20.667 -7 -38 -21 -52
c-12.667 -14.667 -28.667 -28.667 -48 -42s-43.666 -23 -72.999 -29v-51c0 -19.333 -6.16699 -34.666 -18.5 -45.999s-27.166 -17 -44.499 -17c-18 0 -33 5.66699 -45 17s-18 26.666 -18 45.999v53z" />
    <glyph glyph-name="sterling" unicode="&#xa3;" 
d="M351 241l0.00292969 -7.00195c0 -30 -7.66699 -54.667 -23 -74s-37.333 -35 -66 -47h156c17.333 0 30 1.33301 38 4s13.667 8.66699 17 18c5.33301 15.333 12.666 28.833 21.999 40.5s22.666 17.5 39.999 17.5c16 0 29.167 -5.33301 39.5 -16s15.5 -24.334 15.5 -41.001
c0 -19.333 -3.16699 -37.333 -9.5 -54s-16 -31 -29 -43s-29.667 -21.5 -50 -28.5s-44.5 -10.5 -72.5 -10.5h-322c-17.333 0 -31.333 5.16699 -42 15.5s-16 23.833 -16 40.5s5.5 30.334 16.5 41.001s25.167 16 42.5 16c16.667 0 32 3 46 9s26 13.833 36 23.5
s17.667 20.834 23 33.501s8 26 8 40c0 6.66699 -1 14 -3 22h-88c-13.333 0 -24.166 4.16699 -32.499 12.5s-12.5 19.166 -12.5 32.499s4.16699 24.333 12.5 33s19.166 13 32.499 13h48c-8 13.333 -15.833 27.166 -23.5 41.499s-14.834 29.333 -21.501 45
s-12 31.834 -16 48.501s-6 34.334 -6 53.001c0 26 5.5 50.333 16.5 73s26 42.5 45 59.5s41.667 30.333 68 40s54.833 14.5 85.5 14.5c36.667 0 70 -7.83301 100 -23.5s53.667 -37.167 71 -64.5c6 -10 11.167 -20.333 15.5 -31s6.5 -23 6.5 -37c0 -18 -5 -32.833 -15 -44.5
s-25.333 -17.5 -46 -17.5c-14 0 -25.333 4.33301 -34 13s-15.667 19.667 -21 33c-5.33301 18.667 -15 32 -29 40s-31.667 12 -53 12c-28 0 -48.5 -7.16699 -61.5 -21.5s-19.5 -31.833 -19.5 -52.5c0 -16 2.83301 -31.5 8.5 -46.5s12.667 -29.833 21 -44.5
s17.333 -29.5 27 -44.5s18.5 -30.167 26.5 -45.5h104c13.333 0 24.166 -4.33301 32.499 -13s12.5 -19.667 12.5 -33s-4.16699 -24.166 -12.5 -32.499s-19.166 -12.5 -32.499 -12.5h-76z" />
    <glyph glyph-name="currency" unicode="&#xa4;" 
d="M311 510c19.333 0 37.665 -2.5 54.998 -7.5s33.333 -12.167 48 -21.5l23 23c10.667 9.33301 21.334 14 32.001 14c11.333 0 22 -4.5 32 -13.5s15 -20.167 15 -33.5c0 -12 -4.66699 -22.667 -14 -32l-25 -25c16.667 -30 25 -62.667 25 -98
c0 -36.667 -8.33301 -70 -25 -100l25 -24c9.33301 -9.33301 14 -20.333 14 -33c0 -11.333 -4.16699 -21.833 -12.5 -31.5s-19.166 -14.5 -32.499 -14.5c-11.333 0 -22.666 4.66699 -33.999 14l-23 22c-30 -18.667 -64.333 -28 -103 -28s-72.334 9 -101.001 27l-20 -20
c-10 -10 -20.333 -15 -31 -15c-11.333 0 -22.166 4.33301 -32.499 13s-15.5 19.667 -15.5 33c0 12 5 23 15 33l21 21c-17.333 30.667 -26 65 -26 103c0 38.667 9 73 27 103l-21 21c-10 8.66699 -15 19 -15 31s4.33301 22.833 13 32.5s19.667 14.5 33 14.5
c12 0 22.667 -4.66699 32 -14l21 -21c29.333 18 62.666 27 99.999 27zM310.999 413c-28 0 -48.499 -9.16797 -61.499 -27.501s-19.5 -41.166 -19.5 -68.499c0 -26 6.66699 -49.167 20 -69.5s33.666 -30.5 60.999 -30.5c28 0 48.667 9.66699 62 29s20 42.333 20 69
s-6.66699 49.667 -20 69s-34 29 -62 29z" />
    <glyph glyph-name="yen" unicode="&#xa5;" 
d="M377 111l0.00195312 -48.001c0 -18.667 -5.83301 -33.834 -17.5 -45.501s-26.834 -17.5 -45.501 -17.5s-33.834 5.83301 -45.501 17.5s-17.5 26.834 -17.5 45.501v48h-121c-13.333 0 -24.166 4.16699 -32.499 12.5s-12.5 19.166 -12.5 32.499s4.16699 24.333 12.5 33
s19.166 13 32.499 13h121v51l-6 10h-115c-13.333 0 -24.166 4.33301 -32.499 13s-12.5 19.667 -12.5 33s4.16699 24.333 12.5 33s19.166 13 32.499 13h58l-148 240c-6.66699 11.333 -10 23.333 -10 36c0 15.333 5.16699 29 15.5 41s25.833 18 46.5 18
c9.33301 0 18.5 -2 27.5 -6s16.833 -11.667 23.5 -23l172 -288l166 280c7.33301 12.667 15 22 23 28s19.667 9 35 9c14 0 27.333 -5.16699 40 -15.5s19 -23.166 19 -38.499c0 -9.33301 -2 -19 -6 -29s-8 -18.667 -12 -26l-140 -226h59c13.333 0 24.333 -4.33301 33 -13
s13 -19.667 13 -33s-4.33301 -24.333 -13 -33s-19.667 -13 -33 -13h-116l-6 -10v-51h122c13.333 0 24.333 -4.33301 33 -13s13 -19.667 13 -33s-4.33301 -24.166 -13 -32.499s-19.667 -12.5 -33 -12.5h-122z" />
    <glyph glyph-name="brokenbar" unicode="&#xa6;" horiz-adv-x="293" 
d="M84 745c0 19.333 6 34.666 18 45.999s27 17 45 17c17.333 0 32.166 -5.66699 44.499 -17s18.5 -26.666 18.5 -45.999v-272c0 -19.333 -6.16699 -34.666 -18.5 -45.999s-27.166 -17 -44.499 -17c-18 0 -33 5.66699 -45 17s-18 26.666 -18 45.999v272zM84 145
c0 19.333 6 34.666 18 45.999s27 17 45 17c17.333 0 32.166 -5.66699 44.499 -17s18.5 -26.666 18.5 -45.999v-272c0 -19.333 -6.16699 -34.666 -18.5 -45.999s-27.166 -17 -44.499 -17c-18 0 -33 5.66699 -45 17s-18 26.666 -18 45.999v272z" />
    <glyph glyph-name="section" unicode="&#xa7;" horiz-adv-x="480" 
d="M52 550c0 22 4.6748 42.1689 14.0078 60.502s22.333 34.166 39 47.499s36.667 23.666 60 30.999s48.666 11 75.999 11c39.333 0 71.666 -5.33301 96.999 -16s45.666 -23.667 60.999 -39c7.33301 -7.33301 12.5 -14.833 15.5 -22.5s4.5 -15.167 4.5 -22.5
c0 -11.333 -4.16699 -23.166 -12.5 -35.499s-19.833 -18.5 -34.5 -18.5c-6 0 -12.667 1.66699 -20 5s-14.333 7.33301 -21 12c-8.66699 6 -20 12.667 -34 20s-31.667 11 -53 11c-18 0 -33.5 -3.33301 -46.5 -10s-19.5 -17.667 -19.5 -33
c0 -13.333 6.33301 -24.166 19 -32.499s28.667 -15.666 48 -21.999s40.166 -13 62.499 -20s43.166 -16 62.499 -27s35.333 -24.833 48 -41.5s19 -38.334 19 -65.001c0 -22 -3.83301 -41.167 -11.5 -57.5s-18.167 -30.5 -31.5 -42.5c13.333 -11.333 23.833 -24.333 31.5 -39
s11.5 -32 11.5 -52c0 -23.333 -4.83301 -44.833 -14.5 -64.5s-23.334 -36.667 -41.001 -51s-38.667 -25.666 -63 -33.999s-51.5 -12.5 -81.5 -12.5c-41.333 0 -76.333 5.66699 -105 17s-52 26.666 -70 45.999c-7.33301 7.33301 -12.166 14.666 -14.499 21.999
s-3.5 14.666 -3.5 21.999c0 12.667 4.66699 25 14 37s20.666 18 33.999 18c9.33301 0 17.666 -1.83301 24.999 -5.5s13.333 -7.16699 18 -10.5c13.333 -10.667 28.166 -19.834 44.499 -27.501s35.166 -11.5 56.499 -11.5c23.333 0 41.666 3.66699 54.999 11s20 19.333 20 36
c0 14 -6.33301 25.167 -19 33.5s-28.667 15.666 -48 21.999s-40.166 12.833 -62.499 19.5s-43.166 15.5 -62.499 26.5s-35.333 25.333 -48 43s-19 40.5 -19 68.5c0 21.333 4.33301 39.833 13 55.5s20 28.834 34 39.501c-14 11.333 -25.333 24.833 -34 40.5
s-13 34.834 -13 57.501zM163.008 370.002c0 -10.667 4.16699 -19.668 12.5 -27.001s19.333 -14 33 -20s29.167 -11.667 46.5 -17s35 -11 53 -17c5.33301 4 9.66602 8.66699 12.999 14s5 12.666 5 21.999c0 11.333 -4 21 -12 29s-18.5 15 -31.5 21s-27.667 11.5 -44 16.5
s-33.166 10.5 -50.499 16.5c-7.33301 -3.33301 -13.333 -8.16602 -18 -14.499s-7 -14.166 -7 -23.499z" />
    <glyph glyph-name="dieresis" unicode="&#xa8;" horiz-adv-x="500" 
d="M166 692c16 0 29.667 -5.33301 41 -16s17 -25 17 -43c0 -20 -5.5 -34.667 -16.5 -44s-24.833 -14 -41.5 -14c-17.333 0 -31.333 4.83301 -42 14.5s-16 24.167 -16 43.5c0 18 5.16699 32.333 15.5 43s24.5 16 42.5 16zM333 692c16.667 0 30.667 -5.16699 42 -15.5
s17 -24.5 17 -42.5c0 -20.667 -5.66699 -35.5 -17 -44.5s-25.333 -13.5 -42 -13.5c-17.333 0 -31.166 4.83301 -41.499 14.5s-15.5 24.167 -15.5 43.5c0 18 5.16699 32.167 15.5 42.5s24.166 15.5 41.499 15.5z" />
    <glyph glyph-name="copyright" unicode="&#xa9;" horiz-adv-x="772" 
d="M385 -10c-51.333 0 -98 8.50195 -140 25.502s-78.333 40.833 -109 71.5s-54.334 67.5 -71.001 110.5s-25 90.5 -25 142.5c0 52.667 8.33301 101 25 145s40.334 81.833 71.001 113.5s67 56.334 109 74.001s88.667 26.5 140 26.5s98.166 -8.5 140.499 -25.5
s78.833 -41 109.5 -72s54.334 -68 71.001 -111s25 -90.5 25 -142.5c0 -52.667 -8.33301 -100.834 -25 -144.501s-40.334 -81.334 -71.001 -113.001s-67.167 -56.334 -109.5 -74.001s-89.166 -26.5 -140.499 -26.5zM385 619.002c-40 0 -76.167 -6.83691 -108.5 -20.5039
s-60 -32.667 -83 -57s-40.667 -53.666 -53 -87.999s-18.5 -72.166 -18.5 -113.499c0 -36 6.16699 -70.333 18.5 -103s30 -61.5 53 -86.5s50.667 -44.833 83 -59.5s68.5 -22 108.5 -22s76.167 6.83301 108.5 20.5s60 32.834 83 57.501s40.833 54 53.5 88s19 71.667 19 113
c0 36 -6.16699 70.5 -18.5 103.5s-30 61.833 -53 86.5s-50.833 44.334 -83.5 59.001s-69 22 -109 22zM475 416.998c-14.667 15.333 -27.499 26.668 -38.499 34.001s-26.833 11 -47.5 11c-30 0 -53.833 -10.667 -71.5 -32s-26.5 -51 -26.5 -89
c0 -36 9.16699 -64.167 27.5 -84.5s44.5 -30.5 78.5 -30.5c19.333 0 34.666 3.66699 45.999 11s23.666 17.666 36.999 30.999c9.33301 7.33301 19.666 11 30.999 11c12 0 21.833 -4.83301 29.5 -14.5s11.5 -19.167 11.5 -28.5c0 -6 -1.16699 -12.333 -3.5 -19
s-6.5 -13.334 -12.5 -20.001c-12.667 -14.667 -31 -29.167 -55 -43.5s-54.667 -21.5 -92 -21.5c-30 0 -57 5 -81 15s-44.667 24.167 -62 42.5s-30.666 40.5 -39.999 66.5s-14 55 -14 87c0 31.333 4.66699 60.166 14 86.499s22.666 48.833 39.999 67.5s38 33.167 62 43.5
s51 15.5 81 15.5c24 0 45 -3 63 -9s33.333 -13 46 -21s22.834 -16 30.501 -24s12.834 -14.333 15.501 -19c3.33301 -5.33301 5.5 -10.666 6.5 -15.999s1.5 -10.666 1.5 -15.999c0 -15.333 -5 -26.833 -15 -34.5s-19.667 -11.5 -29 -11.5c-13.333 0 -24.333 4 -33 12z" />
    <glyph glyph-name="ordfeminine" unicode="&#xaa;" horiz-adv-x="460" 
d="M408 448c0 -20.667 5.33301 -31.001 16 -31.001c17.333 0 26 -13.667 26 -41c0 -36.667 -22.333 -55 -67 -55c-24.667 0 -44 6.33301 -58 19s-21.667 27.667 -23 45v5c-11.333 -25.333 -27 -44.5 -47 -57.5s-43.667 -19.5 -71 -19.5c-21.333 0 -41.5 4.5 -60.5 13.5
s-35.833 21.833 -50.5 38.5s-26.167 36.834 -34.5 60.501s-12.5 50.5 -12.5 80.5s4.66699 57 14 81s21.666 44.5 36.999 61.5s33 30.167 53 39.5s40.667 14 62 14c28.667 0 51.834 -6 69.501 -18s31.167 -28.333 40.5 -49v15c0 13.333 5 24.166 15 32.499
s22.667 12.5 38 12.5c16 0 28.833 -4.16699 38.5 -12.5s14.5 -19.166 14.5 -32.499v-202zM219 409.999c22 0 41.335 8.33203 58.002 24.999s25 40.334 25 71.001c0 31.333 -7.5 55.833 -22.5 73.5s-35.167 26.5 -60.5 26.5c-26.667 0 -47.334 -9 -62.001 -27
s-22 -42.333 -22 -73c0 -30 8.16699 -53.5 24.5 -70.5s36.166 -25.5 59.499 -25.5z" />
    <glyph glyph-name="guillemotleft" unicode="&#xab;" horiz-adv-x="614" 
d="M247 444c3.33301 3.33301 8.16602 6.33203 14.499 8.99902s12.5 4 18.5 4c11.333 0 21.333 -4.16699 30 -12.5s13 -18.833 13 -31.5c0 -7.33301 -1.16699 -14 -3.5 -20s-7.16602 -11.667 -14.499 -17l-160 -125l158 -127c7.33301 -6 12.333 -12 15 -18s4 -12.667 4 -20
c0 -11.333 -4 -21.5 -12 -30.5s-18.333 -13.5 -31 -13.5c-6 0 -12 1.33301 -18 4s-10.667 5.33398 -14 8.00098l-199 159c-11.333 9.33301 -17 21.333 -17 36c0 9.33301 2 16.833 6 22.5s7.66699 10.167 11 13.5zM507 443.999
c3.33301 3.33301 8.16602 6.33203 14.499 8.99902s12.5 4 18.5 4c11.333 0 21.333 -4.16699 30 -12.5s13 -18.833 13 -31.5c0 -7.33301 -1.16699 -14 -3.5 -20s-7.16602 -11.667 -14.499 -17l-160 -125l158 -127c7.33301 -6 12.333 -12 15 -18s4 -12.667 4 -20
c0 -11.333 -4 -21.5 -12 -30.5s-18.333 -13.5 -31 -13.5c-6 0 -12 1.33301 -18 4s-10.667 5.33398 -14 8.00098l-199 159c-11.333 9.33301 -17 21.333 -17 36c0 9.33301 2 16.833 6 22.5s7.66699 10.167 11 13.5z" />
    <glyph glyph-name="logicalnot" unicode="&#xac;" 
d="M471 451c13.333 0 24.166 -4.33203 32.499 -12.999s12.5 -19.667 12.5 -33v-176c0 -13.333 -4.16699 -24.333 -12.5 -33s-19.166 -13 -32.499 -13s-24.333 4.33301 -33 13s-13 19.667 -13 33v131h-268c-13.333 0 -24.333 4.33301 -33 13s-13 19.667 -13 33
s4.33301 24.166 13 32.499s19.667 12.5 33 12.5h314z" />
    <glyph glyph-name="uni00AD" unicode="&#xad;" horiz-adv-x="426" 
 />
    <glyph glyph-name="registered" unicode="&#xae;" horiz-adv-x="651" 
d="M326 102c-43.333 0 -83.166 7.33105 -119.499 21.998s-67.5 35.334 -93.5 62.001s-46.333 58.334 -61 95.001s-22 77 -22 121s7.33301 84.667 22 122s35 69.5 61 96.5s57.167 48.167 93.5 63.5s76.166 23 119.499 23s83 -7.5 119 -22.5s67 -35.667 93 -62
s46.333 -57.833 61 -94.5s22 -77 22 -121s-7.33301 -84.667 -22 -122s-35 -69.5 -61 -96.5s-57 -48.167 -93 -63.5s-75.667 -23 -119 -23zM326 630.998c-33.333 0 -63.333 -5.5 -90 -16.5s-49.5 -26.667 -68.5 -47s-33.5 -44.666 -43.5 -72.999s-15 -59.5 -15 -93.5
c0 -30 5 -58.667 15 -86s24.5 -51.333 43.5 -72s41.833 -37 68.5 -49s56.667 -18 90 -18s63.333 5.5 90 16.5s49.5 26.667 68.5 47s33.5 44.666 43.5 72.999s15 59.5 15 93.5c0 30 -5 58.667 -15 86s-24.5 51.333 -43.5 72s-41.833 37 -68.5 49s-56.667 18 -90 18z
M466 456.998c0 -44 -18.002 -75.668 -54.002 -95.001l33 -34c9.33301 -8.66699 15 -16.5 17 -23.5s3 -14.167 3 -21.5c0 -9.33301 -3.66699 -18.166 -11 -26.499s-18.333 -12.5 -33 -12.5c-10 0 -18.667 2.33301 -26 7s-13.666 10.667 -18.999 18l-61 73h-23v-55
c0 -13.333 -4.16699 -23.833 -12.5 -31.5s-19.166 -11.5 -32.499 -11.5s-24.166 3.83301 -32.499 11.5s-12.5 18.167 -12.5 31.5v239c0 13.333 4.16699 24 12.5 32s19.166 12 32.499 12h89c38.667 0 70 -10.333 94 -31s36 -48 36 -82zM336.998 418.997
c9.33301 0 18 3.00098 26 9.00098s12 15.667 12 29c0 11.333 -4 20.166 -12 26.499s-17 9.5 -27 9.5h-44v-74h45z" />
    <glyph glyph-name="macron" unicode="&#xaf;" horiz-adv-x="500" 
d="M353 704c13.333 0 24.333 -4.83301 33 -14.5s13 -21.167 13 -34.5s-4.33301 -25 -13 -35s-19.667 -15 -33 -15h-206c-13.333 0 -24.5 5 -33.5 15s-13.5 21.667 -13.5 35s4.5 24.833 13.5 34.5s20.167 14.5 33.5 14.5h206z" />
    <glyph glyph-name="degree" unicode="&#xb0;" horiz-adv-x="394" 
d="M197 700c20.667 0 39.834 -3.83301 57.501 -11.5s33 -18.5 46 -32.5s23 -30.5 30 -49.5s10.5 -39.5 10.5 -61.5c0 -22.667 -3.5 -43.5 -10.5 -62.5s-17 -35.333 -30 -49s-28.333 -24.334 -46 -32.001s-36.834 -11.5 -57.501 -11.5s-39.834 3.83301 -57.501 11.5
s-32.834 18.334 -45.501 32.001s-22.5 30 -29.5 49s-10.5 39.833 -10.5 62.5c0 22 3.5 42.5 10.5 61.5s16.833 35.5 29.5 49.5s27.834 24.833 45.501 32.5s36.834 11.5 57.501 11.5zM197 619c-21.333 0 -37.166 -7.66699 -47.499 -23s-15.5 -32.333 -15.5 -51
s5.16699 -35.5 15.5 -50.5s26.166 -22.5 47.499 -22.5s37.166 7.5 47.499 22.5s15.5 31.833 15.5 50.5s-5.16699 35.667 -15.5 51s-26.166 23 -47.499 23z" />
    <glyph glyph-name="plusminus" unicode="&#xb1;" 
d="M470 361c13.333 0 24.333 -4.33301 33 -13s13 -19.667 13 -33s-4.33301 -24.166 -13 -32.499s-19.667 -12.5 -33 -12.5h-111v-90c0 -13.333 -4.16699 -24.333 -12.5 -33s-19.166 -13 -32.499 -13s-24.333 4.33301 -33 13s-13 19.667 -13 33v90h-110
c-13.333 0 -24.5 4.33301 -33.5 13s-13.5 19.667 -13.5 33s4.5 24.166 13.5 32.499s20.167 12.5 33.5 12.5h111v90c0 13.333 4.33301 24.5 13 33.5s19.667 13.5 33 13.5s24.166 -4.5 32.499 -13.5s12.5 -20.167 12.5 -33.5v-90h110zM470 92
c13.333 0 24.333 -4.50098 33 -13.501s13 -20.167 13 -33.5s-4.33301 -24.166 -13 -32.499s-19.667 -12.5 -33 -12.5h-312c-13.333 -0 -24.5 4.33301 -33.5 13s-13.5 19.667 -13.5 33s4.5 24.333 13.5 33s20.167 13 33.5 13h312z" />
    <glyph glyph-name="twosuperior" unicode="&#xb2;" horiz-adv-x="355" 
d="M169 515c20.667 17.333 34.667 31.3311 42 41.998s11 20.667 11 30c0 8 -3.5 15 -10.5 21s-17.5 9 -31.5 9c-13.333 0 -24 -2.33301 -32 -7s-14.667 -10.667 -20 -18c-12 -14 -26.333 -21 -43 -21c-12 0.666992 -22.333 4.33398 -31 11.001s-13 17.667 -13 33
c0 10.667 3.33301 21 10 31s16.167 19 28.5 27s27.166 14.5 44.499 19.5s36.333 7.5 57 7.5c41.333 0 74.833 -9.66699 100.5 -29s38.5 -46.333 38.5 -81c0 -20.667 -5.66699 -39.5 -17 -56.5s-29.666 -35.167 -54.999 -54.5l-64 -54h102c14 0 25.333 -3.83301 34 -11.5
s13 -17.5 13 -29.5c0 -12.667 -4.33301 -22.667 -13 -30s-20 -11 -34 -11h-195c-4 0 -8.83301 0.666992 -14.5 2s-11 3.5 -16 6.5s-9.33301 7.16699 -13 12.5s-5.5 12 -5.5 20c0 6.66699 1.66699 13.334 5 20.001s7 12 11 16z" />
    <glyph glyph-name="threesuperior" unicode="&#xb3;" horiz-adv-x="355" 
d="M179 560c12 0 21.168 2.83203 27.501 8.49902s9.5 12.834 9.5 21.501c0 9.33301 -3.83301 16.666 -11.5 21.999s-18.167 8 -31.5 8c-14 0 -25.667 -1.83301 -35 -5.5s-18 -8.16699 -26 -13.5c-9.33301 -5.33301 -18.333 -8 -27 -8c-10.667 0 -20.334 3.5 -29.001 10.5
s-13 16.167 -13 27.5c0 14 8 27 24 39c6 4.66699 18.167 10.834 36.5 18.501s42.5 11.5 72.5 11.5c22.667 0 42.667 -2.66699 60 -8s32 -12.333 44 -21s21 -18.667 27 -30s9 -23 9 -35c0 -15.333 -5 -30.166 -15 -44.499s-24.333 -24.5 -43 -30.5
c24.667 -4 42.667 -14 54 -30s17 -31.667 17 -47c0 -17.333 -3.83301 -33.166 -11.5 -47.499s-18.5 -26.5 -32.5 -36.5s-30.5 -17.833 -49.5 -23.5s-39.5 -8.5 -61.5 -8.5c-25.333 0 -47.333 2.16699 -66 6.5s-36 12.166 -52 23.499c-15.333 11.333 -23 24 -23 38
c0 11.333 4.5 20.833 13.5 28.5s20.167 11.5 33.5 11.5c8 0 15.667 -2 23 -6c11.333 -7.33301 21.5 -12.833 30.5 -16.5s21.167 -5.5 36.5 -5.5c21.333 0 37 3.16699 47 9.5s15 14.833 15 25.5c0 22.667 -16.667 34 -50 34h-20c-12.667 0 -23.5 3.16699 -32.5 9.5
s-13.5 15.5 -13.5 27.5c0 13.333 5 22.666 15 27.999s22.333 8 37 8h11z" />
    <glyph glyph-name="acute" unicode="&#xb4;" horiz-adv-x="500" 
d="M266 720c5.33301 5.33301 11.499 10.001 18.499 14.001s14.833 6 23.5 6c14 0 26.5 -5.33301 37.5 -16s16.5 -22.667 16.5 -36c0 -18.667 -7.33301 -33 -22 -43l-133 -89c-9.33301 -6.66699 -17.666 -10 -24.999 -10c-11.333 0 -20.333 4.16699 -27 12.5
s-10 17.166 -10 26.499c0 12 5.33301 23.333 16 34z" />
    <glyph glyph-name="mu" unicode="&#xb5;" horiz-adv-x="577" 
d="M403 69c-25.333 -52.667 -64.0049 -79.001 -116.005 -79.001c-25.333 0 -45.666 5.83301 -60.999 17.5s-26.666 26.5 -33.999 44.5v-173c0 -18 -5.33301 -34 -16 -48s-25.667 -21 -45 -21s-34.5 7 -45.5 21s-16.5 30.333 -16.5 49v567c0 6.66699 1 13.667 3 21
s5.5 14 10.5 20s11.5 11 19.5 15s17.667 6 29 6c22 0 37.667 -5.33301 47 -16s14 -22.667 14 -36v-245c0 -34 7.83301 -61 23.5 -81s39.5 -30 71.5 -30c30.667 0 53.834 10 69.501 30s23.834 46.333 24.501 79v228c0 18.667 5.33301 35.167 16 49.5s25.667 21.5 45 21.5
s34.5 -7.16699 45.5 -21.5s16.5 -30.833 16.5 -49.5v-280c0 -13.333 1.83301 -24.5 5.5 -33.5s10.167 -13.5 19.5 -13.5c11.333 0 19.333 -5 24 -15s7 -20.667 7 -32c0 -19.333 -5.66699 -34.833 -17 -46.5s-28.666 -17.5 -51.999 -17.5c-28.667 0 -49.5 6.33301 -62.5 19
s-21.5 29.334 -25.5 50.001z" />
    <glyph glyph-name="paragraph" unicode="&#xb6;" horiz-adv-x="541" 
d="M331 45c0 -13.333 -4.16797 -24.167 -12.501 -32.5s-19.166 -12.5 -32.499 -12.5s-24 4.16699 -32 12.5s-12 19.166 -12 32.499v287h-22c-26 0 -50.833 3.83301 -74.5 11.5s-44.5 19.167 -62.5 34.5s-32.333 34 -43 56s-16 47.667 -16 77c0 24.667 4.66699 48 14 70
s22.666 41.333 39.999 58s38 29.834 62 39.501s50.667 14.5 80 14.5h198c13.333 0 24 -4 32 -12s12 -18.667 12 -32v-604c0 -13.333 -4 -24.166 -12 -32.499s-18.667 -12.5 -32 -12.5s-24.166 4.16699 -32.499 12.5s-12.5 19.166 -12.5 32.499v558h-42v-558z" />
    <glyph glyph-name="periodcentered" unicode="&#xb7;" horiz-adv-x="500" 
d="M217 429c21.333 0 39.002 -6.5 53.002 -19.5s21 -30.833 21 -53.5c0 -25.333 -7 -43.5 -21 -54.5s-31.667 -16.5 -53 -16.5c-20.667 0 -37.834 6 -51.501 18s-20.5 29.667 -20.5 53c0 22.667 6.66699 40.5 20 53.5s30.666 19.5 51.999 19.5z" />
    <glyph glyph-name="cedilla" unicode="&#xb8;" horiz-adv-x="500" 
d="M256 0l0.00195312 -32.998c9.33301 -1.33301 18.666 -3.83301 27.999 -7.5s17.666 -8.83398 24.999 -15.501s13.333 -15 18 -25s7 -22.333 7 -37c0 -17.333 -3.33301 -32.5 -10 -45.5s-15.167 -23.833 -25.5 -32.5s-22.166 -15.167 -35.499 -19.5s-27 -6.5 -41 -6.5
c-21.333 0 -36.333 3.33301 -45 10s-13 16.667 -13 30c0 15.333 4.5 25 13.5 29s17.5 6 25.5 6c28 0 42 8.66699 42 26c0 8.66699 -3.33301 14.667 -10 18s-17 6 -31 8c-6.66699 1.33301 -11.334 3.16602 -14.001 5.49902s-4 7.5 -4 15.5v74h70z" />
    <glyph glyph-name="onesuperior" unicode="&#xb9;" horiz-adv-x="355" 
d="M252 386c0 -12 -4.49805 -22.1631 -13.498 -30.4961s-20.167 -12.5 -33.5 -12.5s-24.5 3.66699 -33.5 11s-13.5 17.666 -13.5 30.999v177l-29 -20c-4 -2 -8.83301 -4 -14.5 -6s-11.5 -3 -17.5 -3c-12 0 -22.5 4.16699 -31.5 12.5s-13.5 18.5 -13.5 30.5
c0 7.33301 1.83301 13.666 5.5 18.999s7.5 9.66602 11.5 12.999l101 75c7.33301 5.33301 14.166 8.66602 20.499 9.99902s11.166 2 14.499 2c14 0 25.333 -3.83301 34 -11.5s13 -18.167 13 -31.5v-266z" />
    <glyph glyph-name="ordmasculine" unicode="&#xba;" horiz-adv-x="436" 
d="M218 702c28 0 53.667 -5 77 -15s43.333 -23.667 60 -41s29.667 -37.833 39 -61.5s14 -49.167 14 -76.5s-4.66699 -53 -14 -77s-22.333 -44.667 -39 -62s-36.667 -31 -60 -41s-49 -15 -77 -15s-53.667 5 -77 15s-43.5 23.667 -60.5 41s-30.167 38 -39.5 62
s-14 49.667 -14 77s4.66699 52.833 14 76.5s22.5 44.167 39.5 61.5s37.167 31 60.5 41s49 15 77 15zM218 606c-28 0 -48.667 -9.16699 -62 -27.5s-20 -41.166 -20 -68.499c0 -26.667 6.83301 -50 20.5 -70s34.167 -30 61.5 -30c28 0 48.5 9.66699 61.5 29s19.5 42 19.5 68
c0 27.333 -6.5 50.666 -19.5 69.999s-33.5 29 -61.5 29z" />
    <glyph glyph-name="guillemotright" unicode="&#xbb;" horiz-adv-x="614" 
d="M306 285c3.33301 -3.33301 7 -7.83203 11 -13.499s6 -13.167 6 -22.5c0 -14.667 -5.66699 -26.667 -17 -36l-199 -159c-3.33301 -2.66699 -8 -5.33398 -14 -8.00098s-12 -4 -18 -4c-12.667 0 -23 4.5 -31 13.5s-12 19.167 -12 30.5c0 7.33301 1.33301 14 4 20
s7.66699 12 15 18l158 127l-160 125c-7.33301 5.33301 -12.166 11 -14.499 17s-3.5 12.667 -3.5 20c0 12.667 4.33301 23.167 13 31.5s18.667 12.5 30 12.5c6 0 12.167 -1.33301 18.5 -4s11.166 -5.66699 14.499 -9zM566 285.001c3.33301 -3.33301 7 -7.83203 11 -13.499
s6 -13.167 6 -22.5c0 -14.667 -5.66699 -26.667 -17 -36l-199 -159c-3.33301 -2.66699 -8 -5.33398 -14 -8.00098s-12 -4 -18 -4c-12.667 0 -23 4.5 -31 13.5s-12 19.167 -12 30.5c0 7.33301 1.33301 14 4 20s7.66699 12 15 18l158 127l-160 125
c-7.33301 5.33301 -12.166 11 -14.499 17s-3.5 12.667 -3.5 20c0 12.667 4.33301 23.167 13 31.5s18.667 12.5 30 12.5c6 0 12.167 -1.33301 18.5 -4s11.166 -5.66699 14.499 -9z" />
    <glyph glyph-name="onequarter" unicode="&#xbc;" horiz-adv-x="784" 
d="M252 386c0 -12 -4.49805 -22.1631 -13.498 -30.4961s-20.167 -12.5 -33.5 -12.5s-24.5 3.66699 -33.5 11s-13.5 17.666 -13.5 30.999v177l-29 -20c-4 -2 -8.83301 -4 -14.5 -6s-11.5 -3 -17.5 -3c-12 0 -22.5 4.16699 -31.5 12.5s-13.5 18.5 -13.5 30.5
c0 7.33301 1.83301 13.666 5.5 18.999s7.5 9.66602 11.5 12.999l101 75c7.33301 5.33301 14.166 8.66602 20.499 9.99902s11.166 2 14.499 2c14 0 25.333 -3.83301 34 -11.5s13 -18.167 13 -31.5v-266zM612.002 670.004c6.66699 8.66699 13.001 14.168 19.001 16.501
s12.333 3.5 19 3.5c11.333 0 21.333 -4.16699 30 -12.5s13 -19.166 13 -32.499c0 -6 -1.16699 -11.333 -3.5 -16s-5.83301 -9.66699 -10.5 -15l-477 -601c-6.66699 -8 -13.334 -13.5 -20.001 -16.5s-12.667 -4.5 -18 -4.5c-14 0 -24.833 4.66699 -32.5 14
s-11.5 19.333 -11.5 30c0 7.33301 1.16699 13.166 3.5 17.499s5.5 9.16602 9.5 14.499zM735.003 133.005c12 0 21.999 -2.16797 29.999 -6.50098s12 -13.166 12 -26.499s-4 -22.333 -12 -27s-17.667 -7 -29 -7h-16v-23c0 -13.333 -4.33301 -23.833 -13 -31.5
s-20 -11.5 -34 -11.5c-13.333 0 -24.333 3.83301 -33 11.5s-13 18.167 -13 31.5v23h-143c-12 0 -21.5 3.5 -28.5 10.5s-10.5 16.167 -10.5 27.5c0 5.33301 1.16699 11 3.5 17s6.5 12.333 12.5 19l149 184c9.33301 11.333 18.833 18.833 28.5 22.5s20.834 5.5 33.501 5.5
c13.333 0 24.833 -3.83301 34.5 -11.5s14.5 -18.167 14.5 -31.5v-176h14zM627.002 133.004v121l-95 -121h95z" />
    <glyph glyph-name="onehalf" unicode="&#xbd;" horiz-adv-x="784" 
d="M252 386c0 -12 -4.49805 -22.1631 -13.498 -30.4961s-20.167 -12.5 -33.5 -12.5s-24.5 3.66699 -33.5 11s-13.5 17.666 -13.5 30.999v177l-29 -20c-4 -2 -8.83301 -4 -14.5 -6s-11.5 -3 -17.5 -3c-12 0 -22.5 4.16699 -31.5 12.5s-13.5 18.5 -13.5 30.5
c0 7.33301 1.83301 13.666 5.5 18.999s7.5 9.66602 11.5 12.999l101 75c7.33301 5.33301 14.166 8.66602 20.499 9.99902s11.166 2 14.499 2c14 0 25.333 -3.83301 34 -11.5s13 -18.167 13 -31.5v-266zM577.002 670.004c6.66699 8.66699 13.001 14.168 19.001 16.501
s12.333 3.5 19 3.5c11.333 0 21.333 -4.16699 30 -12.5s13 -19.166 13 -32.499c0 -6 -1.16699 -11.333 -3.5 -16s-5.83301 -9.66699 -10.5 -15l-477 -601c-6.66699 -8 -13.334 -13.5 -20.001 -16.5s-12.667 -4.5 -18 -4.5c-14 0 -24.833 4.66699 -32.5 14
s-11.5 19.333 -11.5 30c0 7.33301 1.16699 13.166 3.5 17.499s5.5 9.16602 9.5 14.499zM597.003 172.005c20.667 17.333 34.667 31.3311 42 41.998s11 20.667 11 30c0 8 -3.5 15 -10.5 21s-17.5 9 -31.5 9c-13.333 0 -24 -2.33301 -32 -7s-14.667 -10.667 -20 -18
c-12 -14 -26.333 -21 -43 -21c-12 0.666992 -22.333 4.33398 -31 11.001s-13 17.667 -13 33c0 10.667 3.33301 21 10 31s16.167 19 28.5 27s27.166 14.5 44.499 19.5s36.333 7.5 57 7.5c41.333 0 74.833 -9.66699 100.5 -29s38.5 -46.333 38.5 -81
c0 -20.667 -5.66699 -39.5 -17 -56.5s-29.666 -35.167 -54.999 -54.5l-64 -54h102c14 0 25.333 -3.83301 34 -11.5s13 -17.5 13 -29.5c0 -12.667 -4.33301 -22.667 -13 -30s-20 -11 -34 -11h-195c-4 0 -8.83301 0.666992 -14.5 2s-11 3.5 -16 6.5s-9.33301 7.16699 -13 12.5
s-5.5 12 -5.5 20c0 6.66699 1.66699 13.334 5 20.001s7 12 11 16z" />
    <glyph glyph-name="threequarters" unicode="&#xbe;" horiz-adv-x="784" 
d="M179 560c12 0 21.168 2.83203 27.501 8.49902s9.5 12.834 9.5 21.501c0 9.33301 -3.83301 16.666 -11.5 21.999s-18.167 8 -31.5 8c-14 0 -25.667 -1.83301 -35 -5.5s-18 -8.16699 -26 -13.5c-9.33301 -5.33301 -18.333 -8 -27 -8c-10.667 0 -20.334 3.5 -29.001 10.5
s-13 16.167 -13 27.5c0 14 8 27 24 39c6 4.66699 18.167 10.834 36.5 18.501s42.5 11.5 72.5 11.5c22.667 0 42.667 -2.66699 60 -8s32 -12.333 44 -21s21 -18.667 27 -30s9 -23 9 -35c0 -15.333 -5 -30.166 -15 -44.499s-24.333 -24.5 -43 -30.5
c24.667 -4 42.667 -14 54 -30s17 -31.667 17 -47c0 -17.333 -3.83301 -33.166 -11.5 -47.499s-18.5 -26.5 -32.5 -36.5s-30.5 -17.833 -49.5 -23.5s-39.5 -8.5 -61.5 -8.5c-25.333 0 -47.333 2.16699 -66 6.5s-36 12.166 -52 23.499c-15.333 11.333 -23 24 -23 38
c0 11.333 4.5 20.833 13.5 28.5s20.167 11.5 33.5 11.5c8 0 15.667 -2 23 -6c11.333 -7.33301 21.5 -12.833 30.5 -16.5s21.167 -5.5 36.5 -5.5c21.333 0 37 3.16699 47 9.5s15 14.833 15 25.5c0 22.667 -16.667 34 -50 34h-20c-12.667 0 -23.5 3.16699 -32.5 9.5
s-13.5 15.5 -13.5 27.5c0 13.333 5 22.666 15 27.999s22.333 8 37 8h11zM633.001 669.999c6.66699 8.66699 13.001 14.168 19.001 16.501s12.333 3.5 19 3.5c11.333 0 21.333 -4.16699 30 -12.5s13 -19.166 13 -32.499c0 -6 -1.16699 -11.333 -3.5 -16
s-5.83301 -9.66699 -10.5 -15l-477 -601c-6.66699 -8 -13.334 -13.5 -20.001 -16.5s-12.667 -4.5 -18 -4.5c-14 0 -24.833 4.66699 -32.5 14s-11.5 19.333 -11.5 30c0 7.33301 1.16699 13.166 3.5 17.499s5.5 9.16602 9.5 14.499zM735.002 133
c12 0 21.999 -2.16797 29.999 -6.50098s12 -13.166 12 -26.499s-4 -22.333 -12 -27s-17.667 -7 -29 -7h-16v-23c0 -13.333 -4.33301 -23.833 -13 -31.5s-20 -11.5 -34 -11.5c-13.333 -0 -24.333 3.83301 -33 11.5s-13 18.167 -13 31.5v23h-143c-12 0 -21.5 3.5 -28.5 10.5
s-10.5 16.167 -10.5 27.5c0 5.33301 1.16699 11 3.5 17s6.5 12.333 12.5 19l149 184c9.33301 11.333 18.833 18.833 28.5 22.5s20.834 5.5 33.501 5.5c13.333 0 24.833 -3.83301 34.5 -11.5s14.5 -18.167 14.5 -31.5v-176h14zM627.001 132.999v121l-95 -121h95z" />
    <glyph glyph-name="questiondown" unicode="&#xbf;" horiz-adv-x="552" 
d="M363 160c0 -17.333 -5.33008 -31.3359 -15.9971 -42.0029s-23.667 -17.667 -39 -21c-37.333 -8.66699 -64.5 -20 -81.5 -34s-25.5 -32.333 -25.5 -55c0 -20 6.66699 -36.667 20 -50s34 -20 62 -20c34 0 63.333 15 88 45c9.33301 11.333 18.166 20.666 26.499 27.999
s19.5 11 33.5 11c19.333 0 33.666 -5.5 42.999 -16.5s14 -24.5 14 -40.5c0 -17.333 -3.33301 -31.666 -10 -42.999s-13 -20.666 -19 -27.999c-18.667 -21.333 -42.334 -39.166 -71.001 -53.499s-65 -21.5 -109 -21.5c-30 0 -57.667 3.83301 -83 11.5s-47 19.334 -65 35.001
s-32 35 -42 58s-15 49.833 -15 80.5c0 50.667 15.167 90.5 45.5 119.5s71.5 51.833 123.5 68.5v61c0 17.333 5.33301 31.166 16 41.499s25.334 15.5 44.001 15.5c19.333 0 34.166 -5.16699 44.499 -15.5s15.5 -24.166 15.5 -41.499v-93zM303.003 369.997
c-21.333 0 -39.333 6.66699 -54 20s-22 31.666 -22 54.999s7.33301 41.5 22 54.5s32.667 19.5 54 19.5c22 0 39.833 -6.5 53.5 -19.5s20.5 -31.167 20.5 -54.5s-6.83301 -41.666 -20.5 -54.999s-31.5 -20 -53.5 -20z" />
    <glyph glyph-name="Agrave" unicode="&#xc0;" horiz-adv-x="690" 
d="M486 155l-285.997 0.00195312l-46 -116c-6 -14.667 -13.667 -24.834 -23 -30.501s-21 -8.5 -35 -8.5c-18.667 0 -33.667 5 -45 15s-17 23.333 -17 40c0 7.33301 0.833008 14.166 2.5 20.499s4.5 14.166 8.5 23.499l228 536c7.33301 17.333 16.666 30.833 27.999 40.5
s26 14.5 44 14.5s32.833 -4.83301 44.5 -14.5s21.167 -23.167 28.5 -40.5l228 -536c6.66699 -15.333 10 -28 10 -38c0 -18.667 -6.33301 -33.5 -19 -44.5s-28.334 -16.5 -47.001 -16.5c-15.333 0 -27.833 3.83301 -37.5 11.5s-17.834 19.834 -24.501 36.501z
M241.003 259.002h204l-102 258zM440.003 819.002c11.333 -10.667 17 -22 17 -34c0 -9.33301 -3.5 -18.166 -10.5 -26.499s-16.167 -12.5 -27.5 -12.5c-6 0 -14.333 3.33301 -25 10l-133 89c-14 9.33301 -21 23.666 -21 42.999c0 13.333 5.33301 25.333 16 36s23 16 37 16
c8.66699 0 16.5 -2 23.5 -6s13.167 -8.66699 18.5 -14z" />
    <glyph glyph-name="Aacute" unicode="&#xc1;" horiz-adv-x="690" 
d="M486 155l-285.997 0.00195312l-46 -116c-6 -14.667 -13.667 -24.834 -23 -30.501s-21 -8.5 -35 -8.5c-18.667 0 -33.667 5 -45 15s-17 23.333 -17 40c0 7.33301 0.833008 14.166 2.5 20.499s4.5 14.166 8.5 23.499l228 536c7.33301 17.333 16.666 30.833 27.999 40.5
s26 14.5 44 14.5s32.833 -4.83301 44.5 -14.5s21.167 -23.167 28.5 -40.5l228 -536c6.66699 -15.333 10 -28 10 -38c0 -18.667 -6.33301 -33.5 -19 -44.5s-28.334 -16.5 -47.001 -16.5c-15.333 0 -27.833 3.83301 -37.5 11.5s-17.834 19.834 -24.501 36.501z
M241.003 259.002h204l-102 258zM361.003 920.002c5.33301 5.33301 11.499 10.001 18.499 14.001s14.833 6 23.5 6c14 0 26.5 -5.33301 37.5 -16s16.5 -22.667 16.5 -36c0 -18.667 -7.33301 -33 -22 -43l-133 -89c-9.33301 -6.66699 -17.666 -10 -24.999 -10
c-11.333 0 -20.333 4.16699 -27 12.5s-10 17.166 -10 26.499c0 12 5.33301 23.333 16 34z" />
    <glyph glyph-name="Acircumflex" unicode="&#xc2;" horiz-adv-x="690" 
d="M486 155l-285.997 0.00195312l-46 -116c-6 -14.667 -13.667 -24.834 -23 -30.501s-21 -8.5 -35 -8.5c-18.667 0 -33.667 5 -45 15s-17 23.333 -17 40c0 7.33301 0.833008 14.166 2.5 20.499s4.5 14.166 8.5 23.499l228 536c7.33301 17.333 16.666 30.833 27.999 40.5
s26 14.5 44 14.5s32.833 -4.83301 44.5 -14.5s21.167 -23.167 28.5 -40.5l228 -536c6.66699 -15.333 10 -28 10 -38c0 -18.667 -6.33301 -33.5 -19 -44.5s-28.334 -16.5 -47.001 -16.5c-15.333 0 -27.833 3.83301 -37.5 11.5s-17.834 19.834 -24.501 36.501z
M241.003 259.002h204l-102 258zM494.003 810.002c5.33301 -5.33301 9.33203 -10.501 11.999 -15.501s4 -10.167 4 -15.5c0 -7.33301 -3 -14.666 -9 -21.999s-13.667 -11 -23 -11c-3.33301 0 -6.83301 0.5 -10.5 1.5s-8.5 3.5 -14.5 7.5l-103 74l-103 -74
c-6 -3.33301 -10.833 -5.66602 -14.5 -6.99902s-6.83398 -2 -9.50098 -2c-9.33301 0 -17.166 3.66699 -23.499 11s-9.5 14.666 -9.5 21.999c0 5.33301 1.33301 10.5 4 15.5s6.66699 10.167 12 15.5l109 113c4.66699 5.33301 9.66699 9.5 15 12.5s12.333 4.5 21 4.5
c8 0 14.833 -1.66699 20.5 -5s10.834 -7.33301 15.501 -12z" />
    <glyph glyph-name="Atilde" unicode="&#xc3;" horiz-adv-x="690" 
d="M486 155l-285.997 0.00195312l-46 -116c-6 -14.667 -13.667 -24.834 -23 -30.501s-21 -8.5 -35 -8.5c-18.667 0 -33.667 5 -45 15s-17 23.333 -17 40c0 7.33301 0.833008 14.166 2.5 20.499s4.5 14.166 8.5 23.499l228 536c7.33301 17.333 16.666 30.833 27.999 40.5
s26 14.5 44 14.5s32.833 -4.83301 44.5 -14.5s21.167 -23.167 28.5 -40.5l228 -536c6.66699 -15.333 10 -28 10 -38c0 -18.667 -6.33301 -33.5 -19 -44.5s-28.334 -16.5 -47.001 -16.5c-15.333 0 -27.833 3.83301 -37.5 11.5s-17.834 19.834 -24.501 36.501z
M241.003 259.002h204l-102 258zM274.003 908.002c16 0 29.668 -1.83105 41.001 -5.49805s22 -7.83398 32 -12.501s19.833 -8.83398 29.5 -12.501s20.5 -5.5 32.5 -5.5c8.66699 0 16 1.5 22 4.5s12.333 8.5 19 16.5c3.33301 4.66699 7.5 8.83398 12.5 12.501
s11.167 5.5 18.5 5.5c11.333 0 21 -4.5 29 -13.5s12 -20.5 12 -34.5c0 -20.667 -6.33301 -37.667 -19 -51c-9.33301 -11.333 -20 -20 -32 -26s-24.667 -9 -38 -9c-17.333 0 -32.333 2 -45 6s-24.334 8.5 -35.001 13.5s-21 9.66699 -31 14s-21.333 6.5 -34 6.5
c-12 0 -21.833 -2.33301 -29.5 -7s-14.5 -10.667 -20.5 -18c-4 -4.66699 -8.83301 -8.5 -14.5 -11.5s-13.167 -4.5 -22.5 -4.5c-12 0 -21.5 4.16699 -28.5 12.5s-10.5 18.5 -10.5 30.5c0 5.33301 1.33301 12.166 4 20.499s7.33398 16.166 14.001 23.499
c10.667 12.667 23.167 23.334 37.5 32.001s33.166 13 56.499 13z" />
    <glyph glyph-name="Adieresis" unicode="&#xc4;" horiz-adv-x="690" 
d="M486 155l-285.997 0.00195312l-46 -116c-6 -14.667 -13.667 -24.834 -23 -30.501s-21 -8.5 -35 -8.5c-18.667 0 -33.667 5 -45 15s-17 23.333 -17 40c0 7.33301 0.833008 14.166 2.5 20.499s4.5 14.166 8.5 23.499l228 536c7.33301 17.333 16.666 30.833 27.999 40.5
s26 14.5 44 14.5s32.833 -4.83301 44.5 -14.5s21.167 -23.167 28.5 -40.5l228 -536c6.66699 -15.333 10 -28 10 -38c0 -18.667 -6.33301 -33.5 -19 -44.5s-28.334 -16.5 -47.001 -16.5c-15.333 0 -27.833 3.83301 -37.5 11.5s-17.834 19.834 -24.501 36.501z
M241.003 259.002h204l-102 258zM261.003 892.002c16 0 29.667 -5.33301 41 -16s17 -25 17 -43c0 -20 -5.5 -34.667 -16.5 -44s-24.833 -14 -41.5 -14c-17.333 0 -31.333 4.83301 -42 14.5s-16 24.167 -16 43.5c0 18 5.16699 32.333 15.5 43s24.5 16 42.5 16z
M428.003 892.002c16.667 0 30.667 -5.16699 42 -15.5s17 -24.5 17 -42.5c0 -20.667 -5.66699 -35.5 -17 -44.5s-25.333 -13.5 -42 -13.5c-17.333 0 -31.166 4.83301 -41.499 14.5s-15.5 24.167 -15.5 43.5c0 18 5.16699 32.167 15.5 42.5s24.166 15.5 41.499 15.5z" />
    <glyph glyph-name="Aring" unicode="&#xc5;" horiz-adv-x="690" 
d="M486 155l-285.997 0.00195312l-46 -116c-6 -14.667 -13.667 -24.834 -23 -30.501s-21 -8.5 -35 -8.5c-18.667 0 -33.667 5 -45 15s-17 23.333 -17 40c0 7.33301 0.833008 14.166 2.5 20.499s4.5 14.166 8.5 23.499l228 536c7.33301 17.333 16.666 30.833 27.999 40.5
s26 14.5 44 14.5s32.833 -4.83301 44.5 -14.5s21.167 -23.167 28.5 -40.5l228 -536c6.66699 -15.333 10 -28 10 -38c0 -18.667 -6.33301 -33.5 -19 -44.5s-28.334 -16.5 -47.001 -16.5c-15.333 0 -27.833 3.83301 -37.5 11.5s-17.834 19.834 -24.501 36.501z
M241.003 259.002h204l-102 258zM345.003 976.002c33.333 0 60.5 -10.834 81.5 -32.501s31.5 -49.5 31.5 -83.5c0 -33.333 -10.5 -60.666 -31.5 -81.999s-48.167 -32 -81.5 -32c-16 0 -30.833 2.66699 -44.5 8s-25.5 13 -35.5 23s-18 22 -24 36s-9 29.667 -9 47
c0 35.333 10.833 63.5 32.5 84.5s48.5 31.5 80.5 31.5zM345.003 905.001c-14 0 -24.333 -4.5 -31 -13.5s-10 -19.167 -10 -30.5c0 -12 3.66699 -22.167 11 -30.5s17.333 -12.5 30 -12.5c13.333 0 23.5 4.33301 30.5 13s10.5 18.667 10.5 30s-3.5 21.5 -10.5 30.5
s-17.167 13.5 -30.5 13.5z" />
    <glyph glyph-name="AE" unicode="&#xc6;" horiz-adv-x="928" 
d="M833 111c18.667 0 33.166 -5.00293 43.499 -15.0029s15.5 -23.667 15.5 -41s-5.16699 -30.833 -15.5 -40.5s-24.833 -14.5 -43.5 -14.5h-364c-20.667 0 -36.334 5.83301 -47.001 17.5s-16 26.834 -16 45.501v102h-186l-79 -132c-13.333 -22 -30.666 -33 -51.999 -33
c-16 0 -30.833 4.83301 -44.5 14.5s-20.5 24.834 -20.5 45.501c0 6 0.833008 11.833 2.5 17.5s4.83398 11.834 9.50098 18.501l333 547c9.33301 15.333 20.5 27 33.5 35s29.5 12 49.5 12h381c18 0 32.333 -5 43 -15s16 -23.667 16 -41s-5.16699 -31 -15.5 -41
s-24.833 -15 -43.5 -15h-301v-172h192c18 0 32.833 -4.83301 44.5 -14.5s17.5 -23.167 17.5 -40.5s-5.83301 -31 -17.5 -41s-26.5 -15 -44.5 -15h-192v-184h301zM271.999 275.997h134v233z" />
    <glyph glyph-name="Ccedilla" unicode="&#xc7;" horiz-adv-x="688" 
d="M541 486c-11.333 13.333 -22.6621 25.5059 -33.9951 36.5059s-23.5 20.5 -36.5 28.5s-27.333 14.333 -43 19s-33.834 7 -54.501 7c-30 0 -57 -5.66699 -81 -17s-44.5 -27.333 -61.5 -48s-30 -45.5 -39 -74.5s-13.5 -60.833 -13.5 -95.5c0 -34 4.66699 -65 14 -93
s22.666 -52 39.999 -72s38.833 -35.667 64.5 -47s54.5 -17 86.5 -17c36.667 0 67.334 7.33301 92.001 22s48.667 35.667 72 63c11.333 12 25 18 41 18s29 -6.33301 39 -19s15 -25.334 15 -38.001c0 -8 -1.33301 -16.333 -4 -25s-7.66699 -17.667 -15 -27
c-9.33301 -11.333 -20.833 -23.5 -34.5 -36.5s-30.334 -25.333 -50.001 -37s-42 -21.5 -67 -29.5s-53.167 -12.667 -84.5 -14v-23c9.33301 -1.33301 18.666 -3.83301 27.999 -7.5s17.666 -8.83398 24.999 -15.501s13.333 -15 18 -25s7 -22.333 7 -37
c0 -17.333 -3.33301 -32.5 -10 -45.5s-15.334 -23.833 -26.001 -32.5s-22.667 -15.167 -36 -19.5s-27 -6.5 -41 -6.5c-21.333 0 -36.166 3.33301 -44.499 10s-12.5 16.667 -12.5 30c0 15.333 4.5 25 13.5 29s17.5 6 25.5 6c27.333 0 41 8.66699 41 26
c0 8.66699 -3.16699 14.667 -9.5 18s-16.5 6 -30.5 8c-6.66699 1.33301 -11.334 3.16602 -14.001 5.49902s-4 7.5 -4 15.5v68c-40 6 -76.5 18.667 -109.5 38s-61.333 44 -85 74s-41.834 65 -54.501 105s-19 84 -19 132c0 52.667 7.83301 101 23.5 145
s37.834 81.667 66.501 113s62.834 55.666 102.501 72.999s83.5 26 131.5 26c37.333 0 70.5 -4.66699 99.5 -14s54 -20.5 75 -33.5s38.167 -26.333 51.5 -40s23 -24.834 29 -33.501c5.33301 -8.66699 9.33301 -17.5 12 -26.5s4 -17.167 4 -24.5
c0 -10 -1.83301 -18.833 -5.5 -26.5s-8.5 -14 -14.5 -19s-12.5 -8.66699 -19.5 -11s-13.5 -3.5 -19.5 -3.5c-7.33301 0 -14.833 1.16699 -22.5 3.5s-14.834 7.16602 -21.501 14.499z" />
    <glyph glyph-name="Egrave" unicode="&#xc8;" horiz-adv-x="596" 
d="M504 111c18 0 32.167 -4.83496 42.5 -14.502s15.5 -23.167 15.5 -40.5s-5.16699 -31 -15.5 -41s-24.5 -15 -42.5 -15h-365c-20 0 -35.5 5.83301 -46.5 17.5s-16.5 26.834 -16.5 45.501v564c0 18.667 5.5 33.834 16.5 45.501s26.833 17.5 47.5 17.5h363
c18 0 32.333 -5 43 -15s16 -23.667 16 -41s-5.33301 -31 -16 -41s-25 -15 -43 -15h-301v-172h192c18 0 32.833 -4.83301 44.5 -14.5s17.5 -23.167 17.5 -40.5s-5.83301 -31 -17.5 -41s-26.5 -15 -44.5 -15h-192v-184h302zM415 818.998c11.333 -10.667 17 -22 17 -34
c0 -9.33301 -3.5 -18.166 -10.5 -26.499s-16.167 -12.5 -27.5 -12.5c-6 0 -14.333 3.33301 -25 10l-133 89c-14 9.33301 -21 23.666 -21 42.999c0 13.333 5.33301 25.333 16 36s23 16 37 16c8.66699 0 16.5 -2 23.5 -6s13.167 -8.66699 18.5 -14z" />
    <glyph glyph-name="Eacute" unicode="&#xc9;" horiz-adv-x="596" 
d="M504 111c18 0 32.167 -4.83496 42.5 -14.502s15.5 -23.167 15.5 -40.5s-5.16699 -31 -15.5 -41s-24.5 -15 -42.5 -15h-365c-20 0 -35.5 5.83301 -46.5 17.5s-16.5 26.834 -16.5 45.501v564c0 18.667 5.5 33.834 16.5 45.501s26.833 17.5 47.5 17.5h363
c18 0 32.333 -5 43 -15s16 -23.667 16 -41s-5.33301 -31 -16 -41s-25 -15 -43 -15h-301v-172h192c18 0 32.833 -4.83301 44.5 -14.5s17.5 -23.167 17.5 -40.5s-5.83301 -31 -17.5 -41s-26.5 -15 -44.5 -15h-192v-184h302zM336 919.998
c5.33301 5.33301 11.499 10.001 18.499 14.001s14.833 6 23.5 6c14 0 26.5 -5.33301 37.5 -16s16.5 -22.667 16.5 -36c0 -18.667 -7.33301 -33 -22 -43l-133 -89c-9.33301 -6.66699 -17.666 -10 -24.999 -10c-11.333 0 -20.333 4.16699 -27 12.5s-10 17.166 -10 26.499
c0 12 5.33301 23.333 16 34z" />
    <glyph glyph-name="Ecircumflex" unicode="&#xca;" horiz-adv-x="596" 
d="M504 111c18 0 32.167 -4.83496 42.5 -14.502s15.5 -23.167 15.5 -40.5s-5.16699 -31 -15.5 -41s-24.5 -15 -42.5 -15h-365c-20 0 -35.5 5.83301 -46.5 17.5s-16.5 26.834 -16.5 45.501v564c0 18.667 5.5 33.834 16.5 45.501s26.833 17.5 47.5 17.5h363
c18 0 32.333 -5 43 -15s16 -23.667 16 -41s-5.33301 -31 -16 -41s-25 -15 -43 -15h-301v-172h192c18 0 32.833 -4.83301 44.5 -14.5s17.5 -23.167 17.5 -40.5s-5.83301 -31 -17.5 -41s-26.5 -15 -44.5 -15h-192v-184h302zM469 809.998
c5.33301 -5.33301 9.33203 -10.501 11.999 -15.501s4 -10.167 4 -15.5c0 -7.33301 -3 -14.666 -9 -21.999s-13.667 -11 -23 -11c-3.33301 0 -6.83301 0.5 -10.5 1.5s-8.5 3.5 -14.5 7.5l-103 74l-103 -74c-6 -3.33301 -10.833 -5.66602 -14.5 -6.99902
s-6.83398 -2 -9.50098 -2c-9.33301 0 -17.166 3.66699 -23.499 11s-9.5 14.666 -9.5 21.999c0 5.33301 1.33301 10.5 4 15.5s6.66699 10.167 12 15.5l109 113c4.66699 5.33301 9.66699 9.5 15 12.5s12.333 4.5 21 4.5c8 0 14.833 -1.66699 20.5 -5
s10.834 -7.33301 15.501 -12z" />
    <glyph glyph-name="Edieresis" unicode="&#xcb;" horiz-adv-x="596" 
d="M504 111c18 0 32.167 -4.83496 42.5 -14.502s15.5 -23.167 15.5 -40.5s-5.16699 -31 -15.5 -41s-24.5 -15 -42.5 -15h-365c-20 0 -35.5 5.83301 -46.5 17.5s-16.5 26.834 -16.5 45.501v564c0 18.667 5.5 33.834 16.5 45.501s26.833 17.5 47.5 17.5h363
c18 0 32.333 -5 43 -15s16 -23.667 16 -41s-5.33301 -31 -16 -41s-25 -15 -43 -15h-301v-172h192c18 0 32.833 -4.83301 44.5 -14.5s17.5 -23.167 17.5 -40.5s-5.83301 -31 -17.5 -41s-26.5 -15 -44.5 -15h-192v-184h302zM236 891.998c16 0 29.667 -5.33301 41 -16
s17 -25 17 -43c0 -20 -5.5 -34.667 -16.5 -44s-24.833 -14 -41.5 -14c-17.333 0 -31.333 4.83301 -42 14.5s-16 24.167 -16 43.5c0 18 5.16699 32.333 15.5 43s24.5 16 42.5 16zM403 891.998c16.667 0 30.667 -5.16699 42 -15.5s17 -24.5 17 -42.5
c0 -20.667 -5.66699 -35.5 -17 -44.5s-25.333 -13.5 -42 -13.5c-17.333 0 -31.166 4.83301 -41.499 14.5s-15.5 24.167 -15.5 43.5c0 18 5.16699 32.167 15.5 42.5s24.166 15.5 41.499 15.5z" />
    <glyph glyph-name="Igrave" unicode="&#xcc;" horiz-adv-x="278" 
d="M76 627c0 18.667 5.83301 33.834 17.5 45.501s26.834 17.5 45.501 17.5s33.834 -5.83301 45.501 -17.5s17.5 -26.834 17.5 -45.501v-564c0 -18.667 -5.83301 -33.834 -17.5 -45.501s-26.834 -17.5 -45.501 -17.5s-33.834 5.83301 -45.501 17.5s-17.5 26.834 -17.5 45.501
v564zM234 819c11.333 -10.667 17 -22 17 -34c0 -9.33301 -3.5 -18.166 -10.5 -26.499s-16.167 -12.5 -27.5 -12.5c-6 0 -14.333 3.33301 -25 10l-133 89c-14 9.33301 -21 23.666 -21 42.999c0 13.333 5.33301 25.333 16 36s23 16 37 16c8.66699 0 16.5 -2 23.5 -6
s13.167 -8.66699 18.5 -14z" />
    <glyph glyph-name="Iacute" unicode="&#xcd;" horiz-adv-x="278" 
d="M76 627c0 18.667 5.83301 33.834 17.5 45.501s26.834 17.5 45.501 17.5s33.834 -5.83301 45.501 -17.5s17.5 -26.834 17.5 -45.501v-564c0 -18.667 -5.83301 -33.834 -17.5 -45.501s-26.834 -17.5 -45.501 -17.5s-33.834 5.83301 -45.501 17.5s-17.5 26.834 -17.5 45.501
v564zM155 920c5.33301 5.33301 11.499 10.001 18.499 14.001s14.833 6 23.5 6c14 0 26.5 -5.33301 37.5 -16s16.5 -22.667 16.5 -36c0 -18.667 -7.33301 -33 -22 -43l-133 -89c-9.33301 -6.66699 -17.666 -10 -24.999 -10c-11.333 0 -20.333 4.16699 -27 12.5
s-10 17.166 -10 26.499c0 12 5.33301 23.333 16 34z" />
    <glyph glyph-name="Icircumflex" unicode="&#xce;" horiz-adv-x="278" 
d="M76 627c0 18.667 5.83301 33.834 17.5 45.501s26.834 17.5 45.501 17.5s33.834 -5.83301 45.501 -17.5s17.5 -26.834 17.5 -45.501v-564c0 -18.667 -5.83301 -33.834 -17.5 -45.501s-26.834 -17.5 -45.501 -17.5s-33.834 5.83301 -45.501 17.5s-17.5 26.834 -17.5 45.501
v564zM288 810c5.33301 -5.33301 9.33203 -10.501 11.999 -15.501s4 -10.167 4 -15.5c0 -7.33301 -3 -14.666 -9 -21.999s-13.667 -11 -23 -11c-3.33301 0 -6.83301 0.5 -10.5 1.5s-8.5 3.5 -14.5 7.5l-103 74l-103 -74c-6 -3.33301 -10.833 -5.66602 -14.5 -6.99902
s-6.83398 -2 -9.50098 -2c-9.33301 0 -17.166 3.66699 -23.499 11s-9.5 14.666 -9.5 21.999c0 5.33301 1.33301 10.5 4 15.5s6.66699 10.167 12 15.5l109 113c4.66699 5.33301 9.66699 9.5 15 12.5s12.333 4.5 21 4.5c8 0 14.833 -1.66699 20.5 -5
s10.834 -7.33301 15.501 -12z" />
    <glyph glyph-name="Idieresis" unicode="&#xcf;" horiz-adv-x="278" 
d="M76 627c0 18.667 5.83301 33.834 17.5 45.501s26.834 17.5 45.501 17.5s33.834 -5.83301 45.501 -17.5s17.5 -26.834 17.5 -45.501v-564c0 -18.667 -5.83301 -33.834 -17.5 -45.501s-26.834 -17.5 -45.501 -17.5s-33.834 5.83301 -45.501 17.5s-17.5 26.834 -17.5 45.501
v564zM55 892c16 0 29.667 -5.33301 41 -16s17 -25 17 -43c0 -20 -5.5 -34.667 -16.5 -44s-24.833 -14 -41.5 -14c-17.333 0 -31.333 4.83301 -42 14.5s-16 24.167 -16 43.5c0 18 5.16699 32.333 15.5 43s24.5 16 42.5 16zM222 892c16.667 0 30.667 -5.16699 42 -15.5
s17 -24.5 17 -42.5c0 -20.667 -5.66699 -35.5 -17 -44.5s-25.333 -13.5 -42 -13.5c-17.333 0 -31.166 4.83301 -41.499 14.5s-15.5 24.167 -15.5 43.5c0 18 5.16699 32.167 15.5 42.5s24.166 15.5 41.499 15.5z" />
    <glyph glyph-name="Eth" unicode="&#xd0;" horiz-adv-x="695" 
d="M335 690c46.667 0 89.168 -8.16309 127.501 -24.4961s71.166 -39.5 98.499 -69.5s48.333 -66 63 -108s22 -88.667 22 -140c0 -50.667 -7.66699 -97.334 -23 -140.001s-36.666 -79.334 -63.999 -110.001s-60 -54.667 -98 -72s-80 -26 -126 -26h-196
c-22.667 0 -38.834 5.66699 -48.501 17s-14.5 26.666 -14.5 45.999v236h-22c-17.333 0 -32 5.33301 -44 16s-18 25.334 -18 44.001c0 19.333 6 34.166 18 44.499s26.667 15.5 44 15.5h22v208c0 19.333 5.16699 34.666 15.5 45.999s26.5 17 48.5 17h195zM327.001 111.004
c30.667 0 57.832 5.66699 81.499 17s43.5 27.333 59.5 48s28.167 45.5 36.5 74.5s12.5 61.5 12.5 97.5c0 72 -16.667 128.333 -50 169s-81.666 61 -144.999 61h-120v-159h84c17.333 0 32.166 -5.16699 44.499 -15.5s18.5 -25.166 18.5 -44.499
c0 -18.667 -6.16699 -33.334 -18.5 -44.001s-27.166 -16 -44.499 -16h-84v-188h125z" />
    <glyph glyph-name="Ntilde" unicode="&#xd1;" horiz-adv-x="693" 
d="M491 628c0 19.333 6.00098 34.5 18.001 45.5s27 16.5 45 16.5c17.333 0 32.166 -5.5 44.499 -16.5s18.5 -26.167 18.5 -45.5v-567c0 -17.333 -5.16699 -31.833 -15.5 -43.5s-25.166 -17.5 -44.499 -17.5c-12 0 -22.5 2.16699 -31.5 6.5s-17.833 11.833 -26.5 22.5
l-297 402v-370c0 -19.333 -6 -34.333 -18 -45s-27 -16 -45 -16s-33 5.33301 -45 16s-18 25.667 -18 45v559c0 18.667 4.66699 35 14 49s25.333 21 48 21c10 0 19.667 -2.16699 29 -6.5s17.666 -11.833 24.999 -22.5l299 -421v388zM275.001 908
c16 0 29.668 -1.83105 41.001 -5.49805s22 -7.83398 32 -12.501s19.833 -8.83398 29.5 -12.501s20.5 -5.5 32.5 -5.5c8.66699 0 16 1.5 22 4.5s12.333 8.5 19 16.5c3.33301 4.66699 7.5 8.83398 12.5 12.501s11.167 5.5 18.5 5.5c11.333 0 21 -4.5 29 -13.5
s12 -20.5 12 -34.5c0 -20.667 -6.33301 -37.667 -19 -51c-9.33301 -11.333 -20 -20 -32 -26s-24.667 -9 -38 -9c-17.333 0 -32.333 2 -45 6s-24.334 8.5 -35.001 13.5s-21 9.66699 -31 14s-21.333 6.5 -34 6.5c-12 0 -21.833 -2.33301 -29.5 -7s-14.5 -10.667 -20.5 -18
c-4 -4.66699 -8.83301 -8.5 -14.5 -11.5s-13.167 -4.5 -22.5 -4.5c-12 0 -21.5 4.16699 -28.5 12.5s-10.5 18.5 -10.5 30.5c0 5.33301 1.33301 12.166 4 20.499s7.33398 16.166 14.001 23.499c10.667 12.667 23.167 23.334 37.5 32.001s33.166 13 56.499 13z" />
    <glyph glyph-name="Ograve" unicode="&#xd2;" horiz-adv-x="751" 
d="M375 700c48.667 0 93 -8.5 133 -25.5s74.333 -41 103 -72s51 -68.333 67 -112s24 -92.167 24 -145.5s-8 -101.666 -24 -144.999s-38.333 -80.666 -67 -111.999s-63 -55.5 -103 -72.5s-84.333 -25.5 -133 -25.5c-48 0 -92 8.5 -132 25.5s-74.333 41.167 -103 72.5
s-51 68.666 -67 111.999s-24 91.666 -24 144.999s8 101.833 24 145.5s38.333 81 67 112s63 55 103 72s84 25.5 132 25.5zM375 577c-30 0 -57.168 -5.66699 -81.501 -17s-45 -27.166 -62 -47.499s-30.167 -44.666 -39.5 -72.999s-14 -59.833 -14 -94.5
c0 -34 4.66699 -65.333 14 -94s22.666 -53.167 39.999 -73.5s38 -36.166 62 -47.499s51 -17 81 -17s57.333 5.66699 82 17s45.5 27.166 62.5 47.499s30.167 44.833 39.5 73.5s14 60 14 94c0 34.667 -4.66699 66.167 -14 94.5s-22.666 52.666 -39.999 72.999
s-38.166 36.166 -62.499 47.499s-51.5 17 -81.5 17zM469.999 819c11.333 -10.667 17 -22 17 -34c0 -9.33301 -3.5 -18.166 -10.5 -26.499s-16.167 -12.5 -27.5 -12.5c-6 0 -14.333 3.33301 -25 10l-133 89c-14 9.33301 -21 23.666 -21 42.999c0 13.333 5.33301 25.333 16 36
s23 16 37 16c8.66699 0 16.5 -2 23.5 -6s13.167 -8.66699 18.5 -14z" />
    <glyph glyph-name="Oacute" unicode="&#xd3;" horiz-adv-x="751" 
d="M375 700c48.667 0 93 -8.5 133 -25.5s74.333 -41 103 -72s51 -68.333 67 -112s24 -92.167 24 -145.5s-8 -101.666 -24 -144.999s-38.333 -80.666 -67 -111.999s-63 -55.5 -103 -72.5s-84.333 -25.5 -133 -25.5c-48 0 -92 8.5 -132 25.5s-74.333 41.167 -103 72.5
s-51 68.666 -67 111.999s-24 91.666 -24 144.999s8 101.833 24 145.5s38.333 81 67 112s63 55 103 72s84 25.5 132 25.5zM375 577c-30 0 -57.168 -5.66699 -81.501 -17s-45 -27.166 -62 -47.499s-30.167 -44.666 -39.5 -72.999s-14 -59.833 -14 -94.5
c0 -34 4.66699 -65.333 14 -94s22.666 -53.167 39.999 -73.5s38 -36.166 62 -47.499s51 -17 81 -17s57.333 5.66699 82 17s45.5 27.166 62.5 47.499s30.167 44.833 39.5 73.5s14 60 14 94c0 34.667 -4.66699 66.167 -14 94.5s-22.666 52.666 -39.999 72.999
s-38.166 36.166 -62.499 47.499s-51.5 17 -81.5 17zM390.999 920c5.33301 5.33301 11.499 10.001 18.499 14.001s14.833 6 23.5 6c14 0 26.5 -5.33301 37.5 -16s16.5 -22.667 16.5 -36c0 -18.667 -7.33301 -33 -22 -43l-133 -89c-9.33301 -6.66699 -17.666 -10 -24.999 -10
c-11.333 0 -20.333 4.16699 -27 12.5s-10 17.166 -10 26.499c0 12 5.33301 23.333 16 34z" />
    <glyph glyph-name="Ocircumflex" unicode="&#xd4;" horiz-adv-x="751" 
d="M375 700c48.667 0 93 -8.5 133 -25.5s74.333 -41 103 -72s51 -68.333 67 -112s24 -92.167 24 -145.5s-8 -101.666 -24 -144.999s-38.333 -80.666 -67 -111.999s-63 -55.5 -103 -72.5s-84.333 -25.5 -133 -25.5c-48 0 -92 8.5 -132 25.5s-74.333 41.167 -103 72.5
s-51 68.666 -67 111.999s-24 91.666 -24 144.999s8 101.833 24 145.5s38.333 81 67 112s63 55 103 72s84 25.5 132 25.5zM375 577c-30 0 -57.168 -5.66699 -81.501 -17s-45 -27.166 -62 -47.499s-30.167 -44.666 -39.5 -72.999s-14 -59.833 -14 -94.5
c0 -34 4.66699 -65.333 14 -94s22.666 -53.167 39.999 -73.5s38 -36.166 62 -47.499s51 -17 81 -17s57.333 5.66699 82 17s45.5 27.166 62.5 47.499s30.167 44.833 39.5 73.5s14 60 14 94c0 34.667 -4.66699 66.167 -14 94.5s-22.666 52.666 -39.999 72.999
s-38.166 36.166 -62.499 47.499s-51.5 17 -81.5 17zM523.999 810c5.33301 -5.33301 9.33203 -10.501 11.999 -15.501s4 -10.167 4 -15.5c0 -7.33301 -3 -14.666 -9 -21.999s-13.667 -11 -23 -11c-3.33301 0 -6.83301 0.5 -10.5 1.5s-8.5 3.5 -14.5 7.5l-103 74l-103 -74
c-6 -3.33301 -10.833 -5.66602 -14.5 -6.99902s-6.83398 -2 -9.50098 -2c-9.33301 0 -17.166 3.66699 -23.499 11s-9.5 14.666 -9.5 21.999c0 5.33301 1.33301 10.5 4 15.5s6.66699 10.167 12 15.5l109 113c4.66699 5.33301 9.66699 9.5 15 12.5s12.333 4.5 21 4.5
c8 0 14.833 -1.66699 20.5 -5s10.834 -7.33301 15.501 -12z" />
    <glyph glyph-name="Otilde" unicode="&#xd5;" horiz-adv-x="751" 
d="M375 700c48.667 0 93 -8.5 133 -25.5s74.333 -41 103 -72s51 -68.333 67 -112s24 -92.167 24 -145.5s-8 -101.666 -24 -144.999s-38.333 -80.666 -67 -111.999s-63 -55.5 -103 -72.5s-84.333 -25.5 -133 -25.5c-48 0 -92 8.5 -132 25.5s-74.333 41.167 -103 72.5
s-51 68.666 -67 111.999s-24 91.666 -24 144.999s8 101.833 24 145.5s38.333 81 67 112s63 55 103 72s84 25.5 132 25.5zM375 577c-30 0 -57.168 -5.66699 -81.501 -17s-45 -27.166 -62 -47.499s-30.167 -44.666 -39.5 -72.999s-14 -59.833 -14 -94.5
c0 -34 4.66699 -65.333 14 -94s22.666 -53.167 39.999 -73.5s38 -36.166 62 -47.499s51 -17 81 -17s57.333 5.66699 82 17s45.5 27.166 62.5 47.499s30.167 44.833 39.5 73.5s14 60 14 94c0 34.667 -4.66699 66.167 -14 94.5s-22.666 52.666 -39.999 72.999
s-38.166 36.166 -62.499 47.499s-51.5 17 -81.5 17zM303.999 908c16 0 29.668 -1.83105 41.001 -5.49805s22 -7.83398 32 -12.501s19.833 -8.83398 29.5 -12.501s20.5 -5.5 32.5 -5.5c8.66699 0 16 1.5 22 4.5s12.333 8.5 19 16.5c3.33301 4.66699 7.5 8.83398 12.5 12.501
s11.167 5.5 18.5 5.5c11.333 0 21 -4.5 29 -13.5s12 -20.5 12 -34.5c0 -20.667 -6.33301 -37.667 -19 -51c-9.33301 -11.333 -20 -20 -32 -26s-24.667 -9 -38 -9c-17.333 0 -32.333 2 -45 6s-24.334 8.5 -35.001 13.5s-21 9.66699 -31 14s-21.333 6.5 -34 6.5
c-12 0 -21.833 -2.33301 -29.5 -7s-14.5 -10.667 -20.5 -18c-4 -4.66699 -8.83301 -8.5 -14.5 -11.5s-13.167 -4.5 -22.5 -4.5c-12 0 -21.5 4.16699 -28.5 12.5s-10.5 18.5 -10.5 30.5c0 5.33301 1.33301 12.166 4 20.499s7.33398 16.166 14.001 23.499
c10.667 12.667 23.167 23.334 37.5 32.001s33.166 13 56.499 13z" />
    <glyph glyph-name="Odieresis" unicode="&#xd6;" horiz-adv-x="751" 
d="M375 700c48.667 0 93 -8.5 133 -25.5s74.333 -41 103 -72s51 -68.333 67 -112s24 -92.167 24 -145.5s-8 -101.666 -24 -144.999s-38.333 -80.666 -67 -111.999s-63 -55.5 -103 -72.5s-84.333 -25.5 -133 -25.5c-48 0 -92 8.5 -132 25.5s-74.333 41.167 -103 72.5
s-51 68.666 -67 111.999s-24 91.666 -24 144.999s8 101.833 24 145.5s38.333 81 67 112s63 55 103 72s84 25.5 132 25.5zM375 577c-30 0 -57.168 -5.66699 -81.501 -17s-45 -27.166 -62 -47.499s-30.167 -44.666 -39.5 -72.999s-14 -59.833 -14 -94.5
c0 -34 4.66699 -65.333 14 -94s22.666 -53.167 39.999 -73.5s38 -36.166 62 -47.499s51 -17 81 -17s57.333 5.66699 82 17s45.5 27.166 62.5 47.499s30.167 44.833 39.5 73.5s14 60 14 94c0 34.667 -4.66699 66.167 -14 94.5s-22.666 52.666 -39.999 72.999
s-38.166 36.166 -62.499 47.499s-51.5 17 -81.5 17zM290.999 892c16 0 29.667 -5.33301 41 -16s17 -25 17 -43c0 -20 -5.5 -34.667 -16.5 -44s-24.833 -14 -41.5 -14c-17.333 0 -31.333 4.83301 -42 14.5s-16 24.167 -16 43.5c0 18 5.16699 32.333 15.5 43s24.5 16 42.5 16z
M457.999 892c16.667 0 30.667 -5.16699 42 -15.5s17 -24.5 17 -42.5c0 -20.667 -5.66699 -35.5 -17 -44.5s-25.333 -13.5 -42 -13.5c-17.333 0 -31.166 4.83301 -41.499 14.5s-15.5 24.167 -15.5 43.5c0 18 5.16699 32.167 15.5 42.5s24.166 15.5 41.499 15.5z" />
    <glyph glyph-name="multiply" unicode="&#xd7;" 
d="M407 474c10.667 9.33301 21.3301 14 31.9971 14c11.333 0 22 -4.5 32 -13.5s15 -20.167 15 -33.5c0 -12 -4.66699 -22.667 -14 -32l-94 -94l94 -93c9.33301 -9.33301 14 -20.333 14 -33c0 -11.333 -4.16699 -21.833 -12.5 -31.5s-19.166 -14.5 -32.499 -14.5
c-11.333 0 -22.666 4.66699 -33.999 14l-93 94l-94 -93c-10 -10 -20.333 -15 -31 -15c-11.333 0 -22.166 4.33301 -32.499 13s-15.5 19.667 -15.5 33c0 12 5 23 15 33l94 95l-93 93c-10 8.66699 -15 19 -15 31s4.33301 22.833 13 32.5s19.667 14.5 33 14.5
c12 0 22.667 -4.66699 32 -14l94 -94z" />
    <glyph glyph-name="Oslash" unicode="&#xd8;" horiz-adv-x="751" 
d="M609 605c30 -31.333 53 -69.0029 69 -113.003s24 -93 24 -147c0 -53.333 -8 -101.666 -24 -144.999s-38.333 -80.666 -67 -111.999s-63 -55.5 -103 -72.5s-84.333 -25.5 -133 -25.5c-32 0 -61.833 3.66699 -89.5 11s-53.167 17.666 -76.5 30.999l-13 -18
c-7.33301 -9.33301 -14.333 -15.666 -21 -18.999s-13.667 -5 -21 -5c-12.667 0 -23.5 4 -32.5 12s-13.5 18.667 -13.5 32c0 7.33301 1.16699 13.333 3.5 18s4.5 8.66699 6.5 12l19 27c-28 31.333 -49.667 68.333 -65 111s-23 90.334 -23 143.001
c0 53.333 8 101.833 24 145.5s38.333 81 67 112s63 55 103 72s84 25.5 132 25.5c30 0 58.333 -3.33301 85 -10s51.667 -16.334 75 -29.001l13 18c6 8.66699 12.333 14.334 19 17.001s13.667 4 21 4c13.333 0 24.333 -4.33301 33 -13s13 -19 13 -31
c0 -7.33301 -0.833008 -13 -2.5 -17s-3.5 -7.66699 -5.5 -11zM573 344.997c0 30 -3.49902 57.501 -10.499 82.501s-17.167 47.167 -30.5 66.5l-251 -358c27.333 -15.333 58.666 -23 93.999 -23c30 0 57.333 5.66699 82 17s45.5 27.166 62.5 47.499s30.167 44.833 39.5 73.5
s14 60 14 94zM375.001 576.998c-30 0 -57.167 -5.66895 -81.5 -17.002s-45 -27.166 -62 -47.499s-30.167 -44.666 -39.5 -72.999s-14 -59.833 -14 -94.5c0 -56 12 -103.667 36 -143l248 355c-25.333 13.333 -54.333 20 -87 20z" />
    <glyph glyph-name="Ugrave" unicode="&#xd9;" horiz-adv-x="710" 
d="M513 627c0 18.667 5.66406 33.834 16.9971 45.501s26.666 17.5 45.999 17.5c18.667 0 33.834 -5.83301 45.501 -17.5s17.5 -26.834 17.5 -45.501v-358c0 -42 -6.5 -80 -19.5 -114s-31.833 -63.333 -56.5 -88s-54.5 -43.667 -89.5 -57s-74.5 -20 -118.5 -20
s-83.667 6.66699 -119 20s-65.166 32 -89.499 56s-43 52.833 -56 86.5s-19.5 71.167 -19.5 112.5v362c0 18.667 5.83301 33.834 17.5 45.501s26.834 17.5 45.501 17.5s33.834 -5.83301 45.501 -17.5s17.5 -26.834 17.5 -45.501v-343c0 -114 52.667 -171 158 -171
s158 58.333 158 175v339zM449.997 819c11.333 -10.667 17 -22 17 -34c0 -9.33301 -3.5 -18.166 -10.5 -26.499s-16.167 -12.5 -27.5 -12.5c-6 0 -14.333 3.33301 -25 10l-133 89c-14 9.33301 -21 23.666 -21 42.999c0 13.333 5.33301 25.333 16 36s23 16 37 16
c8.66699 0 16.5 -2 23.5 -6s13.167 -8.66699 18.5 -14z" />
    <glyph glyph-name="Uacute" unicode="&#xda;" horiz-adv-x="710" 
d="M513 627c0 18.667 5.66406 33.834 16.9971 45.501s26.666 17.5 45.999 17.5c18.667 0 33.834 -5.83301 45.501 -17.5s17.5 -26.834 17.5 -45.501v-358c0 -42 -6.5 -80 -19.5 -114s-31.833 -63.333 -56.5 -88s-54.5 -43.667 -89.5 -57s-74.5 -20 -118.5 -20
s-83.667 6.66699 -119 20s-65.166 32 -89.499 56s-43 52.833 -56 86.5s-19.5 71.167 -19.5 112.5v362c0 18.667 5.83301 33.834 17.5 45.501s26.834 17.5 45.501 17.5s33.834 -5.83301 45.501 -17.5s17.5 -26.834 17.5 -45.501v-343c0 -114 52.667 -171 158 -171
s158 58.333 158 175v339zM370.997 920c5.33301 5.33301 11.499 10.001 18.499 14.001s14.833 6 23.5 6c14 0 26.5 -5.33301 37.5 -16s16.5 -22.667 16.5 -36c0 -18.667 -7.33301 -33 -22 -43l-133 -89c-9.33301 -6.66699 -17.666 -10 -24.999 -10
c-11.333 0 -20.333 4.16699 -27 12.5s-10 17.166 -10 26.499c0 12 5.33301 23.333 16 34z" />
    <glyph glyph-name="Ucircumflex" unicode="&#xdb;" horiz-adv-x="710" 
d="M513 627c0 18.667 5.66406 33.834 16.9971 45.501s26.666 17.5 45.999 17.5c18.667 0 33.834 -5.83301 45.501 -17.5s17.5 -26.834 17.5 -45.501v-358c0 -42 -6.5 -80 -19.5 -114s-31.833 -63.333 -56.5 -88s-54.5 -43.667 -89.5 -57s-74.5 -20 -118.5 -20
s-83.667 6.66699 -119 20s-65.166 32 -89.499 56s-43 52.833 -56 86.5s-19.5 71.167 -19.5 112.5v362c0 18.667 5.83301 33.834 17.5 45.501s26.834 17.5 45.501 17.5s33.834 -5.83301 45.501 -17.5s17.5 -26.834 17.5 -45.501v-343c0 -114 52.667 -171 158 -171
s158 58.333 158 175v339zM503.997 810c5.33301 -5.33301 9.33203 -10.501 11.999 -15.501s4 -10.167 4 -15.5c0 -7.33301 -3 -14.666 -9 -21.999s-13.667 -11 -23 -11c-3.33301 0 -6.83301 0.5 -10.5 1.5s-8.5 3.5 -14.5 7.5l-103 74l-103 -74
c-6 -3.33301 -10.833 -5.66602 -14.5 -6.99902s-6.83398 -2 -9.50098 -2c-9.33301 0 -17.166 3.66699 -23.499 11s-9.5 14.666 -9.5 21.999c0 5.33301 1.33301 10.5 4 15.5s6.66699 10.167 12 15.5l109 113c4.66699 5.33301 9.66699 9.5 15 12.5s12.333 4.5 21 4.5
c8 0 14.833 -1.66699 20.5 -5s10.834 -7.33301 15.501 -12z" />
    <glyph glyph-name="Udieresis" unicode="&#xdc;" horiz-adv-x="710" 
d="M513 627c0 18.667 5.66406 33.834 16.9971 45.501s26.666 17.5 45.999 17.5c18.667 0 33.834 -5.83301 45.501 -17.5s17.5 -26.834 17.5 -45.501v-358c0 -42 -6.5 -80 -19.5 -114s-31.833 -63.333 -56.5 -88s-54.5 -43.667 -89.5 -57s-74.5 -20 -118.5 -20
s-83.667 6.66699 -119 20s-65.166 32 -89.499 56s-43 52.833 -56 86.5s-19.5 71.167 -19.5 112.5v362c0 18.667 5.83301 33.834 17.5 45.501s26.834 17.5 45.501 17.5s33.834 -5.83301 45.501 -17.5s17.5 -26.834 17.5 -45.501v-343c0 -114 52.667 -171 158 -171
s158 58.333 158 175v339zM270.997 892c16 0 29.667 -5.33301 41 -16s17 -25 17 -43c0 -20 -5.5 -34.667 -16.5 -44s-24.833 -14 -41.5 -14c-17.333 0 -31.333 4.83301 -42 14.5s-16 24.167 -16 43.5c0 18 5.16699 32.333 15.5 43s24.5 16 42.5 16zM437.997 892
c16.667 0 30.667 -5.16699 42 -15.5s17 -24.5 17 -42.5c0 -20.667 -5.66699 -35.5 -17 -44.5s-25.333 -13.5 -42 -13.5c-17.333 0 -31.166 4.83301 -41.499 14.5s-15.5 24.167 -15.5 43.5c0 18 5.16699 32.167 15.5 42.5s24.166 15.5 41.499 15.5z" />
    <glyph glyph-name="Yacute" unicode="&#xdd;" horiz-adv-x="635" 
d="M484 653c7.33301 12.667 14.999 22 22.999 28s19.667 9 35 9c14 0 27.5 -5.16699 40.5 -15.5s19.5 -23.166 19.5 -38.499c0 -9.33301 -2 -19 -6 -29s-8.33301 -18.667 -13 -26l-203 -328v-190c0 -18.667 -5.66699 -33.834 -17 -45.501s-26.666 -17.5 -45.999 -17.5
c-18.667 -0 -33.834 5.83301 -45.501 17.5s-17.5 26.834 -17.5 45.501v190l-211 342c-3.33301 5.33301 -5.66602 11.166 -6.99902 17.499s-2 12.5 -2 18.5c0 15.333 5 29 15 41s25.333 18 46 18c9.33301 0 18.5 -2 27.5 -6s16.833 -11.667 23.5 -23l173 -288zM332.999 920
c5.33301 5.33301 11.499 10.001 18.499 14.001s14.833 6 23.5 6c14 0 26.5 -5.33301 37.5 -16s16.5 -22.667 16.5 -36c0 -18.667 -7.33301 -33 -22 -43l-133 -89c-9.33301 -6.66699 -17.666 -10 -24.999 -10c-11.333 0 -20.333 4.16699 -27 12.5s-10 17.166 -10 26.499
c0 12 5.33301 23.333 16 34z" />
    <glyph glyph-name="Thorn" unicode="&#xde;" horiz-adv-x="624" 
d="M76 627c0 18.667 5.83301 33.834 17.5 45.501s26.834 17.5 45.501 17.5s33.834 -5.83301 45.501 -17.5s17.5 -26.834 17.5 -45.501v-51h125c40 0 75.833 -5.33301 107.5 -16s58.667 -26 81 -46s39.5 -44.167 51.5 -72.5s18 -59.833 18 -94.5
c0 -36 -6.16699 -68.167 -18.5 -96.5s-30 -52.333 -53 -72s-50.5 -34.667 -82.5 -45s-68 -15.5 -108 -15.5h-121v-55c0 -18.667 -5.83301 -33.834 -17.5 -45.501s-26.834 -17.5 -45.501 -17.5s-33.834 5.83301 -45.501 17.5s-17.5 26.834 -17.5 45.501v564zM202 465v-235
h121c44 0 77.167 10.5 99.5 31.5s33.5 49.5 33.5 85.5c0 38 -11.5 67.167 -34.5 87.5s-56.5 30.5 -100.5 30.5h-119z" />
    <glyph glyph-name="germandbls" unicode="&#xdf;" horiz-adv-x="631" 
d="M69 484c0 34.667 5.83496 65.498 17.502 92.498s27.667 49.667 48 68s44.333 32.166 72 41.499s57.834 14 90.501 14c36 0 68 -5.66699 96 -17s51.833 -27 71.5 -47s34.667 -43.667 45 -71s15.5 -56.666 15.5 -87.999c0 -21.333 -4.16699 -38.666 -12.5 -51.999
s-25.833 -20.333 -52.5 -21c-18 0 -34 -2.66699 -48 -8s-21 -14.666 -21 -27.999c0 -12 5.33301 -22.167 16 -30.5s24 -16.5 40 -24.5s33.333 -16.333 52 -25s36 -19.167 52 -31.5s29.333 -27.166 40 -44.499s16 -38.333 16 -63c0 -24 -5 -45.833 -15 -65.5
s-23.667 -36.334 -41 -50.001s-37.333 -24.334 -60 -32.001s-46.667 -11.5 -72 -11.5c-21.333 0 -41.166 2.66699 -59.499 8s-34.833 12.333 -49.5 21s-26.834 18.334 -36.501 29.001s-16.5 21.334 -20.5 32.001c-0.666992 1.33301 -1.5 4 -2.5 8s-1.5 8.66699 -1.5 14
c0 14 5 26.5 15 37.5s23.333 16.5 40 16.5c9.33301 0 17 -1.83301 23 -5.5s11.667 -8.16699 17 -13.5c9.33301 -9.33301 19.666 -18.333 30.999 -27s26.666 -13 45.999 -13c17.333 0 31.666 4.33301 42.999 13s17 21.334 17 38.001c0 13.333 -5.33301 24.666 -16 33.999
s-24 17.833 -40 25.5s-33.333 15.5 -52 23.5s-36 17.5 -52 28.5s-29.333 24.667 -40 41s-16 36.5 -16 60.5c0 37.333 13 65.666 39 84.999s58.333 31 97 35c-0.666992 34.667 -10.167 62.167 -28.5 82.5s-43.5 30.5 -75.5 30.5c-34 0 -60 -10.167 -78 -30.5
s-27 -46.833 -27 -79.5v-424c0 -18.667 -5.66699 -33.334 -17 -44.001s-26 -16 -44 -16s-32.833 5.33301 -44.5 16s-17.5 25.334 -17.5 44.001v424z" />
    <glyph glyph-name="agrave" unicode="&#xe0;" horiz-adv-x="626" 
d="M552 156c0 -30 8.33008 -45.002 24.9971 -45.002c10 0 17.833 -4.16699 23.5 -12.5s8.5 -20.166 8.5 -35.499c0 -42 -25.667 -63 -77 -63c-33.333 0 -57.666 8.83301 -72.999 26.5s-25 38.167 -29 61.5l-1 12c-16 -35.333 -38.5 -62.5 -67.5 -81.5
s-63.167 -28.5 -102.5 -28.5c-30 0 -58.333 6.16699 -85 18.5s-50 29.833 -70 52.5s-35.833 50.167 -47.5 82.5s-17.5 68.5 -17.5 108.5s6.16699 76.5 18.5 109.5s29 61.167 50 84.5s45.333 41.333 73 54s56.834 19 87.501 19c41.333 0 74.833 -9.16699 100.5 -27.5
s45.834 -43.166 60.501 -74.499v40c0 15.333 5.66699 27.833 17 37.5s26.333 14.5 45 14.5s33.5 -4.83301 44.5 -14.5s16.5 -22.167 16.5 -37.5v-301zM296.997 100.998c18 0 35.166 3.49805 51.499 10.498s30.5 17 42.5 30s21.5 28.833 28.5 47.5s10.5 39.667 10.5 63
c0 46.667 -12.167 84.167 -36.5 112.5s-56.5 42.5 -96.5 42.5c-41.333 0 -73.666 -14.333 -96.999 -43s-35 -66 -35 -112c0 -23.333 3.33301 -44.166 10 -62.499s16 -34.166 28 -47.499s26 -23.5 42 -30.5s33.333 -10.5 52 -10.5zM406.996 618.996
c11.333 -10.667 17 -22 17 -34c0 -9.33301 -3.5 -18.166 -10.5 -26.499s-16.167 -12.5 -27.5 -12.5c-6 0 -14.333 3.33301 -25 10l-133 89c-14 9.33301 -21 23.666 -21 42.999c0 13.333 5.33301 25.333 16 36s23 16 37 16c8.66699 0 16.5 -2 23.5 -6
s13.167 -8.66699 18.5 -14z" />
    <glyph glyph-name="aacute" unicode="&#xe1;" horiz-adv-x="626" 
d="M552 156c0 -30 8.33008 -45.002 24.9971 -45.002c10 0 17.833 -4.16699 23.5 -12.5s8.5 -20.166 8.5 -35.499c0 -42 -25.667 -63 -77 -63c-33.333 0 -57.666 8.83301 -72.999 26.5s-25 38.167 -29 61.5l-1 12c-16 -35.333 -38.5 -62.5 -67.5 -81.5
s-63.167 -28.5 -102.5 -28.5c-30 0 -58.333 6.16699 -85 18.5s-50 29.833 -70 52.5s-35.833 50.167 -47.5 82.5s-17.5 68.5 -17.5 108.5s6.16699 76.5 18.5 109.5s29 61.167 50 84.5s45.333 41.333 73 54s56.834 19 87.501 19c41.333 0 74.833 -9.16699 100.5 -27.5
s45.834 -43.166 60.501 -74.499v40c0 15.333 5.66699 27.833 17 37.5s26.333 14.5 45 14.5s33.5 -4.83301 44.5 -14.5s16.5 -22.167 16.5 -37.5v-301zM296.997 100.998c18 0 35.166 3.49805 51.499 10.498s30.5 17 42.5 30s21.5 28.833 28.5 47.5s10.5 39.667 10.5 63
c0 46.667 -12.167 84.167 -36.5 112.5s-56.5 42.5 -96.5 42.5c-41.333 0 -73.666 -14.333 -96.999 -43s-35 -66 -35 -112c0 -23.333 3.33301 -44.166 10 -62.499s16 -34.166 28 -47.499s26 -23.5 42 -30.5s33.333 -10.5 52 -10.5zM307.996 719.996
c5.33301 5.33301 11.499 10.001 18.499 14.001s14.833 6 23.5 6c14 0 26.5 -5.33301 37.5 -16s16.5 -22.667 16.5 -36c0 -18.667 -7.33301 -33 -22 -43l-133 -89c-9.33301 -6.66699 -17.666 -10 -24.999 -10c-11.333 0 -20.333 4.16699 -27 12.5s-10 17.166 -10 26.499
c0 12 5.33301 23.333 16 34z" />
    <glyph glyph-name="acircumflex" unicode="&#xe2;" horiz-adv-x="626" 
d="M552 156c0 -30 8.33008 -45.002 24.9971 -45.002c10 0 17.833 -4.16699 23.5 -12.5s8.5 -20.166 8.5 -35.499c0 -42 -25.667 -63 -77 -63c-33.333 0 -57.666 8.83301 -72.999 26.5s-25 38.167 -29 61.5l-1 12c-16 -35.333 -38.5 -62.5 -67.5 -81.5
s-63.167 -28.5 -102.5 -28.5c-30 0 -58.333 6.16699 -85 18.5s-50 29.833 -70 52.5s-35.833 50.167 -47.5 82.5s-17.5 68.5 -17.5 108.5s6.16699 76.5 18.5 109.5s29 61.167 50 84.5s45.333 41.333 73 54s56.834 19 87.501 19c41.333 0 74.833 -9.16699 100.5 -27.5
s45.834 -43.166 60.501 -74.499v40c0 15.333 5.66699 27.833 17 37.5s26.333 14.5 45 14.5s33.5 -4.83301 44.5 -14.5s16.5 -22.167 16.5 -37.5v-301zM296.997 100.998c18 0 35.166 3.49805 51.499 10.498s30.5 17 42.5 30s21.5 28.833 28.5 47.5s10.5 39.667 10.5 63
c0 46.667 -12.167 84.167 -36.5 112.5s-56.5 42.5 -96.5 42.5c-41.333 0 -73.666 -14.333 -96.999 -43s-35 -66 -35 -112c0 -23.333 3.33301 -44.166 10 -62.499s16 -34.166 28 -47.499s26 -23.5 42 -30.5s33.333 -10.5 52 -10.5zM440.996 609.996
c5.33301 -5.33301 9.33203 -10.501 11.999 -15.501s4 -10.167 4 -15.5c0 -7.33301 -3 -14.666 -9 -21.999s-13.667 -11 -23 -11c-3.33301 0 -6.83301 0.5 -10.5 1.5s-8.5 3.5 -14.5 7.5l-103 74l-103 -74c-6 -3.33301 -10.833 -5.66602 -14.5 -6.99902
s-6.83398 -2 -9.50098 -2c-9.33301 0 -17.166 3.66699 -23.499 11s-9.5 14.666 -9.5 21.999c0 5.33301 1.33301 10.5 4 15.5s6.66699 10.167 12 15.5l109 113c4.66699 5.33301 9.66699 9.5 15 12.5s12.333 4.5 21 4.5c8 0 14.833 -1.66699 20.5 -5
s10.834 -7.33301 15.501 -12z" />
    <glyph glyph-name="atilde" unicode="&#xe3;" horiz-adv-x="626" 
d="M552 156c0 -30 8.33008 -45.002 24.9971 -45.002c10 0 17.833 -4.16699 23.5 -12.5s8.5 -20.166 8.5 -35.499c0 -42 -25.667 -63 -77 -63c-33.333 0 -57.666 8.83301 -72.999 26.5s-25 38.167 -29 61.5l-1 12c-16 -35.333 -38.5 -62.5 -67.5 -81.5
s-63.167 -28.5 -102.5 -28.5c-30 0 -58.333 6.16699 -85 18.5s-50 29.833 -70 52.5s-35.833 50.167 -47.5 82.5s-17.5 68.5 -17.5 108.5s6.16699 76.5 18.5 109.5s29 61.167 50 84.5s45.333 41.333 73 54s56.834 19 87.501 19c41.333 0 74.833 -9.16699 100.5 -27.5
s45.834 -43.166 60.501 -74.499v40c0 15.333 5.66699 27.833 17 37.5s26.333 14.5 45 14.5s33.5 -4.83301 44.5 -14.5s16.5 -22.167 16.5 -37.5v-301zM296.997 100.998c18 0 35.166 3.49805 51.499 10.498s30.5 17 42.5 30s21.5 28.833 28.5 47.5s10.5 39.667 10.5 63
c0 46.667 -12.167 84.167 -36.5 112.5s-56.5 42.5 -96.5 42.5c-41.333 0 -73.666 -14.333 -96.999 -43s-35 -66 -35 -112c0 -23.333 3.33301 -44.166 10 -62.499s16 -34.166 28 -47.499s26 -23.5 42 -30.5s33.333 -10.5 52 -10.5zM240.996 707.996
c16 0 29.668 -1.83105 41.001 -5.49805s22 -7.83398 32 -12.501s19.833 -8.83398 29.5 -12.501s20.5 -5.5 32.5 -5.5c8.66699 0 16 1.5 22 4.5s12.333 8.5 19 16.5c3.33301 4.66699 7.5 8.83398 12.5 12.501s11.167 5.5 18.5 5.5c11.333 0 21 -4.5 29 -13.5
s12 -20.5 12 -34.5c0 -20.667 -6.33301 -37.667 -19 -51c-9.33301 -11.333 -20 -20 -32 -26s-24.667 -9 -38 -9c-17.333 0 -32.333 2 -45 6s-24.334 8.5 -35.001 13.5s-21 9.66699 -31 14s-21.333 6.5 -34 6.5c-12 0 -21.833 -2.33301 -29.5 -7s-14.5 -10.667 -20.5 -18
c-4 -4.66699 -8.83301 -8.5 -14.5 -11.5s-13.167 -4.5 -22.5 -4.5c-12 0 -21.5 4.16699 -28.5 12.5s-10.5 18.5 -10.5 30.5c0 5.33301 1.33301 12.166 4 20.499s7.33398 16.166 14.001 23.499c10.667 12.667 23.167 23.334 37.5 32.001s33.166 13 56.499 13z" />
    <glyph glyph-name="adieresis" unicode="&#xe4;" horiz-adv-x="626" 
d="M552 156c0 -30 8.33008 -45.002 24.9971 -45.002c10 0 17.833 -4.16699 23.5 -12.5s8.5 -20.166 8.5 -35.499c0 -42 -25.667 -63 -77 -63c-33.333 0 -57.666 8.83301 -72.999 26.5s-25 38.167 -29 61.5l-1 12c-16 -35.333 -38.5 -62.5 -67.5 -81.5
s-63.167 -28.5 -102.5 -28.5c-30 0 -58.333 6.16699 -85 18.5s-50 29.833 -70 52.5s-35.833 50.167 -47.5 82.5s-17.5 68.5 -17.5 108.5s6.16699 76.5 18.5 109.5s29 61.167 50 84.5s45.333 41.333 73 54s56.834 19 87.501 19c41.333 0 74.833 -9.16699 100.5 -27.5
s45.834 -43.166 60.501 -74.499v40c0 15.333 5.66699 27.833 17 37.5s26.333 14.5 45 14.5s33.5 -4.83301 44.5 -14.5s16.5 -22.167 16.5 -37.5v-301zM296.997 100.998c18 0 35.166 3.49805 51.499 10.498s30.5 17 42.5 30s21.5 28.833 28.5 47.5s10.5 39.667 10.5 63
c0 46.667 -12.167 84.167 -36.5 112.5s-56.5 42.5 -96.5 42.5c-41.333 0 -73.666 -14.333 -96.999 -43s-35 -66 -35 -112c0 -23.333 3.33301 -44.166 10 -62.499s16 -34.166 28 -47.499s26 -23.5 42 -30.5s33.333 -10.5 52 -10.5zM217.996 691.996
c16 0 29.667 -5.33301 41 -16s17 -25 17 -43c0 -20 -5.5 -34.667 -16.5 -44s-24.833 -14 -41.5 -14c-17.333 0 -31.333 4.83301 -42 14.5s-16 24.167 -16 43.5c0 18 5.16699 32.333 15.5 43s24.5 16 42.5 16zM384.996 691.996c16.667 0 30.667 -5.16699 42 -15.5
s17 -24.5 17 -42.5c0 -20.667 -5.66699 -35.5 -17 -44.5s-25.333 -13.5 -42 -13.5c-17.333 0 -31.166 4.83301 -41.499 14.5s-15.5 24.167 -15.5 43.5c0 18 5.16699 32.167 15.5 42.5s24.166 15.5 41.499 15.5z" />
    <glyph glyph-name="aring" unicode="&#xe5;" horiz-adv-x="626" 
d="M552 156c0 -30 8.33008 -45.002 24.9971 -45.002c10 0 17.833 -4.16699 23.5 -12.5s8.5 -20.166 8.5 -35.499c0 -42 -25.667 -63 -77 -63c-33.333 0 -57.666 8.83301 -72.999 26.5s-25 38.167 -29 61.5l-1 12c-16 -35.333 -38.5 -62.5 -67.5 -81.5
s-63.167 -28.5 -102.5 -28.5c-30 0 -58.333 6.16699 -85 18.5s-50 29.833 -70 52.5s-35.833 50.167 -47.5 82.5s-17.5 68.5 -17.5 108.5s6.16699 76.5 18.5 109.5s29 61.167 50 84.5s45.333 41.333 73 54s56.834 19 87.501 19c41.333 0 74.833 -9.16699 100.5 -27.5
s45.834 -43.166 60.501 -74.499v40c0 15.333 5.66699 27.833 17 37.5s26.333 14.5 45 14.5s33.5 -4.83301 44.5 -14.5s16.5 -22.167 16.5 -37.5v-301zM296.997 100.998c18 0 35.166 3.49805 51.499 10.498s30.5 17 42.5 30s21.5 28.833 28.5 47.5s10.5 39.667 10.5 63
c0 46.667 -12.167 84.167 -36.5 112.5s-56.5 42.5 -96.5 42.5c-41.333 0 -73.666 -14.333 -96.999 -43s-35 -66 -35 -112c0 -23.333 3.33301 -44.166 10 -62.499s16 -34.166 28 -47.499s26 -23.5 42 -30.5s33.333 -10.5 52 -10.5zM294.996 775.996
c33.333 0 60.5 -10.834 81.5 -32.501s31.5 -49.5 31.5 -83.5c0 -33.333 -10.5 -60.666 -31.5 -81.999s-48.167 -32 -81.5 -32c-16 0 -30.833 2.66699 -44.5 8s-25.5 13 -35.5 23s-18 22 -24 36s-9 29.667 -9 47c0 35.333 10.833 63.5 32.5 84.5s48.5 31.5 80.5 31.5z
M294.996 704.995c-14 0 -24.333 -4.5 -31 -13.5s-10 -19.167 -10 -30.5c0 -12 3.66699 -22.167 11 -30.5s17.333 -12.5 30 -12.5c13.333 0 23.5 4.33301 30.5 13s10.5 18.667 10.5 30s-3.5 21.5 -10.5 30.5s-17.167 13.5 -30.5 13.5z" />
    <glyph glyph-name="ae" unicode="&#xe6;" horiz-adv-x="955" 
d="M537 421c16 34.667 36.8311 59.667 62.498 75s54.167 23 85.5 23c34 0 64.833 -6.16699 92.5 -18.5s51.334 -28.666 71.001 -48.999s35 -43.833 46 -70.5s16.5 -54.334 16.5 -83.001c0 -21.333 -3.5 -38.833 -10.5 -52.5s-21.833 -20.5 -44.5 -20.5h-301
c5.33301 -40 20.166 -70.667 44.499 -92s54.833 -32 91.5 -32c14 0 27.167 1.5 39.5 4.5s23.5 6.83301 33.5 11.5s18.833 9.5 26.5 14.5s13.834 9.16699 18.501 12.5c12 5.33301 21 8 27 8c15.333 0 28.166 -5.66699 38.499 -17s15.5 -24 15.5 -38
c0 -10 -2.66699 -19.167 -8 -27.5s-11.333 -15.166 -18 -20.499c-19.333 -16 -44.333 -29.833 -75 -41.5s-66.667 -17.5 -108 -17.5c-52 0 -95.833 12.5 -131.5 37.5s-62.167 58.5 -79.5 100.5c-19.333 -42.667 -46.666 -76.334 -81.999 -101.001s-76.333 -37 -123 -37
c-31.333 0 -60.833 6.16699 -88.5 18.5s-51.667 29.833 -72 52.5s-36.333 50.167 -48 82.5s-17.5 68.5 -17.5 108.5s6.16699 76.5 18.5 109.5s29 61.167 50 84.5s45.333 41.333 73 54s56.834 19 87.501 19c45.333 0 82 -8.83301 110 -26.5s50 -40.167 66 -67.5v32
c0 15.333 4.33301 27.833 13 37.5s20 14.5 34 14.5s25.167 -4.83301 33.5 -14.5s12.5 -22.167 12.5 -37.5v-36zM296.998 101c18 0 35.166 3.49805 51.499 10.498s30.5 17 42.5 30s21.5 28.833 28.5 47.5s10.5 39.667 10.5 63c0 46.667 -12.167 84.167 -36.5 112.5
s-56.5 42.5 -96.5 42.5c-41.333 0 -73.666 -14.333 -96.999 -43s-35 -66 -35 -112c0 -23.333 3.33301 -44.166 10 -62.499s16 -34.166 28 -47.499s26 -23.5 42 -30.5s33.333 -10.5 52 -10.5zM679.997 406.998c-32 0 -58.999 -9.5 -80.999 -28.5s-36.333 -45.833 -43 -80.5
h235c0.666992 12.667 -1.33301 25.5 -6 38.5s-11.834 24.833 -21.501 35.5s-21.5 19.167 -35.5 25.5s-30 9.5 -48 9.5z" />
    <glyph glyph-name="ccedilla" unicode="&#xe7;" horiz-adv-x="530" 
d="M436 171c12 0 24.0098 -4.33887 36.0098 -13.0059s18 -21.667 18 -39c0 -20.667 -7 -38 -21 -52c-16 -18 -37.333 -34.833 -64 -50.5s-61.334 -24.5 -104.001 -26.5v-23c9.33301 -1.33301 18.666 -3.83301 27.999 -7.5s17.666 -8.83398 24.999 -15.501s13.333 -15 18 -25
s7 -22.333 7 -37c0 -17.333 -3.33301 -32.5 -10 -45.5s-15.334 -23.833 -26.001 -32.5s-22.667 -15.167 -36 -19.5s-27 -6.5 -41 -6.5c-20.667 0 -35.334 3.33301 -44.001 10s-13 16.667 -13 30c0 15.333 4.5 25 13.5 29s17.5 6 25.5 6c28 0 42 8.66699 42 26
c0 8.66699 -3.33301 14.667 -10 18s-17 6 -31 8c-6.66699 1.33301 -11.334 3.16602 -14.001 5.49902s-4 7.5 -4 15.5v70c-29.333 6 -55.833 16.833 -79.5 32.5s-43.834 34.834 -60.501 57.501s-29.5 48.334 -38.5 77.001s-13.5 59.334 -13.5 92.001
c0 37.333 6.33301 72 19 104s30 59.833 52 83.5s48.167 42.334 78.5 56.001s63.5 20.5 99.5 20.5c40 0 76.167 -7 108.5 -21s59.166 -35 80.499 -63c12.667 -16.667 19 -33 19 -49c0 -19.333 -5.83301 -33.166 -17.5 -41.499s-23.5 -12.5 -35.5 -12.5
c-11.333 0 -20.333 2 -27 6s-12.334 8.33301 -17.001 13c-4 4 -9 9.16699 -15 15.5s-13.5 12.5 -22.5 18.5s-19.333 11.167 -31 15.5s-25.5 6.5 -41.5 6.5c-20 0 -37.667 -4.16699 -53 -12.5s-28.333 -19.666 -39 -33.999s-18.667 -30.666 -24 -48.999s-8 -37.5 -8 -57.5
s2.66699 -39.167 8 -57.5s13.333 -34.666 24 -48.999s23.5 -25.666 38.5 -33.999s32.5 -12.5 52.5 -12.5c21.333 0 40.666 4.83301 57.999 14.5s34 22.167 50 37.5c8 7.33301 15.5 12.166 22.5 14.499s12.833 3.5 17.5 3.5z" />
    <glyph glyph-name="egrave" unicode="&#xe8;" horiz-adv-x="563" 
d="M163 225c5.33301 -40 20.168 -70.6689 44.501 -92.002s54.833 -32 91.5 -32c14 0 27.167 1.5 39.5 4.5s23.5 6.83301 33.5 11.5s18.833 9.5 26.5 14.5s13.834 9.16699 18.501 12.5c12 5.33301 21 8 27 8c15.333 0 28.166 -5.66699 38.499 -17s15.5 -24 15.5 -38
c0 -10 -2.66699 -19.167 -8 -27.5s-11.333 -15.166 -18 -20.499c-19.333 -16 -44.333 -29.833 -75 -41.5s-66.667 -17.5 -108 -17.5c-36.667 0 -70.334 6.5 -101.001 19.5s-57 31.167 -79 54.5s-39.167 51 -51.5 83s-18.5 67 -18.5 105c0 36.667 6.33301 71.334 19 104.001
s30.167 61 52.5 85s48.833 43 79.5 57s63.667 21 99 21c34.667 0 66.167 -6.16699 94.5 -18.5s52.5 -28.666 72.5 -48.999s35.5 -43.833 46.5 -70.5s16.5 -54.334 16.5 -83.001c0 -21.333 -3.5 -38.833 -10.5 -52.5s-21.833 -20.5 -44.5 -20.5h-301zM288.002 406.998
c-32 0 -58.999 -9.5 -80.999 -28.5s-36.333 -45.833 -43 -80.5h235c0.666992 12.667 -1.33301 25.5 -6 38.5s-11.834 24.833 -21.501 35.5s-21.5 19.167 -35.5 25.5s-30 9.5 -48 9.5zM376.003 618.998c11.333 -10.667 17 -22 17 -34c0 -9.33301 -3.5 -18.166 -10.5 -26.499
s-16.167 -12.5 -27.5 -12.5c-6 0 -14.333 3.33301 -25 10l-133 89c-14 9.33301 -21 23.666 -21 42.999c0 13.333 5.33301 25.333 16 36s23 16 37 16c8.66699 0 16.5 -2 23.5 -6s13.167 -8.66699 18.5 -14z" />
    <glyph glyph-name="eacute" unicode="&#xe9;" horiz-adv-x="563" 
d="M163 225c5.33301 -40 20.168 -70.6689 44.501 -92.002s54.833 -32 91.5 -32c14 0 27.167 1.5 39.5 4.5s23.5 6.83301 33.5 11.5s18.833 9.5 26.5 14.5s13.834 9.16699 18.501 12.5c12 5.33301 21 8 27 8c15.333 0 28.166 -5.66699 38.499 -17s15.5 -24 15.5 -38
c0 -10 -2.66699 -19.167 -8 -27.5s-11.333 -15.166 -18 -20.499c-19.333 -16 -44.333 -29.833 -75 -41.5s-66.667 -17.5 -108 -17.5c-36.667 0 -70.334 6.5 -101.001 19.5s-57 31.167 -79 54.5s-39.167 51 -51.5 83s-18.5 67 -18.5 105c0 36.667 6.33301 71.334 19 104.001
s30.167 61 52.5 85s48.833 43 79.5 57s63.667 21 99 21c34.667 0 66.167 -6.16699 94.5 -18.5s52.5 -28.666 72.5 -48.999s35.5 -43.833 46.5 -70.5s16.5 -54.334 16.5 -83.001c0 -21.333 -3.5 -38.833 -10.5 -52.5s-21.833 -20.5 -44.5 -20.5h-301zM288.002 406.998
c-32 0 -58.999 -9.5 -80.999 -28.5s-36.333 -45.833 -43 -80.5h235c0.666992 12.667 -1.33301 25.5 -6 38.5s-11.834 24.833 -21.501 35.5s-21.5 19.167 -35.5 25.5s-30 9.5 -48 9.5zM317.003 719.998c5.33301 5.33301 11.499 10.001 18.499 14.001s14.833 6 23.5 6
c14 0 26.5 -5.33301 37.5 -16s16.5 -22.667 16.5 -36c0 -18.667 -7.33301 -33 -22 -43l-133 -89c-9.33301 -6.66699 -17.666 -10 -24.999 -10c-11.333 0 -20.333 4.16699 -27 12.5s-10 17.166 -10 26.499c0 12 5.33301 23.333 16 34z" />
    <glyph glyph-name="ecircumflex" unicode="&#xea;" horiz-adv-x="563" 
d="M163 225c5.33301 -40 20.168 -70.6689 44.501 -92.002s54.833 -32 91.5 -32c14 0 27.167 1.5 39.5 4.5s23.5 6.83301 33.5 11.5s18.833 9.5 26.5 14.5s13.834 9.16699 18.501 12.5c12 5.33301 21 8 27 8c15.333 0 28.166 -5.66699 38.499 -17s15.5 -24 15.5 -38
c0 -10 -2.66699 -19.167 -8 -27.5s-11.333 -15.166 -18 -20.499c-19.333 -16 -44.333 -29.833 -75 -41.5s-66.667 -17.5 -108 -17.5c-36.667 0 -70.334 6.5 -101.001 19.5s-57 31.167 -79 54.5s-39.167 51 -51.5 83s-18.5 67 -18.5 105c0 36.667 6.33301 71.334 19 104.001
s30.167 61 52.5 85s48.833 43 79.5 57s63.667 21 99 21c34.667 0 66.167 -6.16699 94.5 -18.5s52.5 -28.666 72.5 -48.999s35.5 -43.833 46.5 -70.5s16.5 -54.334 16.5 -83.001c0 -21.333 -3.5 -38.833 -10.5 -52.5s-21.833 -20.5 -44.5 -20.5h-301zM288.002 406.998
c-32 0 -58.999 -9.5 -80.999 -28.5s-36.333 -45.833 -43 -80.5h235c0.666992 12.667 -1.33301 25.5 -6 38.5s-11.834 24.833 -21.501 35.5s-21.5 19.167 -35.5 25.5s-30 9.5 -48 9.5zM433.003 609.998c5.33301 -5.33301 9.33203 -10.501 11.999 -15.501s4 -10.167 4 -15.5
c0 -7.33301 -3 -14.666 -9 -21.999s-13.667 -11 -23 -11c-3.33301 0 -6.83301 0.5 -10.5 1.5s-8.5 3.5 -14.5 7.5l-103 74l-103 -74c-6 -3.33301 -10.833 -5.66602 -14.5 -6.99902s-6.83398 -2 -9.50098 -2c-9.33301 0 -17.166 3.66699 -23.499 11s-9.5 14.666 -9.5 21.999
c0 5.33301 1.33301 10.5 4 15.5s6.66699 10.167 12 15.5l109 113c4.66699 5.33301 9.66699 9.5 15 12.5s12.333 4.5 21 4.5c8 0 14.833 -1.66699 20.5 -5s10.834 -7.33301 15.501 -12z" />
    <glyph glyph-name="edieresis" unicode="&#xeb;" horiz-adv-x="563" 
d="M163 225c5.33301 -40 20.168 -70.6689 44.501 -92.002s54.833 -32 91.5 -32c14 0 27.167 1.5 39.5 4.5s23.5 6.83301 33.5 11.5s18.833 9.5 26.5 14.5s13.834 9.16699 18.501 12.5c12 5.33301 21 8 27 8c15.333 0 28.166 -5.66699 38.499 -17s15.5 -24 15.5 -38
c0 -10 -2.66699 -19.167 -8 -27.5s-11.333 -15.166 -18 -20.499c-19.333 -16 -44.333 -29.833 -75 -41.5s-66.667 -17.5 -108 -17.5c-36.667 0 -70.334 6.5 -101.001 19.5s-57 31.167 -79 54.5s-39.167 51 -51.5 83s-18.5 67 -18.5 105c0 36.667 6.33301 71.334 19 104.001
s30.167 61 52.5 85s48.833 43 79.5 57s63.667 21 99 21c34.667 0 66.167 -6.16699 94.5 -18.5s52.5 -28.666 72.5 -48.999s35.5 -43.833 46.5 -70.5s16.5 -54.334 16.5 -83.001c0 -21.333 -3.5 -38.833 -10.5 -52.5s-21.833 -20.5 -44.5 -20.5h-301zM288.002 406.998
c-32 0 -58.999 -9.5 -80.999 -28.5s-36.333 -45.833 -43 -80.5h235c0.666992 12.667 -1.33301 25.5 -6 38.5s-11.834 24.833 -21.501 35.5s-21.5 19.167 -35.5 25.5s-30 9.5 -48 9.5zM207.003 691.998c16 0 29.667 -5.33301 41 -16s17 -25 17 -43
c0 -20 -5.5 -34.667 -16.5 -44s-24.833 -14 -41.5 -14c-17.333 0 -31.333 4.83301 -42 14.5s-16 24.167 -16 43.5c0 18 5.16699 32.333 15.5 43s24.5 16 42.5 16zM374.003 691.998c16.667 0 30.667 -5.16699 42 -15.5s17 -24.5 17 -42.5c0 -20.667 -5.66699 -35.5 -17 -44.5
s-25.333 -13.5 -42 -13.5c-17.333 0 -31.166 4.83301 -41.499 14.5s-15.5 24.167 -15.5 43.5c0 18 5.16699 32.167 15.5 42.5s24.166 15.5 41.499 15.5z" />
    <glyph glyph-name="igrave" unicode="&#xec;" horiz-adv-x="265" 
d="M69 449c0 16.667 5.66699 30.834 17 42.501s26 17.5 44 17.5s32.667 -5.83301 44 -17.5s17 -25.834 17 -42.501v-291c0 -13.333 1.83301 -24.5 5.5 -33.5s10.5 -13.5 20.5 -13.5c11.333 0 19.333 -5 24 -15s7 -20.667 7 -32c0 -19.333 -5.83301 -34.833 -17.5 -46.5
s-29.167 -17.5 -52.5 -17.5c-34 0 -60.667 11.5 -80 34.5s-29 61.5 -29 115.5v299zM208 619c11.333 -10.667 17 -22 17 -34c0 -9.33301 -3.5 -18.166 -10.5 -26.499s-16.167 -12.5 -27.5 -12.5c-6 0 -14.333 3.33301 -25 10l-133 89c-14 9.33301 -21 23.666 -21 42.999
c0 13.333 5.33301 25.333 16 36s23 16 37 16c8.66699 0 16.5 -2 23.5 -6s13.167 -8.66699 18.5 -14z" />
    <glyph glyph-name="iacute" unicode="&#xed;" horiz-adv-x="265" 
d="M69 449c0 16.667 5.66699 30.834 17 42.501s26 17.5 44 17.5s32.667 -5.83301 44 -17.5s17 -25.834 17 -42.501v-291c0 -13.333 1.83301 -24.5 5.5 -33.5s10.5 -13.5 20.5 -13.5c11.333 0 19.333 -5 24 -15s7 -20.667 7 -32c0 -19.333 -5.83301 -34.833 -17.5 -46.5
s-29.167 -17.5 -52.5 -17.5c-34 0 -60.667 11.5 -80 34.5s-29 61.5 -29 115.5v299zM169 720c5.33301 5.33301 11.499 10.001 18.499 14.001s14.833 6 23.5 6c14 0 26.5 -5.33301 37.5 -16s16.5 -22.667 16.5 -36c0 -18.667 -7.33301 -33 -22 -43l-133 -89
c-9.33301 -6.66699 -17.666 -10 -24.999 -10c-11.333 0 -20.333 4.16699 -27 12.5s-10 17.166 -10 26.499c0 12 5.33301 23.333 16 34z" />
    <glyph glyph-name="icircumflex" unicode="&#xee;" horiz-adv-x="265" 
d="M69 449c0 16.667 5.66699 30.834 17 42.501s26 17.5 44 17.5s32.667 -5.83301 44 -17.5s17 -25.834 17 -42.501v-291c0 -13.333 1.83301 -24.5 5.5 -33.5s10.5 -13.5 20.5 -13.5c11.333 0 19.333 -5 24 -15s7 -20.667 7 -32c0 -19.333 -5.83301 -34.833 -17.5 -46.5
s-29.167 -17.5 -52.5 -17.5c-34 0 -60.667 11.5 -80 34.5s-29 61.5 -29 115.5v299zM282 610c5.33301 -5.33301 9.33203 -10.501 11.999 -15.501s4 -10.167 4 -15.5c0 -7.33301 -3 -14.666 -9 -21.999s-13.667 -11 -23 -11c-3.33301 0 -6.83301 0.5 -10.5 1.5
s-8.5 3.5 -14.5 7.5l-103 74l-103 -74c-6 -3.33301 -10.833 -5.66602 -14.5 -6.99902s-6.83398 -2 -9.50098 -2c-9.33301 0 -17.166 3.66699 -23.499 11s-9.5 14.666 -9.5 21.999c0 5.33301 1.33301 10.5 4 15.5s6.66699 10.167 12 15.5l109 113
c4.66699 5.33301 9.66699 9.5 15 12.5s12.333 4.5 21 4.5c8 0 14.833 -1.66699 20.5 -5s10.834 -7.33301 15.501 -12z" />
    <glyph glyph-name="idieresis" unicode="&#xef;" horiz-adv-x="265" 
d="M69 449c0 16.667 5.66699 30.834 17 42.501s26 17.5 44 17.5s32.667 -5.83301 44 -17.5s17 -25.834 17 -42.501v-291c0 -13.333 1.83301 -24.5 5.5 -33.5s10.5 -13.5 20.5 -13.5c11.333 0 19.333 -5 24 -15s7 -20.667 7 -32c0 -19.333 -5.83301 -34.833 -17.5 -46.5
s-29.167 -17.5 -52.5 -17.5c-34 0 -60.667 11.5 -80 34.5s-29 61.5 -29 115.5v299zM49 692c16 0 29.667 -5.33301 41 -16s17 -25 17 -43c0 -20 -5.5 -34.667 -16.5 -44s-24.833 -14 -41.5 -14c-17.333 0 -31.333 4.83301 -42 14.5s-16 24.167 -16 43.5
c0 18 5.16699 32.333 15.5 43s24.5 16 42.5 16zM216 692c16.667 0 30.667 -5.16699 42 -15.5s17 -24.5 17 -42.5c0 -20.667 -5.66699 -35.5 -17 -44.5s-25.333 -13.5 -42 -13.5c-17.333 0 -31.166 4.83301 -41.499 14.5s-15.5 24.167 -15.5 43.5
c0 18 5.16699 32.167 15.5 42.5s24.166 15.5 41.499 15.5z" />
    <glyph glyph-name="eth" unicode="&#xf0;" horiz-adv-x="592" 
d="M413 603c16 -16.667 31.999 -36 47.999 -58s30.5 -47 43.5 -75s23.667 -59.333 32 -94s13.166 -73 14.499 -115c0.666992 -3.33301 1 -8 1 -14c0 -36 -6.33301 -69.667 -19 -101s-30.334 -58.5 -53.001 -81.5s-49.667 -41.167 -81 -54.5s-65.666 -20 -102.999 -20
c-38 0 -72.667 6.66699 -104 20s-58.166 31.5 -80.499 54.5s-39.833 50.167 -52.5 81.5s-19 65 -19 101s6.16699 69.667 18.5 101s29.666 58.5 51.999 81.5s48.833 41.167 79.5 54.5s64.334 20 101.001 20c10 0 20 -0.666992 30 -2s19.667 -3 29 -5
c-14.667 18.667 -29.334 34.834 -44.001 48.501s-28.667 25.834 -42 36.501c-17.333 13.333 -29.833 25 -37.5 35s-11.5 19.667 -11.5 29c0 13.333 4.83301 25.666 14.5 36.999s22.5 17 38.5 17c11.333 0 21.333 -2.33301 30 -7s18.667 -11 30 -19l14 -10l23 22
c4.66699 4 9.83398 7.33301 15.501 10s12.167 4 19.5 4c12.667 0 23.334 -4.33301 32.001 -13s13 -19.667 13 -33c0 -12.667 -4.33301 -23.334 -13 -32.001zM295.999 392c-21.333 0 -40 -3.66699 -56 -11s-29.5 -17.5 -40.5 -30.5s-19.333 -28.333 -25 -46
s-8.5 -36.5 -8.5 -56.5s2.83301 -38.833 8.5 -56.5s14 -33.167 25 -46.5s24.5 -24 40.5 -32s34.667 -12 56 -12s40 3.83301 56 11.5s29.5 18 40.5 31s19.333 28.167 25 45.5s8.5 36 8.5 56s-2.83301 39 -8.5 57s-14 33.667 -25 47s-24.5 23.833 -40.5 31.5
s-34.667 11.5 -56 11.5z" />
    <glyph glyph-name="ntilde" unicode="&#xf1;" horiz-adv-x="588" 
d="M69 456c0 12.667 5 24.667 15 36s25.667 17 47 17s36.666 -5.33301 45.999 -16s14 -22.667 14 -36v-31c12.667 30 32.334 53 59.001 69s57 24 91 24c58 0 103 -18.167 135 -54.5s48 -86.166 48 -149.499v-256c0 -16.667 -5.83301 -30.667 -17.5 -42s-26.5 -17 -44.5 -17
c-17.333 0 -31.833 5.66699 -43.5 17s-17.5 25.333 -17.5 42v213c0 44 -9.16699 77.5 -27.5 100.5s-43.833 34.5 -76.5 34.5c-33.333 0 -59.333 -11.833 -78 -35.5s-28 -57.834 -28 -102.501v-210c0 -16.667 -5.66699 -30.667 -17 -42s-26 -17 -44 -17
c-16.667 0 -31 5.5 -43 16.5s-18 25.167 -18 42.5v397zM223 708c16 0 29.668 -1.83105 41.001 -5.49805s22 -7.83398 32 -12.501s19.833 -8.83398 29.5 -12.501s20.5 -5.5 32.5 -5.5c8.66699 0 16 1.5 22 4.5s12.333 8.5 19 16.5c3.33301 4.66699 7.5 8.83398 12.5 12.501
s11.167 5.5 18.5 5.5c11.333 0 21 -4.5 29 -13.5s12 -20.5 12 -34.5c0 -20.667 -6.33301 -37.667 -19 -51c-9.33301 -11.333 -20 -20 -32 -26s-24.667 -9 -38 -9c-17.333 0 -32.333 2 -45 6s-24.334 8.5 -35.001 13.5s-21 9.66699 -31 14s-21.333 6.5 -34 6.5
c-12 0 -21.833 -2.33301 -29.5 -7s-14.5 -10.667 -20.5 -18c-4 -4.66699 -8.83301 -8.5 -14.5 -11.5s-13.167 -4.5 -22.5 -4.5c-12 0 -21.5 4.16699 -28.5 12.5s-10.5 18.5 -10.5 30.5c0 5.33301 1.33301 12.166 4 20.499s7.33398 16.166 14.001 23.499
c10.667 12.667 23.167 23.334 37.5 32.001s33.166 13 56.499 13z" />
    <glyph glyph-name="ograve" unicode="&#xf2;" horiz-adv-x="592" 
d="M296 519c37.333 0 71.666 -6.83301 102.999 -20.5s58.333 -32.334 81 -56.001s40.334 -51.667 53.001 -84s19 -67.166 19 -104.499s-6.33301 -72 -19 -104s-30.334 -59.833 -53.001 -83.5s-49.667 -42.334 -81 -56.001s-65.666 -20.5 -102.999 -20.5
c-38 0 -72.667 6.83301 -104 20.5s-58.166 32.334 -80.499 56.001s-39.833 51.5 -52.5 83.5s-19 66.667 -19 104s6.33301 72.166 19 104.499s30.167 60.333 52.5 84s49.166 42.334 80.499 56.001s66 20.5 104 20.5zM296 407c-21.333 0 -40 -3.83301 -56 -11.5
s-29.5 -18.334 -40.5 -32.001s-19.333 -29.667 -25 -48s-8.5 -38.166 -8.5 -59.499c0 -20.667 2.83301 -40.334 8.5 -59.001s14 -35.167 25 -49.5s24.5 -25.666 40.5 -33.999s34.667 -12.5 56 -12.5s40 4 56 12s29.5 19 40.5 33s19.333 30.167 25 48.5s8.5 37.833 8.5 58.5
c0 21.333 -2.83301 41.333 -8.5 60s-14 35 -25 49s-24.5 25 -40.5 33s-34.667 12 -56 12zM391 619c11.333 -10.667 17 -22 17 -34c0 -9.33301 -3.5 -18.166 -10.5 -26.499s-16.167 -12.5 -27.5 -12.5c-6 0 -14.333 3.33301 -25 10l-133 89
c-14 9.33301 -21 23.666 -21 42.999c0 13.333 5.33301 25.333 16 36s23 16 37 16c8.66699 0 16.5 -2 23.5 -6s13.167 -8.66699 18.5 -14z" />
    <glyph glyph-name="oacute" unicode="&#xf3;" horiz-adv-x="592" 
d="M296 519c37.333 0 71.666 -6.83301 102.999 -20.5s58.333 -32.334 81 -56.001s40.334 -51.667 53.001 -84s19 -67.166 19 -104.499s-6.33301 -72 -19 -104s-30.334 -59.833 -53.001 -83.5s-49.667 -42.334 -81 -56.001s-65.666 -20.5 -102.999 -20.5
c-38 0 -72.667 6.83301 -104 20.5s-58.166 32.334 -80.499 56.001s-39.833 51.5 -52.5 83.5s-19 66.667 -19 104s6.33301 72.166 19 104.499s30.167 60.333 52.5 84s49.166 42.334 80.499 56.001s66 20.5 104 20.5zM296 407c-21.333 0 -40 -3.83301 -56 -11.5
s-29.5 -18.334 -40.5 -32.001s-19.333 -29.667 -25 -48s-8.5 -38.166 -8.5 -59.499c0 -20.667 2.83301 -40.334 8.5 -59.001s14 -35.167 25 -49.5s24.5 -25.666 40.5 -33.999s34.667 -12.5 56 -12.5s40 4 56 12s29.5 19 40.5 33s19.333 30.167 25 48.5s8.5 37.833 8.5 58.5
c0 21.333 -2.83301 41.333 -8.5 60s-14 35 -25 49s-24.5 25 -40.5 33s-34.667 12 -56 12zM312 720c5.33301 5.33301 11.499 10.001 18.499 14.001s14.833 6 23.5 6c14 0 26.5 -5.33301 37.5 -16s16.5 -22.667 16.5 -36c0 -18.667 -7.33301 -33 -22 -43l-133 -89
c-9.33301 -6.66699 -17.666 -10 -24.999 -10c-11.333 0 -20.333 4.16699 -27 12.5s-10 17.166 -10 26.499c0 12 5.33301 23.333 16 34z" />
    <glyph glyph-name="ocircumflex" unicode="&#xf4;" horiz-adv-x="592" 
d="M296 519c37.333 0 71.666 -6.83301 102.999 -20.5s58.333 -32.334 81 -56.001s40.334 -51.667 53.001 -84s19 -67.166 19 -104.499s-6.33301 -72 -19 -104s-30.334 -59.833 -53.001 -83.5s-49.667 -42.334 -81 -56.001s-65.666 -20.5 -102.999 -20.5
c-38 0 -72.667 6.83301 -104 20.5s-58.166 32.334 -80.499 56.001s-39.833 51.5 -52.5 83.5s-19 66.667 -19 104s6.33301 72.166 19 104.499s30.167 60.333 52.5 84s49.166 42.334 80.499 56.001s66 20.5 104 20.5zM296 407c-21.333 0 -40 -3.83301 -56 -11.5
s-29.5 -18.334 -40.5 -32.001s-19.333 -29.667 -25 -48s-8.5 -38.166 -8.5 -59.499c0 -20.667 2.83301 -40.334 8.5 -59.001s14 -35.167 25 -49.5s24.5 -25.666 40.5 -33.999s34.667 -12.5 56 -12.5s40 4 56 12s29.5 19 40.5 33s19.333 30.167 25 48.5s8.5 37.833 8.5 58.5
c0 21.333 -2.83301 41.333 -8.5 60s-14 35 -25 49s-24.5 25 -40.5 33s-34.667 12 -56 12zM445 610c5.33301 -5.33301 9.33203 -10.501 11.999 -15.501s4 -10.167 4 -15.5c0 -7.33301 -3 -14.666 -9 -21.999s-13.667 -11 -23 -11c-3.33301 0 -6.83301 0.5 -10.5 1.5
s-8.5 3.5 -14.5 7.5l-103 74l-103 -74c-6 -3.33301 -10.833 -5.66602 -14.5 -6.99902s-6.83398 -2 -9.50098 -2c-9.33301 0 -17.166 3.66699 -23.499 11s-9.5 14.666 -9.5 21.999c0 5.33301 1.33301 10.5 4 15.5s6.66699 10.167 12 15.5l109 113
c4.66699 5.33301 9.66699 9.5 15 12.5s12.333 4.5 21 4.5c8 0 14.833 -1.66699 20.5 -5s10.834 -7.33301 15.501 -12z" />
    <glyph glyph-name="otilde" unicode="&#xf5;" horiz-adv-x="592" 
d="M296 519c37.333 0 71.666 -6.83301 102.999 -20.5s58.333 -32.334 81 -56.001s40.334 -51.667 53.001 -84s19 -67.166 19 -104.499s-6.33301 -72 -19 -104s-30.334 -59.833 -53.001 -83.5s-49.667 -42.334 -81 -56.001s-65.666 -20.5 -102.999 -20.5
c-38 0 -72.667 6.83301 -104 20.5s-58.166 32.334 -80.499 56.001s-39.833 51.5 -52.5 83.5s-19 66.667 -19 104s6.33301 72.166 19 104.499s30.167 60.333 52.5 84s49.166 42.334 80.499 56.001s66 20.5 104 20.5zM296 407c-21.333 0 -40 -3.83301 -56 -11.5
s-29.5 -18.334 -40.5 -32.001s-19.333 -29.667 -25 -48s-8.5 -38.166 -8.5 -59.499c0 -20.667 2.83301 -40.334 8.5 -59.001s14 -35.167 25 -49.5s24.5 -25.666 40.5 -33.999s34.667 -12.5 56 -12.5s40 4 56 12s29.5 19 40.5 33s19.333 30.167 25 48.5s8.5 37.833 8.5 58.5
c0 21.333 -2.83301 41.333 -8.5 60s-14 35 -25 49s-24.5 25 -40.5 33s-34.667 12 -56 12zM225 708c16 0 29.668 -1.83105 41.001 -5.49805s22 -7.83398 32 -12.501s19.833 -8.83398 29.5 -12.501s20.5 -5.5 32.5 -5.5c8.66699 0 16 1.5 22 4.5s12.333 8.5 19 16.5
c3.33301 4.66699 7.5 8.83398 12.5 12.501s11.167 5.5 18.5 5.5c11.333 0 21 -4.5 29 -13.5s12 -20.5 12 -34.5c0 -20.667 -6.33301 -37.667 -19 -51c-9.33301 -11.333 -20 -20 -32 -26s-24.667 -9 -38 -9c-17.333 0 -32.333 2 -45 6s-24.334 8.5 -35.001 13.5
s-21 9.66699 -31 14s-21.333 6.5 -34 6.5c-12 0 -21.833 -2.33301 -29.5 -7s-14.5 -10.667 -20.5 -18c-4 -4.66699 -8.83301 -8.5 -14.5 -11.5s-13.167 -4.5 -22.5 -4.5c-12 0 -21.5 4.16699 -28.5 12.5s-10.5 18.5 -10.5 30.5c0 5.33301 1.33301 12.166 4 20.499
s7.33398 16.166 14.001 23.499c10.667 12.667 23.167 23.334 37.5 32.001s33.166 13 56.499 13z" />
    <glyph glyph-name="odieresis" unicode="&#xf6;" horiz-adv-x="592" 
d="M296 519c37.333 0 71.666 -6.83301 102.999 -20.5s58.333 -32.334 81 -56.001s40.334 -51.667 53.001 -84s19 -67.166 19 -104.499s-6.33301 -72 -19 -104s-30.334 -59.833 -53.001 -83.5s-49.667 -42.334 -81 -56.001s-65.666 -20.5 -102.999 -20.5
c-38 0 -72.667 6.83301 -104 20.5s-58.166 32.334 -80.499 56.001s-39.833 51.5 -52.5 83.5s-19 66.667 -19 104s6.33301 72.166 19 104.499s30.167 60.333 52.5 84s49.166 42.334 80.499 56.001s66 20.5 104 20.5zM296 407c-21.333 0 -40 -3.83301 -56 -11.5
s-29.5 -18.334 -40.5 -32.001s-19.333 -29.667 -25 -48s-8.5 -38.166 -8.5 -59.499c0 -20.667 2.83301 -40.334 8.5 -59.001s14 -35.167 25 -49.5s24.5 -25.666 40.5 -33.999s34.667 -12.5 56 -12.5s40 4 56 12s29.5 19 40.5 33s19.333 30.167 25 48.5s8.5 37.833 8.5 58.5
c0 21.333 -2.83301 41.333 -8.5 60s-14 35 -25 49s-24.5 25 -40.5 33s-34.667 12 -56 12zM212 692c16 0 29.667 -5.33301 41 -16s17 -25 17 -43c0 -20 -5.5 -34.667 -16.5 -44s-24.833 -14 -41.5 -14c-17.333 0 -31.333 4.83301 -42 14.5s-16 24.167 -16 43.5
c0 18 5.16699 32.333 15.5 43s24.5 16 42.5 16zM379 692c16.667 0 30.667 -5.16699 42 -15.5s17 -24.5 17 -42.5c0 -20.667 -5.66699 -35.5 -17 -44.5s-25.333 -13.5 -42 -13.5c-17.333 0 -31.166 4.83301 -41.499 14.5s-15.5 24.167 -15.5 43.5
c0 18 5.16699 32.167 15.5 42.5s24.166 15.5 41.499 15.5z" />
    <glyph glyph-name="divide" unicode="&#xf7;" 
d="M470 361c13.333 0 24.333 -4.33301 33 -13s13 -19.667 13 -33s-4.33301 -24.166 -13 -32.499s-19.667 -12.5 -33 -12.5h-312c-13.333 0 -24.5 4.33301 -33.5 13s-13.5 19.667 -13.5 33s4.5 24.166 13.5 32.499s20.167 12.5 33.5 12.5h312zM309 208
c20.667 0 38.332 -6.49902 52.999 -19.499s22 -31.167 22 -54.5c0 -25.333 -7.16699 -44 -21.5 -56s-32.166 -18 -53.499 -18c-22 0 -39.833 6.16699 -53.5 18.5s-20.5 30.5 -20.5 54.5c0 23.333 6.66699 41.666 20 54.999s31.333 20 54 20zM308.998 564.001
c20.667 0 38.332 -6.49902 52.999 -19.499s22 -31.167 22 -54.5c0 -25.333 -7.16699 -44 -21.5 -56s-32.166 -18 -53.499 -18c-22 0 -39.833 6.16699 -53.5 18.5s-20.5 30.5 -20.5 54.5c0 23.333 6.66699 41.666 20 54.999s31.333 20 54 20z" />
    <glyph glyph-name="oslash" unicode="&#xf8;" horiz-adv-x="592" 
d="M296 519c40 0 77.333 -8.33203 112 -24.999l3 4c6 8.66699 12.167 14.334 18.5 17.001s12.833 4 19.5 4c13.333 0 24 -4.16699 32 -12.5s12 -18.166 12 -29.499c0 -6.66699 -0.833008 -12 -2.5 -16s-3.5 -7.66699 -5.5 -11l-5 -7c22.667 -24 40.334 -52 53.001 -84
s19 -67 19 -105c0 -37.333 -6.33301 -72 -19 -104s-30.334 -59.833 -53.001 -83.5s-49.667 -42.334 -81 -56.001s-65.666 -20.5 -102.999 -20.5c-21.333 0 -41.666 2.33301 -60.999 7s-37.666 11 -54.999 19l-3 -4c-6.66699 -8.66699 -13.334 -14.5 -20.001 -17.5
s-13 -4.5 -19 -4.5c-12 0 -22.333 3.83301 -31 11.5s-13 17.5 -13 29.5c0 7.33301 1.16699 13.166 3.5 17.499s4.16602 8.16602 5.49902 11.499l6 8c-22 23.333 -39 51 -51 83s-18 66.333 -18 103c0 37.333 6.33301 72.166 19 104.499s30.167 60.333 52.5 84
s49.166 42.334 80.499 56.001s66 20.5 104 20.5zM426 253.001c0 16 -1.50098 31.333 -4.50098 46s-7.83301 28 -14.5 40l-161 -229c14.667 -6 31.334 -9 50.001 -9c21.333 0 40 4 56 12s29.5 19 40.5 33s19.333 30.167 25 48.5s8.5 37.833 8.5 58.5zM295.999 407.001
c-21.333 0 -40 -3.83301 -56 -11.5s-29.5 -18.334 -40.5 -32.001s-19.333 -29.667 -25 -48s-8.5 -38.166 -8.5 -59.499c0 -15.333 1.33301 -29.833 4 -43.5s7 -26.5 13 -38.5l158 225c-14 5.33301 -29 8 -45 8z" />
    <glyph glyph-name="ugrave" unicode="&#xf9;" horiz-adv-x="564" 
d="M377 449c0 17.333 5.83398 31.666 17.501 42.999s26.167 17 43.5 17s31.833 -5.66699 43.5 -17s17.5 -25.666 17.5 -42.999v-234c0 -33.333 -5 -63.666 -15 -90.999s-24.333 -51 -43 -71s-41.334 -35.5 -68.001 -46.5s-57 -16.5 -91 -16.5
c-33.333 0 -63.5 5.5 -90.5 16.5s-49.833 26.5 -68.5 46.5s-33 43.667 -43 71s-15 57.666 -15 90.999v234c0 17.333 5.83301 31.666 17.5 42.999s26.167 17 43.5 17s32 -5.66699 44 -17s18 -25.666 18 -42.999v-237c0 -34 7.83301 -61 23.5 -81s39.167 -30 70.5 -30
c32 0 55.833 10 71.5 30s23.5 47 23.5 81v237zM357.001 619c11.333 -10.667 17 -22 17 -34c0 -9.33301 -3.5 -18.166 -10.5 -26.499s-16.167 -12.5 -27.5 -12.5c-6 0 -14.333 3.33301 -25 10l-133 89c-14 9.33301 -21 23.666 -21 42.999c0 13.333 5.33301 25.333 16 36
s23 16 37 16c8.66699 0 16.5 -2 23.5 -6s13.167 -8.66699 18.5 -14z" />
    <glyph glyph-name="uacute" unicode="&#xfa;" horiz-adv-x="564" 
d="M377 449c0 17.333 5.83398 31.666 17.501 42.999s26.167 17 43.5 17s31.833 -5.66699 43.5 -17s17.5 -25.666 17.5 -42.999v-234c0 -33.333 -5 -63.666 -15 -90.999s-24.333 -51 -43 -71s-41.334 -35.5 -68.001 -46.5s-57 -16.5 -91 -16.5
c-33.333 0 -63.5 5.5 -90.5 16.5s-49.833 26.5 -68.5 46.5s-33 43.667 -43 71s-15 57.666 -15 90.999v234c0 17.333 5.83301 31.666 17.5 42.999s26.167 17 43.5 17s32 -5.66699 44 -17s18 -25.666 18 -42.999v-237c0 -34 7.83301 -61 23.5 -81s39.167 -30 70.5 -30
c32 0 55.833 10 71.5 30s23.5 47 23.5 81v237zM318.001 720c5.33301 5.33301 11.499 10.001 18.499 14.001s14.833 6 23.5 6c14 0 26.5 -5.33301 37.5 -16s16.5 -22.667 16.5 -36c0 -18.667 -7.33301 -33 -22 -43l-133 -89c-9.33301 -6.66699 -17.666 -10 -24.999 -10
c-11.333 0 -20.333 4.16699 -27 12.5s-10 17.166 -10 26.499c0 12 5.33301 23.333 16 34z" />
    <glyph glyph-name="ucircumflex" unicode="&#xfb;" horiz-adv-x="564" 
d="M377 449c0 17.333 5.83398 31.666 17.501 42.999s26.167 17 43.5 17s31.833 -5.66699 43.5 -17s17.5 -25.666 17.5 -42.999v-234c0 -33.333 -5 -63.666 -15 -90.999s-24.333 -51 -43 -71s-41.334 -35.5 -68.001 -46.5s-57 -16.5 -91 -16.5
c-33.333 0 -63.5 5.5 -90.5 16.5s-49.833 26.5 -68.5 46.5s-33 43.667 -43 71s-15 57.666 -15 90.999v234c0 17.333 5.83301 31.666 17.5 42.999s26.167 17 43.5 17s32 -5.66699 44 -17s18 -25.666 18 -42.999v-237c0 -34 7.83301 -61 23.5 -81s39.167 -30 70.5 -30
c32 0 55.833 10 71.5 30s23.5 47 23.5 81v237zM431.001 610c5.33301 -5.33301 9.33203 -10.501 11.999 -15.501s4 -10.167 4 -15.5c0 -7.33301 -3 -14.666 -9 -21.999s-13.667 -11 -23 -11c-3.33301 0 -6.83301 0.5 -10.5 1.5s-8.5 3.5 -14.5 7.5l-103 74l-103 -74
c-6 -3.33301 -10.833 -5.66602 -14.5 -6.99902s-6.83398 -2 -9.50098 -2c-9.33301 0 -17.166 3.66699 -23.499 11s-9.5 14.666 -9.5 21.999c0 5.33301 1.33301 10.5 4 15.5s6.66699 10.167 12 15.5l109 113c4.66699 5.33301 9.66699 9.5 15 12.5s12.333 4.5 21 4.5
c8 0 14.833 -1.66699 20.5 -5s10.834 -7.33301 15.501 -12z" />
    <glyph glyph-name="udieresis" unicode="&#xfc;" horiz-adv-x="564" 
d="M377 449c0 17.333 5.83398 31.666 17.501 42.999s26.167 17 43.5 17s31.833 -5.66699 43.5 -17s17.5 -25.666 17.5 -42.999v-234c0 -33.333 -5 -63.666 -15 -90.999s-24.333 -51 -43 -71s-41.334 -35.5 -68.001 -46.5s-57 -16.5 -91 -16.5
c-33.333 0 -63.5 5.5 -90.5 16.5s-49.833 26.5 -68.5 46.5s-33 43.667 -43 71s-15 57.666 -15 90.999v234c0 17.333 5.83301 31.666 17.5 42.999s26.167 17 43.5 17s32 -5.66699 44 -17s18 -25.666 18 -42.999v-237c0 -34 7.83301 -61 23.5 -81s39.167 -30 70.5 -30
c32 0 55.833 10 71.5 30s23.5 47 23.5 81v237zM198.001 692c16 0 29.667 -5.33301 41 -16s17 -25 17 -43c0 -20 -5.5 -34.667 -16.5 -44s-24.833 -14 -41.5 -14c-17.333 0 -31.333 4.83301 -42 14.5s-16 24.167 -16 43.5c0 18 5.16699 32.333 15.5 43s24.5 16 42.5 16z
M365.001 692c16.667 0 30.667 -5.16699 42 -15.5s17 -24.5 17 -42.5c0 -20.667 -5.66699 -35.5 -17 -44.5s-25.333 -13.5 -42 -13.5c-17.333 0 -31.166 4.83301 -41.499 14.5s-15.5 24.167 -15.5 43.5c0 18 5.16699 32.167 15.5 42.5s24.166 15.5 41.499 15.5z" />
    <glyph glyph-name="yacute" unicode="&#xfd;" horiz-adv-x="525" 
d="M201 1l-170.004 413.998c-2.66699 6 -4.5 12 -5.5 18s-1.5 11.333 -1.5 16c0 18 6.66699 32.5 20 43.5s29 16.5 47 16.5c13.333 0 24.5 -3.5 33.5 -10.5s15.833 -16.167 20.5 -27.5l115 -321l125 319c4.66699 10.667 10.834 20 18.501 28s18.834 12 33.501 12
c16.667 0 30.834 -5.16699 42.501 -15.5s17.5 -24.166 17.5 -41.499c0 -7.33301 -1 -14.666 -3 -21.999s-4 -13.333 -6 -18l-179 -432c-13.333 -32 -27.333 -59 -42 -81s-30.167 -39.5 -46.5 -52.5s-34.166 -22.333 -53.499 -28s-40 -8.5 -62 -8.5
c-25.333 0 -44 4.66699 -56 14s-18 22.666 -18 39.999c0 16.667 5 30.334 15 41.001s24.667 16 44 16c30 0 53 5.33301 69 16s28 26.667 36 48zM277.996 719.998c5.33301 5.33301 11.499 10.001 18.499 14.001s14.833 6 23.5 6c14 0 26.5 -5.33301 37.5 -16
s16.5 -22.667 16.5 -36c0 -18.667 -7.33301 -33 -22 -43l-133 -89c-9.33301 -6.66699 -17.666 -10 -24.999 -10c-11.333 0 -20.333 4.16699 -27 12.5s-10 17.166 -10 26.499c0 12 5.33301 23.333 16 34z" />
    <glyph glyph-name="thorn" unicode="&#xfe;" horiz-adv-x="621" 
d="M191 -131c0 -17.333 -5.66602 -31.5 -16.999 -42.5s-25.666 -16.5 -42.999 -16.5s-32 5.5 -44 16.5s-18 25.167 -18 42.5v770c0 11.333 5 22.666 15 33.999s25.667 17 47 17s36.666 -5.16699 45.999 -15.5s14 -22.5 14 -36.5v-221c15.333 28 35.833 52 61.5 72
s59.5 30 101.5 30c34 0 65 -6.5 93 -19.5s52 -31.167 72 -54.5s35.5 -51.333 46.5 -84s16.5 -68.334 16.5 -107.001c0 -38 -5.66699 -73.167 -17 -105.5s-27.166 -60.166 -47.499 -83.499s-44.833 -41.666 -73.5 -54.999s-60.334 -20 -95.001 -20
c-38.667 0 -71.334 9.66699 -98.001 29s-46.667 44 -60 74v-224zM324.001 101c20.667 0 39.167 4 55.5 12s30.166 19 41.499 33s20 30.333 26 49s9 38.334 9 59.001c0 21.333 -3 41.333 -9 60s-14.667 34.834 -26 48.501s-25.166 24.5 -41.499 32.5s-34.833 12 -55.5 12
s-39.167 -4 -55.5 -12s-30.333 -19 -42 -33s-20.5 -30.333 -26.5 -49s-9 -38.334 -9 -59.001c0 -21.333 3 -41.333 9 -60s14.833 -34.834 26.5 -48.501s25.667 -24.5 42 -32.5s34.833 -12 55.5 -12z" />
    <glyph glyph-name="ydieresis" unicode="&#xff;" horiz-adv-x="525" 
d="M201 1l-170.004 413.998c-2.66699 6 -4.5 12 -5.5 18s-1.5 11.333 -1.5 16c0 18 6.66699 32.5 20 43.5s29 16.5 47 16.5c13.333 0 24.5 -3.5 33.5 -10.5s15.833 -16.167 20.5 -27.5l115 -321l125 319c4.66699 10.667 10.834 20 18.501 28s18.834 12 33.501 12
c16.667 0 30.834 -5.16699 42.501 -15.5s17.5 -24.166 17.5 -41.499c0 -7.33301 -1 -14.666 -3 -21.999s-4 -13.333 -6 -18l-179 -432c-13.333 -32 -27.333 -59 -42 -81s-30.167 -39.5 -46.5 -52.5s-34.166 -22.333 -53.499 -28s-40 -8.5 -62 -8.5
c-25.333 0 -44 4.66699 -56 14s-18 22.666 -18 39.999c0 16.667 5 30.334 15 41.001s24.667 16 44 16c30 0 53 5.33301 69 16s28 26.667 36 48zM177.996 691.998c16 0 29.667 -5.33301 41 -16s17 -25 17 -43c0 -20 -5.5 -34.667 -16.5 -44s-24.833 -14 -41.5 -14
c-17.333 0 -31.333 4.83301 -42 14.5s-16 24.167 -16 43.5c0 18 5.16699 32.333 15.5 43s24.5 16 42.5 16zM344.996 691.998c16.667 0 30.667 -5.16699 42 -15.5s17 -24.5 17 -42.5c0 -20.667 -5.66699 -35.5 -17 -44.5s-25.333 -13.5 -42 -13.5
c-17.333 0 -31.166 4.83301 -41.499 14.5s-15.5 24.167 -15.5 43.5c0 18 5.16699 32.167 15.5 42.5s24.166 15.5 41.499 15.5z" />
    <glyph glyph-name="Amacron" unicode="&#x100;" horiz-adv-x="690" 
d="M486 155l-285.997 0.00195312l-46 -116c-6 -14.667 -13.667 -24.834 -23 -30.501s-21 -8.5 -35 -8.5c-18.667 0 -33.667 5 -45 15s-17 23.333 -17 40c0 7.33301 0.833008 14.166 2.5 20.499s4.5 14.166 8.5 23.499l228 536c7.33301 17.333 16.666 30.833 27.999 40.5
s26 14.5 44 14.5s32.833 -4.83301 44.5 -14.5s21.167 -23.167 28.5 -40.5l228 -536c6.66699 -15.333 10 -28 10 -38c0 -18.667 -6.33301 -33.5 -19 -44.5s-28.334 -16.5 -47.001 -16.5c-15.333 0 -27.833 3.83301 -37.5 11.5s-17.834 19.834 -24.501 36.501z
M241.003 259.002h204l-102 258zM448.003 904.002c13.333 0 24.333 -4.83301 33 -14.5s13 -21.167 13 -34.5s-4.33301 -25 -13 -35s-19.667 -15 -33 -15h-206c-13.333 0 -24.5 5 -33.5 15s-13.5 21.667 -13.5 35s4.5 24.833 13.5 34.5s20.167 14.5 33.5 14.5h206z" />
    <glyph glyph-name="amacron" unicode="&#x101;" horiz-adv-x="626" 
d="M552 156c0 -30 8.33008 -45.002 24.9971 -45.002c10 0 17.833 -4.16699 23.5 -12.5s8.5 -20.166 8.5 -35.499c0 -42 -25.667 -63 -77 -63c-33.333 0 -57.666 8.83301 -72.999 26.5s-25 38.167 -29 61.5l-1 12c-16 -35.333 -38.5 -62.5 -67.5 -81.5
s-63.167 -28.5 -102.5 -28.5c-30 0 -58.333 6.16699 -85 18.5s-50 29.833 -70 52.5s-35.833 50.167 -47.5 82.5s-17.5 68.5 -17.5 108.5s6.16699 76.5 18.5 109.5s29 61.167 50 84.5s45.333 41.333 73 54s56.834 19 87.501 19c41.333 0 74.833 -9.16699 100.5 -27.5
s45.834 -43.166 60.501 -74.499v40c0 15.333 5.66699 27.833 17 37.5s26.333 14.5 45 14.5s33.5 -4.83301 44.5 -14.5s16.5 -22.167 16.5 -37.5v-301zM296.997 100.998c18 0 35.166 3.49805 51.499 10.498s30.5 17 42.5 30s21.5 28.833 28.5 47.5s10.5 39.667 10.5 63
c0 46.667 -12.167 84.167 -36.5 112.5s-56.5 42.5 -96.5 42.5c-41.333 0 -73.666 -14.333 -96.999 -43s-35 -66 -35 -112c0 -23.333 3.33301 -44.166 10 -62.499s16 -34.166 28 -47.499s26 -23.5 42 -30.5s33.333 -10.5 52 -10.5zM414.996 703.996
c13.333 0 24.333 -4.83301 33 -14.5s13 -21.167 13 -34.5s-4.33301 -25 -13 -35s-19.667 -15 -33 -15h-206c-13.333 0 -24.5 5 -33.5 15s-13.5 21.667 -13.5 35s4.5 24.833 13.5 34.5s20.167 14.5 33.5 14.5h206z" />
    <glyph glyph-name="Abreve" unicode="&#x102;" horiz-adv-x="690" 
d="M486 155l-285.997 0.00195312l-46 -116c-6 -14.667 -13.667 -24.834 -23 -30.501s-21 -8.5 -35 -8.5c-18.667 0 -33.667 5 -45 15s-17 23.333 -17 40c0 7.33301 0.833008 14.166 2.5 20.499s4.5 14.166 8.5 23.499l228 536c7.33301 17.333 16.666 30.833 27.999 40.5
s26 14.5 44 14.5s32.833 -4.83301 44.5 -14.5s21.167 -23.167 28.5 -40.5l228 -536c6.66699 -15.333 10 -28 10 -38c0 -18.667 -6.33301 -33.5 -19 -44.5s-28.334 -16.5 -47.001 -16.5c-15.333 0 -27.833 3.83301 -37.5 11.5s-17.834 19.834 -24.501 36.501z
M241.003 259.002h204l-102 258zM341.003 760.002c-19.333 0 -37.5 3.33301 -54.5 10s-32 15.667 -45 27s-23.167 24.666 -30.5 39.999s-11 31.666 -11 48.999c0 10 3.16699 19.167 9.5 27.5s16.166 12.5 29.499 12.5c20 0 33.333 -10.333 40 -31
c6 -19.333 14.167 -32.833 24.5 -40.5s23.166 -11.5 38.499 -11.5c16 0 29 3.83301 39 11.5s18.333 21.167 25 40.5c5.33301 20.667 18.333 31 39 31c14 0 24.167 -4.16699 30.5 -12.5s9.5 -17.5 9.5 -27.5c0 -17.333 -3.83301 -33.666 -11.5 -48.999
s-18.167 -28.666 -31.5 -39.999s-28.666 -20.333 -45.999 -27s-35.666 -10 -54.999 -10z" />
    <glyph glyph-name="abreve" unicode="&#x103;" horiz-adv-x="626" 
d="M552 156c0 -30 8.33008 -45.002 24.9971 -45.002c10 0 17.833 -4.16699 23.5 -12.5s8.5 -20.166 8.5 -35.499c0 -42 -25.667 -63 -77 -63c-33.333 0 -57.666 8.83301 -72.999 26.5s-25 38.167 -29 61.5l-1 12c-16 -35.333 -38.5 -62.5 -67.5 -81.5
s-63.167 -28.5 -102.5 -28.5c-30 0 -58.333 6.16699 -85 18.5s-50 29.833 -70 52.5s-35.833 50.167 -47.5 82.5s-17.5 68.5 -17.5 108.5s6.16699 76.5 18.5 109.5s29 61.167 50 84.5s45.333 41.333 73 54s56.834 19 87.501 19c41.333 0 74.833 -9.16699 100.5 -27.5
s45.834 -43.166 60.501 -74.499v40c0 15.333 5.66699 27.833 17 37.5s26.333 14.5 45 14.5s33.5 -4.83301 44.5 -14.5s16.5 -22.167 16.5 -37.5v-301zM296.997 100.998c18 0 35.166 3.49805 51.499 10.498s30.5 17 42.5 30s21.5 28.833 28.5 47.5s10.5 39.667 10.5 63
c0 46.667 -12.167 84.167 -36.5 112.5s-56.5 42.5 -96.5 42.5c-41.333 0 -73.666 -14.333 -96.999 -43s-35 -66 -35 -112c0 -23.333 3.33301 -44.166 10 -62.499s16 -34.166 28 -47.499s26 -23.5 42 -30.5s33.333 -10.5 52 -10.5zM307.996 559.996
c-19.333 0 -37.5 3.33301 -54.5 10s-32 15.667 -45 27s-23.167 24.666 -30.5 39.999s-11 31.666 -11 48.999c0 10 3.16699 19.167 9.5 27.5s16.166 12.5 29.499 12.5c20 0 33.333 -10.333 40 -31c6 -19.333 14.167 -32.833 24.5 -40.5s23.166 -11.5 38.499 -11.5
c16 0 29 3.83301 39 11.5s18.333 21.167 25 40.5c5.33301 20.667 18.333 31 39 31c14 0 24.167 -4.16699 30.5 -12.5s9.5 -17.5 9.5 -27.5c0 -17.333 -3.83301 -33.666 -11.5 -48.999s-18.167 -28.666 -31.5 -39.999s-28.666 -20.333 -45.999 -27s-35.666 -10 -54.999 -10z
" />
    <glyph glyph-name="Aogonek" unicode="&#x104;" horiz-adv-x="690" 
d="M486 155l-285.998 0.00195312l-46 -116c-6 -14.667 -13.667 -24.834 -23 -30.501s-21 -8.5 -35 -8.5c-18.667 0 -33.667 5 -45 15s-17 23.333 -17 40c0 7.33301 0.833008 14.166 2.5 20.499s4.5 14.166 8.5 23.499l228 536c7.33301 17.333 16.666 30.833 27.999 40.5
s26 14.5 44 14.5s32.833 -4.83301 44.5 -14.5s21.167 -23.167 28.5 -40.5l228 -536c6.66699 -15.333 10 -28 10 -38c0 -16.667 -5 -30.167 -15 -40.5s-22.667 -16.833 -38 -19.5c-18.667 -14 -32.5 -29 -41.5 -45s-13.5 -30.667 -13.5 -44c0 -10.667 3.33301 -20 10 -28
s17.667 -12.667 33 -14c30.667 -2 46 -15.333 46 -40c0 -15.333 -6 -26.166 -18 -32.499s-27.667 -9.5 -47 -9.5c-30.667 0 -56.834 7.83301 -78.501 23.5s-32.5 39.834 -32.5 72.501c0 27.333 8.66699 52.166 26 74.499s38 40.833 62 55.5
c-9.33301 8 -16.333 19.333 -21 34zM241.002 259.002h204l-102 258z" />
    <glyph glyph-name="aogonek" unicode="&#x105;" horiz-adv-x="626" 
d="M552 156c0 -30 8.33008 -45.0049 24.9971 -45.0049c10 0 17.833 -4.16699 23.5 -12.5s8.5 -20.166 8.5 -35.499c0 -34.667 -18 -55 -54 -61c-19.333 -14 -33.666 -29.167 -42.999 -45.5s-14 -31.166 -14 -44.499c0 -10.667 3.5 -20 10.5 -28s18.167 -12.667 33.5 -14
c30 -2 45 -15.333 45 -40c0 -15.333 -5.83301 -26.166 -17.5 -32.499s-27.167 -9.5 -46.5 -9.5c-30.667 0 -57 7.83301 -79 23.5s-33 39.834 -33 72.501c0 25.333 7.5 48.333 22.5 69s33.167 38.667 54.5 54c-17.333 7.33301 -30.5 18.333 -39.5 33s-15.167 30.667 -18.5 48
l-1 12c-16 -35.333 -38.5 -62.5 -67.5 -81.5s-63.167 -28.5 -102.5 -28.5c-30 0 -58.333 6.16699 -85 18.5s-50 29.833 -70 52.5s-35.833 50.167 -47.5 82.5s-17.5 68.5 -17.5 108.5s6.16699 76.5 18.5 109.5s29 61.167 50 84.5s45.333 41.333 73 54s56.834 19 87.501 19
c41.333 0 74.833 -9.16699 100.5 -27.5s45.834 -43.166 60.501 -74.499v40c0 15.333 5.66699 27.833 17 37.5s26.333 14.5 45 14.5s33.5 -4.83301 44.5 -14.5s16.5 -22.167 16.5 -37.5v-301zM296.997 100.995c18 0 35.166 3.49805 51.499 10.498s30.5 17 42.5 30
s21.5 28.833 28.5 47.5s10.5 39.667 10.5 63c0 46.667 -12.167 84.167 -36.5 112.5s-56.5 42.5 -96.5 42.5c-41.333 0 -73.666 -14.333 -96.999 -43s-35 -66 -35 -112c0 -23.333 3.33301 -44.166 10 -62.499s16 -34.166 28 -47.499s26 -23.5 42 -30.5s33.333 -10.5 52 -10.5
z" />
    <glyph glyph-name="Cacute" unicode="&#x106;" horiz-adv-x="688" 
d="M541 486c-11.333 13.333 -22.665 25.5059 -33.998 36.5059s-23.5 20.5 -36.5 28.5s-27.333 14.333 -43 19s-33.834 7 -54.501 7c-30 0 -57 -5.66699 -81 -17s-44.5 -27.333 -61.5 -48s-30 -45.5 -39 -74.5s-13.5 -60.833 -13.5 -95.5c0 -34 4.66699 -65 14 -93
s22.666 -52 39.999 -72s38.833 -35.667 64.5 -47s54.5 -17 86.5 -17c36.667 0 67.334 7.33301 92.001 22s48.667 35.667 72 63c11.333 12 25 18 41 18s29 -6.33301 39 -19s15 -25.334 15 -38.001c0 -8 -1.33301 -16.333 -4 -25s-7.66699 -17.667 -15 -27
c-9.33301 -11.333 -21.333 -23.833 -36 -37.5s-32.167 -26.334 -52.5 -38.001s-44 -21.5 -71 -29.5s-57.167 -12 -90.5 -12c-48 0 -91.833 8.33301 -131.5 25s-73.834 40.5 -102.501 71.5s-50.834 68.167 -66.501 111.5s-23.5 91.666 -23.5 144.999
c0 52.667 7.83301 101 23.5 145s37.834 81.667 66.501 113s62.834 55.666 102.501 72.999s83.5 26 131.5 26c37.333 0 70.5 -4.66699 99.5 -14s54 -20.5 75 -33.5s38.167 -26.333 51.5 -40s23 -24.834 29 -33.501c5.33301 -8.66699 9.33301 -17.5 12 -26.5
s4 -17.167 4 -24.5c0 -10 -1.83301 -18.833 -5.5 -26.5s-8.5 -14 -14.5 -19s-12.5 -8.66699 -19.5 -11s-13.5 -3.5 -19.5 -3.5c-7.33301 0 -14.833 1.16699 -22.5 3.5s-14.834 7.16602 -21.501 14.499zM387.001 920.006c5.33301 5.33301 11.499 10.001 18.499 14.001
s14.833 6 23.5 6c14 0 26.5 -5.33301 37.5 -16s16.5 -22.667 16.5 -36c0 -18.667 -7.33301 -33 -22 -43l-133 -89c-9.33301 -6.66699 -17.666 -10 -24.999 -10c-11.333 0 -20.333 4.16699 -27 12.5s-10 17.166 -10 26.499c0 12 5.33301 23.333 16 34z" />
    <glyph glyph-name="cacute" unicode="&#x107;" horiz-adv-x="530" 
d="M436 171c12 0 24.0059 -4.34082 36.0059 -13.0078s18 -21.667 18 -39c0 -20.667 -7 -38 -21 -52c-8 -9.33301 -17.667 -18.666 -29 -27.999s-24.333 -17.666 -39 -24.999s-31.334 -13.166 -50.001 -17.499s-39.667 -6.5 -63 -6.5c-38 0 -72.333 6.83301 -103 20.5
s-56.834 32.334 -78.501 56.001s-38.334 51.667 -50.001 84s-17.5 67.166 -17.5 104.499s6.33301 72 19 104s30 59.833 52 83.5s48.167 42.334 78.5 56.001s63.5 20.5 99.5 20.5c40 0 76.167 -7 108.5 -21s59.166 -35 80.499 -63c12.667 -16.667 19 -33 19 -49
c0 -19.333 -5.83301 -33.166 -17.5 -41.499s-23.5 -12.5 -35.5 -12.5c-11.333 0 -20.333 2 -27 6s-12.334 8.33301 -17.001 13c-4 4 -9 9.16699 -15 15.5s-13.5 12.5 -22.5 18.5s-19.333 11.167 -31 15.5s-25.5 6.5 -41.5 6.5c-20 0 -37.667 -4.16699 -53 -12.5
s-28.333 -19.666 -39 -33.999s-18.667 -30.666 -24 -48.999s-8 -37.5 -8 -57.5s2.66699 -39.167 8 -57.5s13.333 -34.666 24 -48.999s23.5 -25.666 38.5 -33.999s32.5 -12.5 52.5 -12.5c21.333 0 40.666 4.83301 57.999 14.5s34 22.167 50 37.5
c8 7.33301 15.5 12.166 22.5 14.499s12.833 3.5 17.5 3.5zM300.006 719.992c5.33301 5.33301 11.499 10.001 18.499 14.001s14.833 6 23.5 6c14 0 26.5 -5.33301 37.5 -16s16.5 -22.667 16.5 -36c0 -18.667 -7.33301 -33 -22 -43l-133 -89
c-9.33301 -6.66699 -17.666 -10 -24.999 -10c-11.333 0 -20.333 4.16699 -27 12.5s-10 17.166 -10 26.499c0 12 5.33301 23.333 16 34z" />
    <glyph glyph-name="Ccircumflex" unicode="&#x108;" horiz-adv-x="688" 
d="M541 486c-11.333 13.333 -22.665 25.5059 -33.998 36.5059s-23.5 20.5 -36.5 28.5s-27.333 14.333 -43 19s-33.834 7 -54.501 7c-30 0 -57 -5.66699 -81 -17s-44.5 -27.333 -61.5 -48s-30 -45.5 -39 -74.5s-13.5 -60.833 -13.5 -95.5c0 -34 4.66699 -65 14 -93
s22.666 -52 39.999 -72s38.833 -35.667 64.5 -47s54.5 -17 86.5 -17c36.667 0 67.334 7.33301 92.001 22s48.667 35.667 72 63c11.333 12 25 18 41 18s29 -6.33301 39 -19s15 -25.334 15 -38.001c0 -8 -1.33301 -16.333 -4 -25s-7.66699 -17.667 -15 -27
c-9.33301 -11.333 -21.333 -23.833 -36 -37.5s-32.167 -26.334 -52.5 -38.001s-44 -21.5 -71 -29.5s-57.167 -12 -90.5 -12c-48 0 -91.833 8.33301 -131.5 25s-73.834 40.5 -102.501 71.5s-50.834 68.167 -66.501 111.5s-23.5 91.666 -23.5 144.999
c0 52.667 7.83301 101 23.5 145s37.834 81.667 66.501 113s62.834 55.666 102.501 72.999s83.5 26 131.5 26c37.333 0 70.5 -4.66699 99.5 -14s54 -20.5 75 -33.5s38.167 -26.333 51.5 -40s23 -24.834 29 -33.501c5.33301 -8.66699 9.33301 -17.5 12 -26.5
s4 -17.167 4 -24.5c0 -10 -1.83301 -18.833 -5.5 -26.5s-8.5 -14 -14.5 -19s-12.5 -8.66699 -19.5 -11s-13.5 -3.5 -19.5 -3.5c-7.33301 0 -14.833 1.16699 -22.5 3.5s-14.834 7.16602 -21.501 14.499zM520.001 810.006c5.33301 -5.33301 9.33203 -10.501 11.999 -15.501
s4 -10.167 4 -15.5c0 -7.33301 -3 -14.666 -9 -21.999s-13.667 -11 -23 -11c-3.33301 0 -6.83301 0.5 -10.5 1.5s-8.5 3.5 -14.5 7.5l-103 74l-103 -74c-6 -3.33301 -10.833 -5.66602 -14.5 -6.99902s-6.83398 -2 -9.50098 -2c-9.33301 0 -17.166 3.66699 -23.499 11
s-9.5 14.666 -9.5 21.999c0 5.33301 1.33301 10.5 4 15.5s6.66699 10.167 12 15.5l109 113c4.66699 5.33301 9.66699 9.5 15 12.5s12.333 4.5 21 4.5c8 0 14.833 -1.66699 20.5 -5s10.834 -7.33301 15.501 -12z" />
    <glyph glyph-name="ccircumflex" unicode="&#x109;" horiz-adv-x="530" 
d="M436 171c12 0 24.0059 -4.34082 36.0059 -13.0078s18 -21.667 18 -39c0 -20.667 -7 -38 -21 -52c-8 -9.33301 -17.667 -18.666 -29 -27.999s-24.333 -17.666 -39 -24.999s-31.334 -13.166 -50.001 -17.499s-39.667 -6.5 -63 -6.5c-38 0 -72.333 6.83301 -103 20.5
s-56.834 32.334 -78.501 56.001s-38.334 51.667 -50.001 84s-17.5 67.166 -17.5 104.499s6.33301 72 19 104s30 59.833 52 83.5s48.167 42.334 78.5 56.001s63.5 20.5 99.5 20.5c40 0 76.167 -7 108.5 -21s59.166 -35 80.499 -63c12.667 -16.667 19 -33 19 -49
c0 -19.333 -5.83301 -33.166 -17.5 -41.499s-23.5 -12.5 -35.5 -12.5c-11.333 0 -20.333 2 -27 6s-12.334 8.33301 -17.001 13c-4 4 -9 9.16699 -15 15.5s-13.5 12.5 -22.5 18.5s-19.333 11.167 -31 15.5s-25.5 6.5 -41.5 6.5c-20 0 -37.667 -4.16699 -53 -12.5
s-28.333 -19.666 -39 -33.999s-18.667 -30.666 -24 -48.999s-8 -37.5 -8 -57.5s2.66699 -39.167 8 -57.5s13.333 -34.666 24 -48.999s23.5 -25.666 38.5 -33.999s32.5 -12.5 52.5 -12.5c21.333 0 40.666 4.83301 57.999 14.5s34 22.167 50 37.5
c8 7.33301 15.5 12.166 22.5 14.499s12.833 3.5 17.5 3.5zM433.006 609.992c5.33301 -5.33301 9.33203 -10.501 11.999 -15.501s4 -10.167 4 -15.5c0 -7.33301 -3 -14.666 -9 -21.999s-13.667 -11 -23 -11c-3.33301 0 -6.83301 0.5 -10.5 1.5s-8.5 3.5 -14.5 7.5l-103 74
l-103 -74c-6 -3.33301 -10.833 -5.66602 -14.5 -6.99902s-6.83398 -2 -9.50098 -2c-9.33301 0 -17.166 3.66699 -23.499 11s-9.5 14.666 -9.5 21.999c0 5.33301 1.33301 10.5 4 15.5s6.66699 10.167 12 15.5l109 113c4.66699 5.33301 9.66699 9.5 15 12.5s12.333 4.5 21 4.5
c8 0 14.833 -1.66699 20.5 -5s10.834 -7.33301 15.501 -12z" />
    <glyph glyph-name="Cdotaccent" unicode="&#x10a;" horiz-adv-x="688" 
d="M541 486c-11.333 13.333 -22.665 25.5059 -33.998 36.5059s-23.5 20.5 -36.5 28.5s-27.333 14.333 -43 19s-33.834 7 -54.501 7c-30 0 -57 -5.66699 -81 -17s-44.5 -27.333 -61.5 -48s-30 -45.5 -39 -74.5s-13.5 -60.833 -13.5 -95.5c0 -34 4.66699 -65 14 -93
s22.666 -52 39.999 -72s38.833 -35.667 64.5 -47s54.5 -17 86.5 -17c36.667 0 67.334 7.33301 92.001 22s48.667 35.667 72 63c11.333 12 25 18 41 18s29 -6.33301 39 -19s15 -25.334 15 -38.001c0 -8 -1.33301 -16.333 -4 -25s-7.66699 -17.667 -15 -27
c-9.33301 -11.333 -21.333 -23.833 -36 -37.5s-32.167 -26.334 -52.5 -38.001s-44 -21.5 -71 -29.5s-57.167 -12 -90.5 -12c-48 0 -91.833 8.33301 -131.5 25s-73.834 40.5 -102.501 71.5s-50.834 68.167 -66.501 111.5s-23.5 91.666 -23.5 144.999
c0 52.667 7.83301 101 23.5 145s37.834 81.667 66.501 113s62.834 55.666 102.501 72.999s83.5 26 131.5 26c37.333 0 70.5 -4.66699 99.5 -14s54 -20.5 75 -33.5s38.167 -26.333 51.5 -40s23 -24.834 29 -33.501c5.33301 -8.66699 9.33301 -17.5 12 -26.5
s4 -17.167 4 -24.5c0 -10 -1.83301 -18.833 -5.5 -26.5s-8.5 -14 -14.5 -19s-12.5 -8.66699 -19.5 -11s-13.5 -3.5 -19.5 -3.5c-7.33301 0 -14.833 1.16699 -22.5 3.5s-14.834 7.16602 -21.501 14.499zM370.001 927.006c21.333 0 39.002 -6.33301 53.002 -19
s21 -30.667 21 -54c0 -25.333 -7.16699 -43.5 -21.5 -54.5s-31.833 -16.5 -52.5 -16.5s-37.834 6 -51.501 18s-20.5 29.667 -20.5 53c0 22.667 6.66699 40.5 20 53.5s30.666 19.5 51.999 19.5z" />
    <glyph glyph-name="cdotaccent" unicode="&#x10b;" horiz-adv-x="530" 
d="M436 171c12 0 24.0059 -4.34082 36.0059 -13.0078s18 -21.667 18 -39c0 -20.667 -7 -38 -21 -52c-8 -9.33301 -17.667 -18.666 -29 -27.999s-24.333 -17.666 -39 -24.999s-31.334 -13.166 -50.001 -17.499s-39.667 -6.5 -63 -6.5c-38 0 -72.333 6.83301 -103 20.5
s-56.834 32.334 -78.501 56.001s-38.334 51.667 -50.001 84s-17.5 67.166 -17.5 104.499s6.33301 72 19 104s30 59.833 52 83.5s48.167 42.334 78.5 56.001s63.5 20.5 99.5 20.5c40 0 76.167 -7 108.5 -21s59.166 -35 80.499 -63c12.667 -16.667 19 -33 19 -49
c0 -19.333 -5.83301 -33.166 -17.5 -41.499s-23.5 -12.5 -35.5 -12.5c-11.333 0 -20.333 2 -27 6s-12.334 8.33301 -17.001 13c-4 4 -9 9.16699 -15 15.5s-13.5 12.5 -22.5 18.5s-19.333 11.167 -31 15.5s-25.5 6.5 -41.5 6.5c-20 0 -37.667 -4.16699 -53 -12.5
s-28.333 -19.666 -39 -33.999s-18.667 -30.666 -24 -48.999s-8 -37.5 -8 -57.5s2.66699 -39.167 8 -57.5s13.333 -34.666 24 -48.999s23.5 -25.666 38.5 -33.999s32.5 -12.5 52.5 -12.5c21.333 0 40.666 4.83301 57.999 14.5s34 22.167 50 37.5
c8 7.33301 15.5 12.166 22.5 14.499s12.833 3.5 17.5 3.5zM289.006 726.992c21.333 0 39.002 -6.33301 53.002 -19s21 -30.667 21 -54c0 -25.333 -7.16699 -43.5 -21.5 -54.5s-31.833 -16.5 -52.5 -16.5s-37.834 6 -51.501 18s-20.5 29.667 -20.5 53
c0 22.667 6.66699 40.5 20 53.5s30.666 19.5 51.999 19.5z" />
    <glyph glyph-name="Ccaron" unicode="&#x10c;" horiz-adv-x="688" 
d="M541 486c-11.333 13.333 -22.665 25.5059 -33.998 36.5059s-23.5 20.5 -36.5 28.5s-27.333 14.333 -43 19s-33.834 7 -54.501 7c-30 0 -57 -5.66699 -81 -17s-44.5 -27.333 -61.5 -48s-30 -45.5 -39 -74.5s-13.5 -60.833 -13.5 -95.5c0 -34 4.66699 -65 14 -93
s22.666 -52 39.999 -72s38.833 -35.667 64.5 -47s54.5 -17 86.5 -17c36.667 0 67.334 7.33301 92.001 22s48.667 35.667 72 63c11.333 12 25 18 41 18s29 -6.33301 39 -19s15 -25.334 15 -38.001c0 -8 -1.33301 -16.333 -4 -25s-7.66699 -17.667 -15 -27
c-9.33301 -11.333 -21.333 -23.833 -36 -37.5s-32.167 -26.334 -52.5 -38.001s-44 -21.5 -71 -29.5s-57.167 -12 -90.5 -12c-48 0 -91.833 8.33301 -131.5 25s-73.834 40.5 -102.501 71.5s-50.834 68.167 -66.501 111.5s-23.5 91.666 -23.5 144.999
c0 52.667 7.83301 101 23.5 145s37.834 81.667 66.501 113s62.834 55.666 102.501 72.999s83.5 26 131.5 26c37.333 0 70.5 -4.66699 99.5 -14s54 -20.5 75 -33.5s38.167 -26.333 51.5 -40s23 -24.834 29 -33.501c5.33301 -8.66699 9.33301 -17.5 12 -26.5
s4 -17.167 4 -24.5c0 -10 -1.83301 -18.833 -5.5 -26.5s-8.5 -14 -14.5 -19s-12.5 -8.66699 -19.5 -11s-13.5 -3.5 -19.5 -3.5c-7.33301 0 -14.833 1.16699 -22.5 3.5s-14.834 7.16602 -21.501 14.499zM413.001 763.006c-4.66699 -4.66699 -9.83301 -8.66797 -15.5 -12.001
s-12.5 -5 -20.5 -5c-8.66699 0 -15.667 1.5 -21 4.5s-10.333 7.16699 -15 12.5l-109 113c-5.33301 5.33301 -9.33301 10.5 -12 15.5s-4 10.167 -4 15.5c0 7.33301 3.16699 14.666 9.5 21.999s14.166 11 23.499 11c2.66699 0 5.83398 -0.666992 9.50098 -2
s8.5 -3.66602 14.5 -6.99902l103 -74l103 74c6 4 10.833 6.5 14.5 7.5s7.16699 1.5 10.5 1.5c9.33301 0 17 -3.66699 23 -11s9 -14.666 9 -21.999c0 -5.33301 -1.33301 -10.5 -4 -15.5s-6.66699 -10.167 -12 -15.5z" />
    <glyph glyph-name="ccaron" unicode="&#x10d;" horiz-adv-x="530" 
d="M436 171c12 0 24.0059 -4.34082 36.0059 -13.0078s18 -21.667 18 -39c0 -20.667 -7 -38 -21 -52c-8 -9.33301 -17.667 -18.666 -29 -27.999s-24.333 -17.666 -39 -24.999s-31.334 -13.166 -50.001 -17.499s-39.667 -6.5 -63 -6.5c-38 0 -72.333 6.83301 -103 20.5
s-56.834 32.334 -78.501 56.001s-38.334 51.667 -50.001 84s-17.5 67.166 -17.5 104.499s6.33301 72 19 104s30 59.833 52 83.5s48.167 42.334 78.5 56.001s63.5 20.5 99.5 20.5c40 0 76.167 -7 108.5 -21s59.166 -35 80.499 -63c12.667 -16.667 19 -33 19 -49
c0 -19.333 -5.83301 -33.166 -17.5 -41.499s-23.5 -12.5 -35.5 -12.5c-11.333 0 -20.333 2 -27 6s-12.334 8.33301 -17.001 13c-4 4 -9 9.16699 -15 15.5s-13.5 12.5 -22.5 18.5s-19.333 11.167 -31 15.5s-25.5 6.5 -41.5 6.5c-20 0 -37.667 -4.16699 -53 -12.5
s-28.333 -19.666 -39 -33.999s-18.667 -30.666 -24 -48.999s-8 -37.5 -8 -57.5s2.66699 -39.167 8 -57.5s13.333 -34.666 24 -48.999s23.5 -25.666 38.5 -33.999s32.5 -12.5 52.5 -12.5c21.333 0 40.666 4.83301 57.999 14.5s34 22.167 50 37.5
c8 7.33301 15.5 12.166 22.5 14.499s12.833 3.5 17.5 3.5zM326.006 562.992c-4.66699 -4.66699 -9.83301 -8.66797 -15.5 -12.001s-12.5 -5 -20.5 -5c-8.66699 0 -15.667 1.5 -21 4.5s-10.333 7.16699 -15 12.5l-109 113c-5.33301 5.33301 -9.33301 10.5 -12 15.5
s-4 10.167 -4 15.5c0 7.33301 3.16699 14.666 9.5 21.999s14.166 11 23.499 11c2.66699 0 5.83398 -0.666992 9.50098 -2s8.5 -3.66602 14.5 -6.99902l103 -74l103 74c6 4 10.833 6.5 14.5 7.5s7.16699 1.5 10.5 1.5c9.33301 0 17 -3.66699 23 -11s9 -14.666 9 -21.999
c0 -5.33301 -1.33301 -10.5 -4 -15.5s-6.66699 -10.167 -12 -15.5z" />
    <glyph glyph-name="Dcaron" unicode="&#x10e;" horiz-adv-x="695" 
d="M335 690c46.667 0 89.168 -8.16309 127.501 -24.4961s71.166 -39.5 98.499 -69.5s48.333 -66 63 -108s22 -88.667 22 -140c0 -50.667 -7.66699 -97.334 -23 -140.001s-36.666 -79.334 -63.999 -110.001s-60 -54.667 -98 -72s-80 -26 -126 -26h-196
c-22.667 0 -38.834 5.66699 -48.501 17s-14.5 26.666 -14.5 45.999v564c0 19.333 5.16699 34.666 15.5 45.999s26.5 17 48.5 17h195zM327.001 111.004c30.667 0 57.832 5.66699 81.499 17s43.5 27.333 59.5 48s28.167 45.5 36.5 74.5s12.5 61.5 12.5 97.5
c0 72 -16.667 128.333 -50 169s-81.666 61 -144.999 61h-120v-467h125zM338.999 763.004c-4.66699 -4.66699 -9.83301 -8.66797 -15.5 -12.001s-12.5 -5 -20.5 -5c-8.66699 0 -15.667 1.5 -21 4.5s-10.333 7.16699 -15 12.5l-109 113
c-5.33301 5.33301 -9.33301 10.5 -12 15.5s-4 10.167 -4 15.5c0 7.33301 3.16699 14.666 9.5 21.999s14.166 11 23.499 11c2.66699 0 5.83398 -0.666992 9.50098 -2s8.5 -3.66602 14.5 -6.99902l103 -74l103 74c6 4 10.833 6.5 14.5 7.5s7.16699 1.5 10.5 1.5
c9.33301 0 17 -3.66699 23 -11s9 -14.666 9 -21.999c0 -5.33301 -1.33301 -10.5 -4 -15.5s-6.66699 -10.167 -12 -15.5z" />
    <glyph glyph-name="dcaron" unicode="&#x10f;" horiz-adv-x="691" 
d="M429 630c0 17.333 5.99805 31.666 17.998 42.999s26.667 17 44 17s31.833 -5.66699 43.5 -17s17.5 -25.666 17.5 -42.999v-566c0 -22.667 -5.66699 -39 -17 -49s-26.666 -15 -45.999 -15c-20 -0 -35 5.83301 -45 17.5s-15 25.5 -15 41.5v41
c-16.667 -34.667 -38.667 -61.667 -66 -81s-60.666 -29 -99.999 -29c-30 0 -58.5 5.83301 -85.5 17.5s-50.833 28.834 -71.5 51.501s-37 50.167 -49 82.5s-18 69.166 -18 110.499s6.16699 78.5 18.5 111.5s29.166 61 50.499 84s46 40.667 74 53s57.667 18.5 89 18.5
c42.667 0 76.334 -9.5 101.001 -28.5s43.667 -43.5 57 -73.5v213zM296.998 101c18 0 35.166 3.5 51.499 10.5s30.5 17 42.5 30s21.5 29 28.5 48s10.5 40.167 10.5 63.5c0 46.667 -12.5 84 -37.5 112s-56.833 42 -95.5 42c-41.333 0 -73.666 -14.167 -96.999 -42.5
s-35 -65.5 -35 -111.5c0 -23.333 3.33301 -44.333 10 -63s16 -34.5 28 -47.5s26 -23.167 42 -30.5s33.333 -11 52 -11zM728.997 661c0 -28.667 -3.99902 -52.833 -11.999 -72.5s-17.667 -35.667 -29 -48s-23.333 -21.166 -36 -26.499s-24 -8 -34 -8
c-11.333 0 -19.833 2.66699 -25.5 8s-8.5 12.333 -8.5 21c0 6 1.66699 11.833 5 17.5s8 9.83398 14 12.501c15.333 5.33301 27.166 13.166 35.499 23.499s12.5 22.166 12.5 35.499c-19.333 3.33301 -33 10.333 -41 21s-12 23 -12 37c0 20.667 6.16699 36.834 18.5 48.501
s26.5 17.5 42.5 17.5c19.333 0 35.833 -7.33301 49.5 -22s20.5 -36.334 20.5 -65.001z" />
    <glyph glyph-name="Dcroat" unicode="&#x110;" horiz-adv-x="695" 
d="M335 690c46.667 0 89.168 -8.16309 127.501 -24.4961s71.166 -39.5 98.499 -69.5s48.333 -66 63 -108s22 -88.667 22 -140c0 -50.667 -7.66699 -97.334 -23 -140.001s-36.666 -79.334 -63.999 -110.001s-60 -54.667 -98 -72s-80 -26 -126 -26h-196
c-22.667 0 -38.834 5.66699 -48.501 17s-14.5 26.666 -14.5 45.999v236h-22c-17.333 0 -32 5.33301 -44 16s-18 25.334 -18 44.001c0 19.333 6 34.166 18 44.499s26.667 15.5 44 15.5h22v208c0 19.333 5.16699 34.666 15.5 45.999s26.5 17 48.5 17h195zM327.001 111.004
c30.667 0 57.832 5.66699 81.499 17s43.5 27.333 59.5 48s28.167 45.5 36.5 74.5s12.5 61.5 12.5 97.5c0 72 -16.667 128.333 -50 169s-81.666 61 -144.999 61h-120v-159h84c17.333 0 32.166 -5.16699 44.499 -15.5s18.5 -25.166 18.5 -44.499
c0 -18.667 -6.16699 -33.334 -18.5 -44.001s-27.166 -16 -44.499 -16h-84v-188h125z" />
    <glyph glyph-name="dcroat" unicode="&#x111;" horiz-adv-x="621" 
d="M431 647c3.33301 13.333 10.4971 23.833 21.4971 31.5s23.833 11.5 38.5 11.5s27.334 -3.83301 38.001 -11.5s17.667 -18.167 21 -31.5h16c13.333 0 24.333 -5 33 -15s13 -21.667 13 -35s-4.33301 -24.833 -13 -34.5s-19.667 -14.5 -33 -14.5h-14v-484
c0 -22.667 -5.66699 -39 -17 -49s-26.666 -15 -45.999 -15c-20 -0 -35 5.83301 -45 17.5s-15 25.5 -15 41.5v41c-16.667 -34.667 -38.667 -61.667 -66 -81s-60.666 -29 -99.999 -29c-30 0 -58.5 5.83301 -85.5 17.5s-50.833 28.834 -71.5 51.501s-37 50.167 -49 82.5
s-18 69.166 -18 110.499s6.16699 78.5 18.5 111.5s29.166 61 50.499 84s46 40.667 74 53s57.667 18.5 89 18.5c42.667 0 76.334 -9.5 101.001 -28.5s43.667 -43.5 57 -73.5v131h-59c-13.333 0 -24.5 4.83301 -33.5 14.5s-13.5 21.167 -13.5 34.5s4.5 25 13.5 35
s20.167 15 33.5 15h61zM296.997 101c18 0 35.166 3.5 51.499 10.5s30.5 17 42.5 30s21.5 29 28.5 48s10.5 40.167 10.5 63.5c0 46.667 -12.5 84 -37.5 112s-56.833 42 -95.5 42c-41.333 0 -73.666 -14.167 -96.999 -42.5s-35 -65.5 -35 -111.5
c0 -23.333 3.33301 -44.333 10 -63s16 -34.5 28 -47.5s26 -23.167 42 -30.5s33.333 -11 52 -11z" />
    <glyph glyph-name="Emacron" unicode="&#x112;" horiz-adv-x="596" 
d="M504 111c18 0 32.167 -4.83496 42.5 -14.502s15.5 -23.167 15.5 -40.5s-5.16699 -31 -15.5 -41s-24.5 -15 -42.5 -15h-365c-20 0 -35.5 5.83301 -46.5 17.5s-16.5 26.834 -16.5 45.501v564c0 18.667 5.5 33.834 16.5 45.501s26.833 17.5 47.5 17.5h363
c18 0 32.333 -5 43 -15s16 -23.667 16 -41s-5.33301 -31 -16 -41s-25 -15 -43 -15h-301v-172h192c18 0 32.833 -4.83301 44.5 -14.5s17.5 -23.167 17.5 -40.5s-5.83301 -31 -17.5 -41s-26.5 -15 -44.5 -15h-192v-184h302zM423 903.998c13.333 0 24.333 -4.83301 33 -14.5
s13 -21.167 13 -34.5s-4.33301 -25 -13 -35s-19.667 -15 -33 -15h-206c-13.333 0 -24.5 5 -33.5 15s-13.5 21.667 -13.5 35s4.5 24.833 13.5 34.5s20.167 14.5 33.5 14.5h206z" />
    <glyph glyph-name="emacron" unicode="&#x113;" horiz-adv-x="563" 
d="M163 225c5.33301 -40 20.168 -70.6689 44.501 -92.002s54.833 -32 91.5 -32c14 0 27.167 1.5 39.5 4.5s23.5 6.83301 33.5 11.5s18.833 9.5 26.5 14.5s13.834 9.16699 18.501 12.5c12 5.33301 21 8 27 8c15.333 0 28.166 -5.66699 38.499 -17s15.5 -24 15.5 -38
c0 -10 -2.66699 -19.167 -8 -27.5s-11.333 -15.166 -18 -20.499c-19.333 -16 -44.333 -29.833 -75 -41.5s-66.667 -17.5 -108 -17.5c-36.667 0 -70.334 6.5 -101.001 19.5s-57 31.167 -79 54.5s-39.167 51 -51.5 83s-18.5 67 -18.5 105c0 36.667 6.33301 71.334 19 104.001
s30.167 61 52.5 85s48.833 43 79.5 57s63.667 21 99 21c34.667 0 66.167 -6.16699 94.5 -18.5s52.5 -28.666 72.5 -48.999s35.5 -43.833 46.5 -70.5s16.5 -54.334 16.5 -83.001c0 -21.333 -3.5 -38.833 -10.5 -52.5s-21.833 -20.5 -44.5 -20.5h-301zM288.002 406.998
c-32 0 -58.999 -9.5 -80.999 -28.5s-36.333 -45.833 -43 -80.5h235c0.666992 12.667 -1.33301 25.5 -6 38.5s-11.834 24.833 -21.501 35.5s-21.5 19.167 -35.5 25.5s-30 9.5 -48 9.5zM384.003 703.998c13.333 0 24.333 -4.83301 33 -14.5s13 -21.167 13 -34.5
s-4.33301 -25 -13 -35s-19.667 -15 -33 -15h-206c-13.333 0 -24.5 5 -33.5 15s-13.5 21.667 -13.5 35s4.5 24.833 13.5 34.5s20.167 14.5 33.5 14.5h206z" />
    <glyph glyph-name="Ebreve" unicode="&#x114;" horiz-adv-x="596" 
d="M504 111c18 0 32.167 -4.83496 42.5 -14.502s15.5 -23.167 15.5 -40.5s-5.16699 -31 -15.5 -41s-24.5 -15 -42.5 -15h-365c-20 0 -35.5 5.83301 -46.5 17.5s-16.5 26.834 -16.5 45.501v564c0 18.667 5.5 33.834 16.5 45.501s26.833 17.5 47.5 17.5h363
c18 0 32.333 -5 43 -15s16 -23.667 16 -41s-5.33301 -31 -16 -41s-25 -15 -43 -15h-301v-172h192c18 0 32.833 -4.83301 44.5 -14.5s17.5 -23.167 17.5 -40.5s-5.83301 -31 -17.5 -41s-26.5 -15 -44.5 -15h-192v-184h302zM316 759.998c-19.333 0 -37.5 3.33301 -54.5 10
s-32 15.667 -45 27s-23.167 24.666 -30.5 39.999s-11 31.666 -11 48.999c0 10 3.16699 19.167 9.5 27.5s16.166 12.5 29.499 12.5c20 0 33.333 -10.333 40 -31c6 -19.333 14.167 -32.833 24.5 -40.5s23.166 -11.5 38.499 -11.5c16 0 29 3.83301 39 11.5
s18.333 21.167 25 40.5c5.33301 20.667 18.333 31 39 31c14 0 24.167 -4.16699 30.5 -12.5s9.5 -17.5 9.5 -27.5c0 -17.333 -3.83301 -33.666 -11.5 -48.999s-18.167 -28.666 -31.5 -39.999s-28.666 -20.333 -45.999 -27s-35.666 -10 -54.999 -10z" />
    </font>
</defs>
</svg>
